SplineFontDB: 3.0
FontName: Radley-Italic
FullName: Radley-Italic
FamilyName: Radley
Weight: Normal
Copyright: Copyright (c) 2010 by vernon adams. All rights reserved.
Version: 001.001
ItalicAngle: -12.9
UnderlinePosition: -205
UnderlineWidth: 102
Ascent: 1800
Descent: 248
sfntRevision: 0x00010000
LayerCount: 2
Layer: 0 0 "Back"  1
Layer: 1 0 "Fore"  0
NeedsXUIDChange: 1
XUID: [1021 14 500265001 7035803]
FSType: 0
OS2Version: 3
OS2_WeightWidthSlopeOnly: 0
OS2_UseTypoMetrics: 1
CreationTime: 1314784834
ModificationTime: 1314972132
PfmFamily: 17
TTFWeight: 400
TTFWidth: 5
LineGap: 0
VLineGap: 0
Panose: 2 0 5 3 0 0 0 2 0 3
OS2TypoAscent: 0
OS2TypoAOffset: 1
OS2TypoDescent: 0
OS2TypoDOffset: 1
OS2TypoLinegap: 0
OS2WinAscent: -78
OS2WinAOffset: 1
OS2WinDescent: -332
OS2WinDOffset: 1
HheadAscent: -143
HheadAOffset: 1
HheadDescent: 348
HheadDOffset: 1
OS2SubXSize: 1331
OS2SubYSize: 1228
OS2SubXOff: -35
OS2SubYOff: 153
OS2SupXSize: 1331
OS2SupYSize: 1228
OS2SupXOff: 164
OS2SupYOff: 716
OS2StrikeYSize: 102
OS2StrikeYPos: 539
OS2Vendor: 'newt'
OS2CodePages: 20000083.00000000
OS2UnicodeRanges: 00000007.00000000.00000000.00000000
Lookup: 4 0 1 "'liga' Standard Ligatures in Latin lookup 0"  {"'liga' Standard Ligatures in Latin lookup 0-1"  } ['liga' ('DFLT' <'dflt' > 'latn' <'dflt' > ) ]
Lookup: 258 0 0 "'kern' Horizontal Kerning in Latin lookup 0"  {"'kern' Horizontal Kerning in Latin lookup 0-1" [400,0,2] } ['kern' ('DFLT' <'dflt' > 'latn' <'dflt' > ) ]
MarkAttachClasses: 1
DEI: 91125
KernClass2: 5 2 "'kern' Horizontal Kerning in Latin lookup 0-1" 
 1 F
 1 T
 1 V
 1 W
 11 a c d e o q
 0 {} 0 {} 0 {} 0 {} 0 {} -97 {} 0 {} -163 {} 0 {} -123 {}

StartChar: exclam
Encoding: 33 33 2
Width: 566
GlyphClass: 2
Flags: HW
LayerCount: 2
Fore
SplineSet
300 149 m 0
 300 63 208 0 127 0 c 0
 73 0 30 27 30 100 c 0
 30 190 121 252 199 252 c 0
 255 252 300 223 300 149 c 0
238 433 m 1
 211 433 l 1
 290 1082 l 2
 296 1133 348 1236 442 1236 c 0
 504 1236 519 1202 519 1159 c 0
 519 1135 515.387695312 1110.48535156 507 1090 c 2
 238 433 l 1
EndSplineSet
EndChar

StartChar: quotedbl
Encoding: 34 34 3
Width: 733
GlyphClass: 2
Flags: HW
LayerCount: 2
Fore
SplineSet
494.239257812 781 m 1
 496.239257812 781 l 1
 496.239257812 781 495.239257812 782 495.239257812 783 c 1
 495.239257812 782 494.239257812 781 494.239257812 781 c 1
180.239257812 782 m 1
 182.239257812 781 l 2
 182.239257812 782 181.239257812 783 181.239257812 784 c 1
 181.239257812 783 180.239257812 782 180.239257812 782 c 1
490.239257812 927 m 0
 490.239257812 1115.78320312 469.661132812 1286 610.239257812 1286 c 0
 657.239257812 1286 677.239257812 1266 677.239257812 1231 c 0
 677.239257812 1183.18652344 565.896484375 867.557617188 495.239257812 783 c 1
 491.239257812 818 490.239257812 871 490.239257812 927 c 0
176.239257812 927 m 0
 176.239257812 1116.81933594 154.28125 1285 295.239257812 1285 c 0
 342.239257812 1285 362.239257812 1265 362.239257812 1230 c 0
 362.239257812 1141.97265625 238.76953125 853.858398438 181.239257812 784 c 1
 177.239257812 819 176.239257812 870 176.239257812 927 c 0
EndSplineSet
EndChar

StartChar: numbersign
Encoding: 35 35 4
Width: 1167
GlyphClass: 2
Flags: HW
LayerCount: 2
Fore
SplineSet
775 690 m 1
 463 690 l 1
 364 483 l 1
 678 483 l 1
 775 690 l 1
638 407 m 1
 328 406 l 1
 237.95703125 225.915039062 170.120117188 37.638671875 91 -145 c 0
 71.8837890625 -189.127929688 49 -222 6 -222 c 0
 -12 -222 -26 -199 -26 -167 c 0
 -26 -124.073242188 199.365234375 308.653320312 236 383 c 2
 248 407 l 1
 221 407 l 2
 200 407 173 404 145 404 c 0
 92 404 63 414 63 434 c 0
 63 473 118 487 188 487 c 0
 222 487 256 484 275 484 c 2
 286 484 l 1
 387 691 l 1
 360 691 l 2
 337 691 303 687 269 687 c 0
 211 687 179 698 179 719 c 0
 179 756 238 772 313 772 c 0
 355 772 394 768 415 768 c 2
 426 768 l 1
 521.087890625 939.158203125 610.216796875 1127.6328125 671 1310 c 0
 679.340820312 1335.02636719 724 1345 751 1345 c 0
 789 1345 789 1339 789 1317 c 0
 789 1261.89453125 557.831054688 871.239257812 518 793 c 2
 505 768 l 1
 813 768 l 1
 893.012695312 928.025390625 968.177734375 1101.73730469 1029 1269 c 0
 1049 1325 1064 1345 1122 1345 c 0
 1160 1345 1168 1334 1168 1310 c 0
 1168 1256.7265625 946.76953125 867.661132812 908 794 c 2
 895 769 l 1
 923 769 l 2
 941 769 970 771 1002 771 c 0
 1063 771 1100 759 1100 743 c 0
 1100 702 1043 687 973 687 c 0
 931 687 889 692 865 692 c 2
 854 692 l 1
 753 485 l 1
 780 485 l 2
 799 485 833 488 869 488 c 0
 937 488 983 474 983 453 c 0
 983 416 928 402 850 402 c 0
 800 402 750 408 727 408 c 2
 716 408 l 1
 626.995117188 229.989257812 559.140625 41.6669921875 481 -141 c 0
 461 -188 432 -221 386 -221 c 0
 368 -221 354 -198 354 -166 c 0
 354 -123.056640625 590.719726562 311.369140625 626 383 c 2
 638 407 l 1
EndSplineSet
EndChar

StartChar: dollar
Encoding: 36 36 5
Width: 979
GlyphClass: 2
Flags: HW
LayerCount: 2
Fore
SplineSet
333 959 m 0
 333 906.990234375 361 865 413 826 c 2
 510 754 l 1
 587 1154 l 1
 566 1152 l 2
 454 1141 333 1076 333 959 c 0
519 464 m 2
 500 477 l 1
 495 453 l 2
 470.301757812 332.59375 441.586914062 179.93359375 409 17 c 1
 428 17 l 2
 548 17 689 92 689 257 c 0
 689 340 627 389 519 464 c 2
644 1171 m 1
 620.043945312 1075.78710938 595.571289062 961.302734375 550 741 c 1
 686 644 l 1
 816 557 856 495 856 414 c 0
 856 127.955078125 612.280273438 23.2734375 405 6 c 1
 382 -105 l 2
 366 -183 339 -194 330 -194 c 1
 329 -196 l 2
 328 -196 317 -191.016601562 317 -160 c 0
 317 -148.955078125 318 -140 320 -130 c 2
 348 5 l 1
 215.602539062 11.96875 92.2763671875 47.9482421875 7 103 c 1
 82 368 l 1
 87 369 89 369 90 369 c 0
 94 365 100 348 100 322 c 0
 100 310 98 298 98 284 c 0
 98 149.467773438 224.83203125 66.53125 361 41 c 1
 455 526 l 1
 333 611 l 2
 236 678 188 750 188 838 c 0
 188 1086.10449219 475.94140625 1101.38769531 596 1200 c 0
 710.538085938 1294.078125 633.783203125 1421 674 1421 c 0
 678 1421 681 1418 681 1394 c 0
 681 1368 669 1287 652 1221 c 2
 647 1201 l 1
 749.237304688 1195.88769531 843.0546875 1176.62304688 917 1144 c 1
 895 911 l 1
 888 910 886 910 884 910 c 0
 879 911 862 944 862 978 c 0
 862 1101.77734375 757.622070312 1154.76855469 644 1171 c 1
EndSplineSet
EndChar

StartChar: percent
Encoding: 37 37 6
Width: 1560
GlyphClass: 2
Flags: HW
LayerCount: 2
Fore
SplineSet
472 1304 m 0
 333.26953125 1304 225 1037.10742188 225 810 c 1
 223 812 l 1
 223 701 262 618 356 618 c 0
 503.189453125 618 596 891.068359375 596 1109 c 0
 596 1221 560 1304 472 1304 c 0
346 588 m 1
 345 588 l 2
 192 588 112 700 112 854 c 0
 112 1101 291 1327 489 1327 c 0
 629 1327 707 1215 707 1058 c 0
 707 818 545 591 346 588 c 1
1260 1262 m 1
 1260 1263 l 1
 1091 1034 750.350585938 590.139648438 391 15 c 0
 347.350585938 -54.8603515625 309.307617188 -137 249 -137 c 0
 228.974609375 -137 214 -130 203 -122 c 1
 235 -78 271.10546875 -37.5615234375 304 9 c 2
 1014 1014 l 1
 1105 1136 1166.19238281 1395 1296 1395 c 0
 1329.015625 1395 1342 1388 1353 1381 c 1
 1260 1262 l 1
1113 -6 m 1
 1112 -6 l 2
 965 -6 888 103 888 255 c 0
 888 496 1059 717 1255 717 c 0
 1401 717 1482 605 1482 451 c 0
 1482 216 1310 -2 1113 -6 c 1
1239 694 m 0
 1100.6796875 694 997 433.8984375 997 213 c 2
 997 212 l 2
 997 103 1034 23 1125 23 c 0
 1270.72167969 23 1367 287.64453125 1367 503 c 0
 1367 613 1330 694 1239 694 c 0
EndSplineSet
EndChar

StartChar: ampersand
Encoding: 38 38 7
Width: 1633
GlyphClass: 2
Flags: HW
LayerCount: 2
Fore
SplineSet
310 741 m 1
 220.943359375 702.833007812 171 606.120117188 171 518 c 0
 171 227 499 155 725 155 c 0
 916 155 1266 219 1266 500 c 0
 1266 715 1123 826 918 826 c 0
 807 826 665 769 665 633 c 0
 665 545 739 461 830 461 c 0
 848 461 892 470 892 506 c 0
 892 531 885 557 885 585 c 0
 885 642 921 665 961 665 c 0
 1005 665 1053 633 1053 570 c 0
 1053 457 953 392 847 392 c 0
 746 392 598 454 598 620 c 0
 598 834 782 960 989 960 c 0
 1127 960 1260 896 1407 896 c 0
 1474 896 1538 940 1538 1015 c 0
 1538 1049 1512 1124 1460 1124 c 0
 1413 1124 1401 1041 1331 1041 c 0
 1268 1041 1240 1080 1240 1120 c 0
 1240 1164 1273 1210 1350 1210 c 0
 1489 1210 1608 1151 1608 1000 c 0
 1608 867 1500 776 1371 776 c 0
 1348 776 1274 783 1274 783 c 1
 1238 786 l 1
 1258 756 l 2
 1309 679 1333 604 1333 517 c 0
 1333 179 1041 -3 707 -3 c 1
 706 0 l 1
 456 0 98 159 98 474 c 0
 98 697.90625 270.272460938 793.3984375 281 800 c 1
 264.787109375 835.126953125 251 868.326171875 251 953 c 0
 251 1109 399 1239 557 1239 c 0
 660 1239 761 1176 761 1083 c 0
 761 1044 721 993 674 993 c 0
 605 993 485 1072 402 1072 c 0
 349 1072 317 1032 317 938 c 0
 317 877.721679688 326.76171875 852.555664062 339 824 c 1
 363.60546875 832.202148438 394.075195312 843 423 843 c 0
 491 843 518 801 518 759 c 0
 518 712 482 665 425 665 c 0
 363.903320312 665 335.665039062 699.293945312 310 741 c 1
EndSplineSet
EndChar

StartChar: quoteright
Encoding: 8217 8217 8
Width: 488
GlyphClass: 2
Flags: HW
LayerCount: 2
Fore
SplineSet
210 783 m 1
 142 869 l 1
 204 910 242 929 242 992 c 0
 242 1030 194 1102.6640625 194 1140 c 0
 194 1179.05078125 234 1217 288 1217 c 0
 362 1217 416 1154 416 1063 c 0
 416 951 309 843 210 783 c 1
EndSplineSet
EndChar

StartChar: parenleft
Encoding: 40 40 9
Width: 636
GlyphClass: 2
Flags: HW
LayerCount: 2
Fore
SplineSet
679 1264 m 1
 678 1264 l 1
 396 965 266 613 266 240 c 0
 266 80 292 -86 338 -249 c 1
 320 -260 303 -268 292 -268 c 0
 289 -268 284.30859375 -266.765625 282 -264 c 0
 178.30859375 -139.765625 93 98 93 363 c 0
 93 696 229 1068 638 1312 c 0
 639 1312 640 1313 641 1313 c 0
 647 1313 668 1286 679 1264 c 1
EndSplineSet
EndChar

StartChar: parenright
Encoding: 41 41 10
Width: 645
GlyphClass: 2
Flags: HW
LayerCount: 2
Fore
SplineSet
-62 -216 m 1
 -61 -216 l 1
 221 83 351 435 351 808 c 0
 351 968 325 1134 279 1297 c 1
 297 1308 314 1316 325 1316 c 0
 328 1316 332.69140625 1314.765625 335 1312 c 0
 438.69140625 1187.765625 524 950 524 685 c 0
 524 352 388 -20 -21 -264 c 0
 -22 -264 -23 -265 -24 -265 c 0
 -30 -265 -51 -238 -62 -216 c 1
EndSplineSet
EndChar

StartChar: asterisk
Encoding: 42 42 11
Width: 1134
GlyphClass: 2
Flags: HW
LayerCount: 2
Fore
SplineSet
740 1224 m 1
 743 1226 l 1
 718 1103 653 954 610 827 c 2
 597 789 l 1
 633 806 l 2
 703 839 1008 993 1056 993 c 0
 1090 993 1111 968 1111 933 c 0
 1111 891 1078 851 1031 841 c 2
 609 753 l 1
 623 732 l 2
 661 675 829 473 829 400 c 0
 829 359 772 312 729 312 c 0
 702 312 682 328 675 351 c 2
 565 734 l 1
 297 356 l 2
 279 330 247 312 219 312 c 0
 184 312 156 339 156 372 c 0
 156 446.852539062 443.736328125 669.856445312 508 728 c 2
 532 750 l 1
 136 841 l 2
 113 846 94 869 94 895 c 0
 94 941 145 992 191 992 c 0
 237 992 473 839 532 805 c 2
 555 792 l 1
 557 818 l 2
 568 948 563 1097 589 1222 c 0
 597 1262 643 1292 684 1292 c 0
 720 1292 742 1270 742 1239 c 0
 742 1235 741 1230 740 1224 c 1
EndSplineSet
EndChar

StartChar: plus
Encoding: 43 43 12
Width: 914
GlyphClass: 2
Flags: HW
LayerCount: 2
Fore
SplineSet
26 605 m 1
 25 608 l 1
 70 622 112 625 199 625 c 2
 404 625 l 1
 446 828 l 2
 461 900 467.352539062 967.125 490 1000 c 0
 498.352539062 1012.125 520 1001 537 1001 c 0
 551 1001 566 1001 576 1000 c 1
 571 954 560.841796875 904.245117188 547 836 c 2
 504 624 l 1
 714 624 l 2
 782 624 838 621 877 616 c 1
 874 586 878.638671875 539.711914062 859 529 c 0
 823.638671875 509.711914062 759 523 687 523 c 2
 484 523 l 1
 443 319 l 1
 427 248 420.420898438 180.934570312 397 148 c 0
 388.420898438 135.934570312 367 147 351 147 c 0
 337 147 321 148 310 149 c 1
 316 195 327.15234375 243.759765625 341 313 c 2
 383 523 l 1
 45 523 l 1
 25 538 21 549 21 568 c 0
 21 577 23 591 26 605 c 1
EndSplineSet
EndChar

StartChar: comma
Encoding: 44 44 13
Width: 590
GlyphClass: 2
Flags: HW
LayerCount: 2
Fore
SplineSet
151 -212 m 1
 80 -116 l 1
 101 -101 l 2
 176 -48 227 -31 227 44 c 0
 227 85 174 165.67578125 174 209 c 0
 174 254.043945312 219 297 280 297 c 0
 363 297 424 226 424 124 c 0
 424 -5 297 -130 181 -195 c 2
 151 -212 l 1
EndSplineSet
EndChar

StartChar: hyphen
Encoding: 45 45 14
Width: 726
GlyphClass: 2
Flags: HW
LayerCount: 2
Fore
SplineSet
126 360 m 1
 133 401 149.598632812 475 161 475 c 2
 585 475 l 1
 577 435 560.727539062 360 548 360 c 2
 126 360 l 1
EndSplineSet
EndChar

StartChar: period
Encoding: 46 46 15
Width: 533
GlyphClass: 2
Flags: HW
LayerCount: 2
Fore
SplineSet
112 130 m 0
 112 221 176 264 240 264 c 0
 306 264 369 221 369 130 c 0
 369 40 306 -3 240 -3 c 0
 176 -3 112 40 112 130 c 0
EndSplineSet
EndChar

StartChar: slash
Encoding: 47 47 16
Width: 800
GlyphClass: 2
Flags: HW
LayerCount: 2
Fore
SplineSet
841 1372 m 1
 637 962 333 512 106 98 c 0
 79 49 49.169921875 -10.55859375 14 -49 c 0
 6.169921875 -57.55859375 -10 -52 -23 -52 c 2
 -33 -52 l 1
 -29 0 -6 50 24 101 c 2
 601 1081 l 2
 643 1153 723.3984375 1385 791 1385 c 0
 812.0234375 1385 827 1380 841 1372 c 1
EndSplineSet
EndChar

StartChar: zero
Encoding: 48 48 17
Width: 1109
GlyphClass: 2
Flags: HW
LayerCount: 2
Fore
SplineSet
469 93 m 2
 470 93 l 2
 667 93 818 326 818 564 c 0
 818 731 723 847 574 847 c 0
 384 847 242 613 242 399 c 0
 242 239 321 93 469 93 c 2
97 396 m 0
 97 656 295 927 586 927 c 0
 832 927 975 750 975 537 c 0
 975 263 760 14 489 14 c 0
 254 14 97 174 97 396 c 0
EndSplineSet
EndChar

StartChar: one
Encoding: 49 49 18
Width: 718
GlyphClass: 2
Flags: HW
LayerCount: 2
Fore
SplineSet
28 17 m 1
 47 85 l 1
 119 86 196.563476562 99.4306640625 222 220 c 2
 322 694 l 2
 323 703 324 712 324 721 c 0
 324 780 283 813 185 817 c 1
 200 888 l 1
 654 888 l 1
 633 818 l 1
 559 817 482.44140625 803.33984375 457 683 c 2
 357 210 l 2
 354 197 353 184 353 173 c 2
 353 171 l 1
 359 117 403 90 494 87 c 1
 481 17 l 1
 28 17 l 1
EndSplineSet
EndChar

StartChar: two
Encoding: 50 50 19
Width: 961
GlyphClass: 2
Flags: HW
LayerCount: 2
Fore
SplineSet
630 -68 m 1
 628 -71 l 1
 612 -71 634 3 587 3 c 2
 42 3 l 2
 -9 3 -11 17 -11 20 c 0
 -11 35 18 70 54 100 c 2
 408 393 l 2
 443 422 646 547 646 684 c 0
 646 796 564 836 495 836 c 0
 394 836 269 771 201 715 c 0
 188 705 177 702 172 702 c 0
 164 702 160 705 160 715 c 0
 160 721 166 734 182 752 c 0
 265 847 417 925 557 925 c 0
 706 925 826 865 826 706 c 0
 826 508 580 383 426 268 c 2
 272 153 l 1
 289 122 l 1
 601 122 l 2
 730 122 777 246 816 246 c 0
 817 246 818 246 819 246 c 1
 819 234 797.608398438 212.422851562 786 193 c 2
 630 -68 l 1
EndSplineSet
EndChar

StartChar: three
Encoding: 51 51 20
Width: 867
GlyphClass: 2
Flags: HW
LayerCount: 2
Fore
SplineSet
208 78 m 1
 210 74 l 1
 219.512695312 72.4150390625 232.1875 72 242 72 c 0
 404 72 504 230 504 374 c 0
 504 505 427 603 324 647 c 1
 427 720 614 849 614 1010 c 0
 614 1077 568 1146 475 1146 c 0
 400 1146 308 1095 253 1042 c 0
 232 1022 214 1015 199 1015 c 0
 184 1015 180 1020 180 1028 c 0
 180 1037 187 1053 209 1079 c 0
 297 1182 401 1238 534 1238 c 0
 678 1238 781 1163 781 1048 c 0
 781 924 684 818 533 721 c 1
 508 703 l 1
 536 691 l 1
 656 645 714 550 714 437 c 0
 714 208 500 -2 217 -2 c 0
 30 -2 -24 62 -24 103 c 0
 -24 144 7 179 53 179 c 0
 100 179 127 167 208 78 c 1
EndSplineSet
EndChar

StartChar: four
Encoding: 52 52 21
Width: 1005
GlyphClass: 2
Flags: HW
LayerCount: 2
Fore
SplineSet
119 238 m 1
 512 238 l 1
 645 793 l 1
 119 238 l 1
659 135 m 1
 654.833984375 116.946289062 602.982421875 -86.0185546875 561 -311 c 1
 387 -311 l 1
 489 135 l 1
 65 134 l 2
 11 134 -4 154 -4 173 c 0
 -4 189 6 211 30 237 c 2
 618 863 l 2
 671 919 669 925 725 925 c 2
 841 925 l 1
 679 239 l 1
 923 239 l 1
 897 135 l 1
 659 135 l 1
EndSplineSet
EndChar

StartChar: five
Encoding: 53 53 22
Width: 864
GlyphClass: 2
Flags: HW
LayerCount: 2
Fore
SplineSet
220 368 m 1
 212 368 210 367 205 367 c 0
 181 367 173 368.963867188 173 383 c 0
 173 396.6015625 150.645507812 530.918945312 310 896 c 0
 339.645507812 963.918945312 457 912 520 912 c 0
 527 912 558 907 648 907 c 0
 728 907 736 986 769 986 c 0
 782 986 802.479492188 981.177734375 801 976 c 2
 793 948 l 2
 774 883 764.9453125 800.392578125 749 774 c 0
 735.9453125 752.392578125 627 752 553 752 c 0
 469 752 416.071289062 755 353 755 c 0
 335.958007812 755 327.732421875 740.563476562 323 724 c 0
 305 657 288 608 270 539 c 2
 264 516 l 1
 314 516 l 2
 541 516 673 404 673 236 c 0
 673 23 432 -241 163 -241 c 0
 22 -241 -18 -180 -18 -136 c 0
 -18 -95 13 -60 59 -60 c 0
 101.315429688 -60 142.799804688 -79.77734375 218 -166 c 0
 223.02734375 -171.763671875 244.877929688 -168 249 -168 c 0
 415 -168 529 12 529 143 c 0
 529 287 414 370 231 370 c 1
 220 368 l 1
EndSplineSet
EndChar

StartChar: six
Encoding: 54 54 23
Width: 942
GlyphClass: 2
Flags: HW
LayerCount: 2
Fore
SplineSet
386 53 m 0
 599 53 669 377 669 539 c 0
 669 608 630 703 518 703 c 0
 319 703 220 420 220 257 c 0
 220 161 259 53 386 53 c 0
318 649 m 1
 388.594726562 719.594726562 475.510742188 763 566 763 c 0
 744 763 833 640 833 482 c 1
 832 483 l 1
 832 258 633 -2 406 -2 c 0
 163 -2 74 162 74 353 c 0
 74 712 399 1134 758 1228 c 0
 763 1229 768 1229 774 1229 c 0
 802 1229 813 1213 813 1203 c 0
 813 1194 809 1185 789 1178 c 0
 529 1079 388 897 292 673 c 1
 281 649 l 1
 318 649 l 1
EndSplineSet
EndChar

StartChar: seven
Encoding: 55 55 24
Width: 909
GlyphClass: 2
Flags: HW
LayerCount: 2
Fore
SplineSet
432 906 m 2
 870 906 l 1
 263 -238 l 1
 234 -290 196 -309 162 -309 c 0
 114 -309 73 -272 73 -216 c 0
 73 -192 83 -158 107 -122 c 2
 692 760 l 1
 327 760 l 2
 186 760 111 628 92 628 c 2
 87 628 l 1
 236 934 l 1
 259 976 262 985 272 985 c 0
 295 985 272.885742188 955.6640625 326 922 c 0
 343.885742188 910.6640625 370 905 396 905 c 0
 409 905 422 906 432 906 c 2
EndSplineSet
EndChar

StartChar: eight
Encoding: 56 56 25
Width: 943
GlyphClass: 2
Flags: HW
LayerCount: 2
Fore
SplineSet
744 1029 m 1
 742 1030 l 1
 742 1118 691 1196 586 1196 c 0
 482 1196 356 1124 356 986 c 0
 356 858.479492188 393.970703125 707 522 707 c 0
 654.02734375 707 744 882.59765625 744 1029 c 1
442 594 m 1
 302.615234375 524.307617188 179 399.96484375 179 229 c 0
 179 115 253 50 375 50 c 0
 504 50 619 179 619 303 c 0
 619 412.34765625 553.123046875 468.986328125 442 594 c 1
581 650 m 1
 581 648 l 1
 591 642 776 529 776 356 c 0
 776 127 544 -4 366 -4 c 0
 175 -4 50 83 50 220 c 0
 50 460 378 618 386 622 c 2
 412 636 l 1
 387 652 l 2
 379 657 213 767 213 916 c 0
 213 1058 364 1236 594 1236 c 0
 772 1236 866 1170 866 1025 c 0
 866 822 598.599609375 685.53515625 583 680 c 2
 552 669 l 1
 581 650 l 1
EndSplineSet
EndChar

StartChar: nine
Encoding: 57 57 26
Width: 977
GlyphClass: 2
Flags: HW
LayerCount: 2
Fore
SplineSet
574 1181 m 0
 361 1181 291 857 291 695 c 0
 291 626 330 531 442 531 c 0
 641 531 740 814 740 977 c 0
 740 1073 701 1181 574 1181 c 0
641 584 m 1
 570.405273438 513.405273438 483.489257812 470 393 470 c 0
 215 470 126 593 126 751 c 1
 128 751 l 1
 128 976 327 1236 554 1236 c 0
 797 1236 886 1072 886 881 c 0
 886 522 561 100 202 6 c 0
 196 4 191 3 185 3 c 0
 159 3 146 20 146 30 c 0
 146 34 151 47 171 55 c 0
 430 155 571 332 667 560 c 1
 678 584 l 1
 641 584 l 1
EndSplineSet
EndChar

StartChar: colon
Encoding: 58 58 27
Width: 578
GlyphClass: 2
Flags: HW
LayerCount: 2
Fore
SplineSet
93 150 m 0
 93 241 157 284 221 284 c 0
 287 284 350 241 350 150 c 0
 350 60 287 17 221 17 c 0
 157 17 93 60 93 150 c 0
196 775 m 0
 196 866 260 909 324 909 c 0
 390 909 453 866 453 775 c 0
 453 685 390 642 324 642 c 0
 260 642 196 685 196 775 c 0
EndSplineSet
EndChar

StartChar: semicolon
Encoding: 59 59 28
Width: 593
GlyphClass: 2
Flags: HW
LayerCount: 2
Fore
SplineSet
221 775 m 0
 221 866 285 909 349 909 c 0
 415 909 478 866 478 775 c 0
 478 685 415 642 349 642 c 0
 285 642 221 685 221 775 c 0
101 -212 m 1
 30 -116 l 1
 51 -101 l 2
 126 -48 177 -31 177 44 c 0
 177 85 124 165.67578125 124 209 c 0
 124 254.043945312 169 297 230 297 c 0
 313 297 374 226 374 124 c 0
 374 -5 247 -130 131 -195 c 2
 101 -212 l 1
EndSplineSet
EndChar

StartChar: less
Encoding: 60 60 29
Width: 629
GlyphClass: 2
Flags: HW
LayerCount: 2
Fore
SplineSet
159 556 m 1
 197.002929688 486.328125 391 161.14453125 391 79 c 0
 391 56 371 35 351 35 c 0
 320 35 313 40 301 66 c 2
 70 549 l 1
 186 671 430.99609375 1050 567 1050 c 0
 592.080078125 1050 606 1035 606 1018 c 0
 606 1017 606 1016 606 1015 c 0
 501.5859375 860.42578125 297.106445312 694.106445312 159 556 c 1
EndSplineSet
EndChar

StartChar: equal
Encoding: 61 61 30
Width: 849
GlyphClass: 2
Flags: HW
LayerCount: 2
Fore
SplineSet
562 470 m 2
 619 470 669 464 669 446 c 0
 669 420 635 410 591 410 c 0
 572 410 554 412 540 412 c 2
 228 412 l 2
 216 412 199 411 183 411 c 0
 140 411 120 419 120 432 c 0
 120 472 200 470 246 470 c 2
 562 470 l 2
611 712 m 2
 668 712 718 706 718 688 c 0
 718 662 685 652 641 652 c 0
 623 652 605 654 591 654 c 2
 279 654 l 2
 267 654 250 653 234 653 c 0
 190 653 169 661 169 674 c 0
 169 714 249 712 295 712 c 2
 611 712 l 2
EndSplineSet
EndChar

StartChar: greater
Encoding: 62 62 31
Width: 669
GlyphClass: 2
Flags: HW
LayerCount: 2
Fore
SplineSet
460 551 m 1
 382.952148438 692.25390625 206 854.423828125 206 1010 c 0
 206 1035.29785156 243.919921875 1051 269 1051 c 0
 380.198242188 1051 639.788085938 656.33984375 550 556 c 2
 116 71 l 2
 91 43 74 35 42 35 c 1
 41 36 l 1
 27 36 22 42 22 56 c 0
 22 124.013671875 390.87109375 481.87109375 460 551 c 1
EndSplineSet
EndChar

StartChar: question
Encoding: 63 63 32
Width: 692
GlyphClass: 2
Flags: HW
LayerCount: 2
Fore
SplineSet
87 289 m 1
 105.9296875 291.83984375 153 284.890625 153 315 c 2
 153 332 l 1
 136 332 l 1
 126 331 122 324 121 323 c 2
 87 289 l 1
8 52 m 0
 8 147 67 199 143 199 c 0
 186 199 219 165 219 126 c 0
 219 52 142 -3 76 -3 c 0
 38 -3 8 27 8 52 c 0
209 349 m 1
 144 354 l 1
 223 702 l 1
 229 703 236 703 244 703 c 2
 358 703 l 2
 470 703 546 830 546 935 c 0
 546 1003 521 1121 411 1121 c 0
 377 1121 336 1103 312 1103 c 0
 269 1103 245 1129 245 1155 c 0
 245 1181 284 1236 417 1236 c 0
 595 1236 638 1073 638 969 c 0
 638 808 568 566 290 566 c 2
 260 566 l 1
 209 349 l 1
EndSplineSet
EndChar

StartChar: at
Encoding: 64 64 33
Width: 1639
GlyphClass: 2
Flags: HW
LayerCount: 2
Fore
SplineSet
1075 148 m 0
 978 148 938 228 938 322 c 2
 938 347 l 1
 941 353 l 1
 948 375 l 2
 1000 539 1073 704 1072 877 c 0
 1072 935 1046 994 960 994 c 0
 727 994 581 594 581 407 c 0
 581 323 610 233 718 233 c 0
 776 233 836 264 887 302 c 1
 822 218 738 169 664 169 c 0
 517 169 453 269 453 416 c 0
 453 705 716 1039 988 1039 c 0
 1143 1039 1190 963 1190 846 c 0
 1190 659 1050 451 1050 241 c 0
 1050 207 1062 164 1114 164 c 0
 1301 164 1382 675 1382 781 c 0
 1382 1038 1281 1252 1031 1252 c 0
 585 1252 253 746 253 375 c 0
 253 100 382 -43 630 -43 c 0
 705 -43 782 -32 857 -14 c 1
 846 -49 l 1
 744 -79 647 -95 548 -95 c 0
 282 -95 77 82 77 399 c 0
 77 895 606 1311 1051 1311 c 0
 1336 1311 1549 1133 1549 783 c 0
 1549 555 1341 148 1075 148 c 0
938 347 m 1
 938 378 l 1
 885 298 l 1
 927 336 l 1
 938 347 l 1
EndSplineSet
EndChar

StartChar: A
Encoding: 65 65 34
Width: 1130
GlyphClass: 2
Flags: HMW
HStem: 34 70<-108 -58.5 -95 -58.5 371 373 597 633.5 1055 1057> 418 59
VStem: 758 143 776 153<1234 1234>
LayerCount: 2
Fore
SplineSet
766 443 m 1xc0
 775 978 l 1
 432 443 l 1
 766 443 l 1xc0
237 135 m 0
 237 86.265625 289.45703125 70 373 70 c 0
 376 70 381 66 381 28 c 0
 381 1 373 0 373 0 c 1
 -106 0 l 2
 -110 0 -113 0 -113 18 c 0
 -113 42 -101.403320312 70 -95 70 c 0
 -22 70 49.66796875 80.2197265625 127 199 c 2
 773.49609375 1192 l 5
 926.49609375 1192 l 5
 901 190 l 1xe0
 901 116.952148438 922.0859375 70 1057 70 c 0
 1061 70 1066 66 1066 28 c 0
 1066 1 1057 0 1057 0 c 1
 587 0 l 2
 583 0 580 -1 580 18 c 0
 580 41 589.928710938 70 597 70 c 0
 670 70 745.678710938 80.1455078125 753 209 c 2
 763 385 l 1
 383 385 l 1
 265 200 l 2
 252 180 237 161 237 135 c 0
EndSplineSet
EndChar

StartChar: B
Encoding: 66 66 35
Width: 1131
GlyphClass: 2
Flags: HW
LayerCount: 2
Fore
SplineSet
1117 927 m 0
 1117 695.5390625 834 640 834 640 c 1
 827.905273438 627.200195312 853.942382812 626.470703125 847 623 c 1
 981.637695312 580.418945312 1058 478.806640625 1058 353 c 0
 1058 72 832 0 432 0 c 2
 -62 0 l 2
 -66 0 -69 0 -69 18 c 0
 -69 42 -57.4033203125 70 -51 70 c 0
 24 70 109.359375 78.279296875 135 206 c 2
 294 998 l 2
 296 1009 297 1020 297 1029 c 0
 297 1111 216 1120 161 1123 c 0
 156 1123 154 1123 154 1141 c 0
 154 1160 162 1181 164 1192 c 1
 675 1192 l 2
 990 1192 1117 1074 1117 927 c 0
466.994140625 997 m 1
 437.153320312 858.365234375 272 83 272 83 c 1
 404 83 l 2
 564 83 902 72 902 356 c 0
 902 555.365234375 689.353515625 591 573 591 c 0
 536 591 523 611 523 630 c 0
 523 650 535 666 554 666 c 0
 749 666 955 730 955 904 c 0
 955 1030 825 1101 646 1101 c 0
 575.604492188 1101 491.129882812 1099.01953125 466.994140625 997 c 1
EndSplineSet
EndChar

StartChar: C
Encoding: 67 67 36
Width: 1132
GlyphClass: 2
Flags: HMW
HStem: -21 112 1165 90
VStem: 85 188 1003 171
LayerCount: 2
Fore
SplineSet
566 -25 m 1
 335 -25 86 180.034179688 86 553 c 0
 86 923.079101562 384 1239 719 1239 c 0
 968 1239 1174 1112.18554688 1174 918 c 0
 1174 867 1139 839 1101 839 c 0
 1062 839 1015 869 1003 952 c 0
 987 1054.16113281 902 1142 743 1142 c 0
 485 1142 273 833.59375 273 496 c 0
 273 274 366 86 592 86 c 0
 755 86 935 203 1026 362 c 1
 1107 298 l 1
 982.23046875 90.2861328125 763.634765625 -25 566 -25 c 1
EndSplineSet
EndChar

StartChar: D
Encoding: 68 68 37
Width: 1246
GlyphClass: 2
Flags: HW
LayerCount: 2
Fore
SplineSet
564 70 m 2
 836.293945312 70 1026.5 485.881835938 1026.5 789 c 0
 1026.5 957.72265625 941.5 1144 706.5 1144 c 2
 624.5 1144 l 2
 538.5 1144 494.006835938 1124.95800781 474.5 1035 c 2
 268 70 l 1
 564 70 l 2
697.5 1192 m 1
 973.5 1192 1212.5 1007.29589844 1212.5 719 c 0
 1212.5 371.397460938 946.288085938 0 584 0 c 2
 -65 -1 l 2
 -69 -1 -72 -1 -72 17 c 0
 -72 39 -62.0712890625 69 -55 69 c 0
 20 69 103.564453125 76.6455078125 131 201 c 2
 307.5 1001 l 2
 309.5 1012 310.5 1022 310.5 1032 c 0
 310.5 1111 231.5 1123 157.5 1123 c 0
 153.5 1123 150.5 1123 150.5 1141 c 0
 150.5 1169.55957031 166.5 1192 170.5 1192 c 4
 345.170898438 1192 684 1192 697.5 1192 c 1
EndSplineSet
EndChar

StartChar: E
Encoding: 69 69 38
Width: 1079
GlyphClass: 2
Flags: HMW
HStem: 27 70 618 71<387 659 371 675> 906 21G<1041 1065.5> 1137 70
VStem: 839 46<805 805> 1011 96
LayerCount: 2
Fore
SplineSet
168.5 1122 m 5
 170.5 1124 l 5
 166.5 1124 163.5 1124 163.5 1142 c 4
 163.5 1170 179.5 1192 183.5 1192 c 6
 1112.5 1192 l 5
 1113.5 914 l 5
 1108.5 908 1084.5 890 1057.5 890 c 4
 1035.5 890 1019.91796875 897.462890625 1017.5 907 c 4
 983.91796875 1039.46289062 966.5 1121 861.5 1121 c 6
 546.5 1121 l 6
 521.5 1121 489.5 1110 475.5 1047 c 6
 387 663 l 1
 675 663 l 2
 782 663 807.615234375 779 839 779 c 2
 885 779 l 1
 798 449 l 1
 755 449 l 1
 751 486 735 592 659 592 c 2
 371 592 l 1
 275 152 l 2
 272 140 271 129 271 121 c 0
 271 78 301 71 319 71 c 2
 625 71 l 2
 774 71 860 156 894 279 c 1
 894 281 l 1
 895 284 909 293 927 293 c 0
 965 293 1002 291 1016 288 c 1
 910 0 l 1
 -60 0 l 2
 -64 0 -67 0 -67 18 c 0
 -67 46 -51.123046875 71 -47 71 c 0
 22 71 93.2646484375 80.5888671875 121 203 c 2
 297.5 982 l 5
 300.5 1001 304.5 1018 304.5 1036 c 4
 304.5 1120 223.5 1122 168.5 1122 c 5
EndSplineSet
EndChar

StartChar: F
Encoding: 70 70 39
Width: 1005
GlyphClass: 2
Flags: HW
LayerCount: 2
Fore
SplineSet
281.001953125 155.999023438 m 1
 281 167 282 179 285 192 c 2
 364 548 l 1
 692 548 l 2
 768 548 784 433 788 395 c 1
 841 395 l 1
 928 725 l 1
 865 725 l 2
 833.219726562 725 806 609 699 609 c 2
 379 609 l 1
 478 1047 l 6
 492 1110 524 1121 549 1121 c 6
 820 1121 l 6
 925 1121 942.37109375 1038.45117188 976 903 c 4
 978.37109375 893.451171875 994 886 1016 886 c 4
 1043 886 1067 904 1072 910 c 5
 1072 1192 l 5
 189 1192 l 6
 184 1192 175 1180 175 1150 c 4
 175 1134 174.694335938 1122.26953125 179 1122 c 4
 238.694335938 1118.26953125 312 1118 312 1033 c 4
 312 1014.97265625 308 1000 304 983 c 6
 129 204 l 2
 100.874023438 78.80078125 18 71 -58 71 c 0
 -62.123046875 71 -78 46 -78 18 c 0
 -78 0 -74 0 -71 0 c 2
 427 0 l 2
 432 0 441 12 441 42 c 0
 441 58 441.360351562 69.818359375 437 70 c 0
 342.326171875 74.0537109375 287.200195312 97.6044921875 281.001953125 155.999023438 c 1
EndSplineSet
EndChar

StartChar: G
Encoding: 71 71 40
Width: 1202
GlyphClass: 2
Flags: HW
LayerCount: 2
Fore
SplineSet
971 98 m 1
 852.357421875 16.701171875 720.42578125 -24.2607421875 595.262695312 -24.2607421875 c 0
 325.1875 -24.2607421875 87 169.672851562 87 564 c 0
 87 927.612304688 391.5703125 1239 736 1239 c 0
 963.0625 1239 1150 1111 1150 915 c 0
 1150 864 1115 836 1077 836 c 0
 1041.97949219 836 999.775390625 868.655273438 989 959 c 0
 973.620117188 1057.39648438 894.797851562 1142 741 1142 c 4
 511 1142 270 873.68359375 270 524 c 0
 270 253.653320312 432.362304688 78.140625 610.47265625 78.140625 c 0
 683.834960938 78.140625 759.888671875 98.154296875 828.229492188 142 c 0
 833.715820312 147.559570312 866.444335938 266.12890625 886 386 c 1
 886 388 l 1
 887 398 888 408 888 418 c 0
 888 477 841 508 746 512 c 1
 761 584 l 1
 1215 584 l 1
 1193 512 l 1
 1123 510 1087 485 1054 375 c 2
 971 98 l 1
EndSplineSet
EndChar

StartChar: H
Encoding: 72 72 41
Width: 1271
GlyphClass: 2
Flags: HW
LayerCount: 2
Fore
SplineSet
638 17 m 0
 638 44 652.876953125 69 657 69 c 0
 732 69 804 78 832 204 c 2
 919 596 l 1
 380 596 l 1
 291 192 l 2
 288 179 286 167 286 155 c 0
 286 81 357.342773438 73.791015625 436 70 c 0
 440.342773438 69.791015625 440 58 440 42 c 0
 440 12 431 0 425 0 c 2
 -67 0 l 2
 -70 0 -74 0 -74 18 c 0
 -74 46 -58.123046875 71 -54 71 c 0
 23 71 99.5849609375 80.09375 128 204 c 2
 311 1002 l 6
 314 1017 316 1029 316 1042 c 4
 316 1108 257.639648438 1118.18164062 166 1122 c 4
 161.639648438 1122.18164062 162 1134 162 1150 c 4
 162 1180 171 1192 177 1192 c 6
 661 1192 l 6
 664 1192 668 1192 668 1174 c 4
 668 1147 653.123046875 1122 649 1122 c 4
 574 1122 502 1113 474 987 c 6
 398 652 l 1
 937 652 l 1
 1015 998 l 5
 1017 1014 1020 1027 1020 1040 c 4
 1020 1107 962.638671875 1118.1796875 870 1122 c 4
 865.638671875 1122.1796875 866 1134 866 1150 c 4
 866 1180 875 1192 881 1192 c 6
 1373 1192 l 6
 1376 1192 1380 1192 1380 1174 c 4
 1380 1146 1364.12304688 1121 1360 1121 c 4
 1282 1121 1206 1112 1178 988 c 6
 995 189 l 2
 992.021484375 175.995117188 990 164 990 152 c 0
 990 79 1061.34277344 72.791015625 1140 69 c 0
 1144.34277344 68.791015625 1144 57 1144 41 c 0
 1144 11 1135 -1 1129 -1 c 2
 645 -1 l 2
 642 -1 638 -1 638 17 c 0
EndSplineSet
EndChar

StartChar: I
Encoding: 73 73 42
Width: 547
GlyphClass: 2
Flags: HMW
HStem: 27 70<376 403> 1137 70
LayerCount: 2
Fore
SplineSet
-72 18 m 1
 -73 19 l 1
 -73 47 -57.123046875 72 -53 72 c 0
 25 72 102.252929688 80.494140625 129 205 c 2
 300 1001 l 6
 303 1016 305 1028 305 1041 c 4
 305 1107 252.6484375 1118.1953125 168 1122 c 4
 163.6484375 1122.1953125 164 1134 164 1150 c 4
 164 1180 173 1192 178 1192 c 6
 646 1192 l 6
 649 1192 653 1192 653 1174 c 4
 653 1146 637.123046875 1121 633 1121 c 4
 555 1121 477.282226562 1112.60449219 451 988 c 6
 281 191 l 2
 278.216796875 177.950195312 276 166 276 154 c 0
 276 81 341.331054688 73.7724609375 413 70 c 0
 417.331054688 69.7724609375 417 58 417 42 c 0
 417 12 408 0 403 0 c 2
 -65 0 l 2
 -68 0 -72 0 -72 18 c 1
EndSplineSet
EndChar

StartChar: J
Encoding: 74 74 43
Width: 752
GlyphClass: 2
Flags: HMW
HStem: -306 85 664 94 1274 81
VStem: 20.2461 202
LayerCount: 2
Back
SplineSet
823.75390625 800 m 5
 806.75390625 705 l 5
 663.75390625 705 l 5
 574.75390625 235 l 6
 513.75390625 -89 392.75390625 -262 150.75390625 -262 c 4
 58.75390625 -262 -119.24609375 -224 -123.24609375 -127 c 5
 -123.24609375 -125 l 6
 -123.24609375 -76 -85.24609375 -53 -41.24609375 -53 c 4
 27.75390625 -53 108.75390625 -176 190.75390625 -176 c 4
 282.75390625 -176 340.302734375 -89.91015625 380.75390625 111 c 6
 500.75390625 707 l 5
 309.75390625 707 l 5
 325.75390625 800 l 5
 823.75390625 800 l 5
EndSplineSet
Fore
SplineSet
516.24609375 1001 m 2
 519.104492188 1015.29199219 520.528320312 1027.90917969 520.528320312 1039.04785156 c 0
 520.528320312 1102.41503906 474.446289062 1117.9453125 384.24609375 1122 c 0
 379.89453125 1122.1953125 380.24609375 1134 380.24609375 1150 c 0
 380.24609375 1180 389.24609375 1192 394.24609375 1192 c 2
 862.24609375 1192 l 2
 865.24609375 1192 869.24609375 1192 869.24609375 1174 c 0
 869.24609375 1146 853.369140625 1121 849.24609375 1121 c 0
 771.24609375 1121 691.19140625 1113.07421875 667.24609375 988 c 2
 525 245 l 2
 463.005859375 -78.814453125 343 -252 101 -252 c 0
 9 -252 -169 -214 -173 -117 c 1
 -173 -115 l 2
 -173 -66 -135 -43 -91 -43 c 0
 -22 -43 59 -166 141 -166 c 0
 233 -166 288.784179688 -79.544921875 331 121 c 2
 516.24609375 1001 l 2
EndSplineSet
EndChar

StartChar: K
Encoding: 75 75 44
Width: 1226
GlyphClass: 2
Flags: HW
LayerCount: 2
Fore
SplineSet
297 193 m 2
 376 547 l 5
 574 683 l 5
 828 158 l 1
 862.749023438 97.1884765625 775.384765625 73.3984375 738 70 c 1
 718 0 l 1
 1199 0 l 1
 1212 71 l 1
 1069 76 1025.97558594 132.4140625 996 186 c 2
 737 649 l 6
 723 673 712 694 712 716 c 4
 712 740 726 760 749 777 c 5
 1025 999 l 6
 1130.51953125 1083.87402344 1192 1106 1255 1111 c 5
 1283 1192 l 5
 800 1192 l 5
 785 1121 l 5
 834 1116 877 1089 877 1047 c 4
 877 1024 863 1003 841 986 c 6
 400 652 l 5
 470 987 l 6
 495.158203125 1107.39941406 568 1121 639 1122 c 5
 659 1192 l 5
 171 1192 l 6
 169 1192 159 1181 159 1150 c 4
 159 1134 158.624023438 1122.19335938 163 1122 c 4
 272.8046875 1117.14160156 310.404296875 1089.64160156 310.404296875 1025.34570312 c 4
 310.404296875 1018.04492188 309.918945312 1010.27050781 309 1002 c 5
 132 204 l 2
 104.26171875 78.94140625 20 71 -55 71 c 0
 -59.123046875 71 -75 46 -75 18 c 0
 -75 0 -71 0 -68 0 c 2
 419 0 l 1
 432 71 l 1
 342.32421875 74.125 292.900390625 99.96875 292.900390625 160.21875 c 0
 292.900390625 170.186523438 294.338867188 181.075195312 297 193 c 2
EndSplineSet
EndChar

StartChar: L
Encoding: 76 76 45
Width: 929
GlyphClass: 2
Flags: HMW
HStem: 27 70 1137 70
LayerCount: 2
Fore
SplineSet
816 292 m 1
 854 292 891 290 905 287 c 1
 798 0 l 1
 -68 0 l 2
 -71 0 -75 0 -75 17 c 0
 -75 43 -60.4716796875 69 -56 69 c 0
 20 69 103.396484375 76.6845703125 131 202 c 2
 307 1001 l 5
 307.833984375 1008.50878906 308.256835938 1015.58691406 308.256835938 1022.25585938 c 4
 308.256835938 1090.81054688 263.57421875 1116.06933594 162 1121 c 4
 157.6328125 1121.21191406 158 1133 158 1149 c 4
 158 1179.71386719 167 1192 173 1192 c 6
 678 1192 l 5
 658 1121 l 5
 576.377929688 1120 493.573242188 1106 464 989 c 6
 278 131 l 1
 277.455078125 128.206054688 277.19140625 125.541015625 277.19140625 122.997070312 c 0
 277.19140625 74.560546875 372.791015625 70.384765625 446.580078125 70.384765625 c 0
 471.640625 70.384765625 495.032226562 71 513 71 c 0
 660 71 750 156 785 279 c 1
 785 281 l 2
 785.788085938 283.36328125 816 292 816 292 c 1
EndSplineSet
EndChar

StartChar: M
Encoding: 77 77 46
Width: 1556
GlyphClass: 2
Flags: HW
LayerCount: 2
Fore
SplineSet
419 70 m 2
 423 70 l 1
 425 66 427 58 427 42 c 0
 427 12 418 0 412 0 c 2
 -71 0 l 2
 -74 0 -78 0 -78 18 c 0
 -78 46 -62.123046875 71 -58 71 c 0
 16 71 103.3515625 78.9189453125 132 204 c 2
 315 1003 l 6
 316 1011 317 1020 317 1029 c 4
 317 1089 269 1120 163 1122 c 5
 162 1129 161 1139 161 1150 c 4
 161 1180 170 1192 176 1192 c 6
 636 1192 l 5
 714 215 l 1
 1243 1192 l 5
 1650 1192 l 6
 1652 1192 1657 1191 1657 1174 c 4
 1657 1146 1641.12304688 1121 1637 1121 c 4
 1566 1121 1496.01855469 1110.34765625 1468 988 c 6
 1284 191 l 2
 1280.99902344 178.000976562 1280 165 1280 154 c 2
 1280 152 l 1
 1286 97 1339.36425781 73.8251953125 1435 70 c 0
 1439.36425781 69.8251953125 1439 58 1439 42 c 0
 1439 12 1430 0 1424 0 c 2
 934 0 l 2
 931 0 927 0 927 18 c 0
 927 45 941.876953125 70 946 70 c 0
 1022 70 1100.23535156 78.40234375 1130 205 c 2
 1355 1162 l 5
 717 55 l 2
 698.416992188 22.7568359375 673 8 657 8 c 0
 639 8 619.329101562 22.0361328125 614 69 c 2
 491 1153 l 5
 265 194 l 1
 260 178 260 166 260 156 c 2
 260 154 l 1
 266 97 318 70 419 70 c 2
EndSplineSet
EndChar

StartChar: N
Encoding: 78 78 47
Width: 1313
GlyphClass: 2
Flags: HMW
HStem: -19 21G 20 70 1130 70<165 207 950.5 1003 1351 1389>
LayerCount: 2
Fore
SplineSet
-66 0 m 1
 -67 -2 l 1
 -70 -2 -74 -2 -74 16 c 0
 -74 44 -58.123046875 69 -54 69 c 0
 22 69 100.505859375 78.1123046875 129 202 c 2
 313 1002 l 5
 314 1011 315 1019 315 1028 c 4
 315 1090 261 1122 163 1122 c 4
 160 1122 157 1122 157 1138 c 4
 157 1163 163.596679688 1192 170 1192 c 6
 579 1192 l 5
 941 208 l 1
 1118 1000 l 6
 1119 1009 1120 1018 1120 1027 c 4
 1120 1087 1078 1122 978 1122 c 4
 973 1122 965 1133 965 1164 c 4
 965 1180 967 1189 968 1192 c 5
 1422 1192 l 5
 1424 1187 1425 1179 1425 1164 c 4
 1425 1133 1417 1122 1411 1122 c 4
 1341 1122 1269.75976562 1112.42089844 1242 987 c 6
 1015 -28 l 1
 1007 -33 983 -38 957 -38 c 0
 926 -38 886.607421875 -34.1962890625 882 -22 c 2
 457 1103 l 5
 254 194 l 2
 251.091796875 180.977539062 250 168 250 157 c 2
 250 155 l 1
 256 99 305.362304688 74.77734375 399 70 c 0
 403.362304688 69.77734375 403 58 403 42 c 0
 403 12 394 0 388 0 c 2
 -66 0 l 1
EndSplineSet
EndChar

StartChar: O
Encoding: 79 79 48
Width: 1192
GlyphClass: 2
Flags: HMW
HStem: -21 105<452 544 452 724.5> 1168 87
VStem: 87 187 960 190
LayerCount: 2
Fore
SplineSet
544 84.994140625 m 1
 795 85 960 459 960 752 c 0
 960 961.49609375 867 1142 668 1142 c 0
 431 1142 275 776.262695312 275 495 c 0
 275 275.532226562 360 84.994140625 544 84.994140625 c 1
662 1239 m 0
 910 1239 1151 1033.02441406 1151 692 c 0
 1151 352 893 -21 556 -21 c 0
 324 -21 87 221 87 549 c 0
 87 899.55859375 334.193359375 1239 662 1239 c 0
EndSplineSet
EndChar

StartChar: P
Encoding: 80 80 49
Width: 1031
GlyphClass: 2
Flags: HW
LayerCount: 2
Fore
SplineSet
457 70 m 0
 461.372070312 69.837890625 461 58 461 42 c 0
 461 12 452 0 446 0 c 2
 -71 0 l 2
 -74 0 -78 0 -78 18 c 0
 -78 46 -62.123046875 71 -58 71 c 0
 22 71 111.909179688 77.064453125 140 203 c 2
 318 1001 l 2
 342.66015625 1112.39550781 230.732421875 1122 141 1122 c 0
 138 1122 137 1124 137 1150 c 0
 137 1180 146 1192 152 1192 c 2
 399 1192 l 1
 1004 1192 1092 1026 1092 881 c 0
 1092 747 954 577 566 577 c 0
 528 577 520 595 520 616 c 0
 520 633 531 647 548 647 c 0
 838 647 909 795 909 884 c 0
 909 974.435546875 828.001953125 1121 504 1121 c 1
 299 190 l 2
 279.30078125 100.538085938 339.712890625 74.34375 457 70 c 0
EndSplineSet
EndChar

StartChar: Q
Encoding: 81 81 50
Width: 1190
GlyphClass: 2
Flags: HW
LayerCount: 2
Fore
SplineSet
951 754 m 0
 951 961.556640625 859 1142 661 1142 c 4
 425 1142 269 778.25 269 498 c 0
 269 136.643554688 502.32421875 90.3525390625 534.369140625 90.3525390625 c 0
 787.240234375 90.3525390625 951 460.315429688 951 754 c 0
655 1239 m 5
 902 1239 1142 1033.65136719 1142 694 c 0
 1142 356 884 -15 549 -15 c 0
 547.946289062 -15 536.053710938 -14 531 -14 c 1
 464.5 -70 l 1
 542.607421875 -126.051757812 625.9140625 -170 691 -170 c 0
 757.403320312 -170 817.890625 -120.435546875 881.5 -32 c 0
 891.06640625 -25.8095703125 895.5 -24 903.5 -24 c 0
 934.5 -24 968.5 -59 968.5 -92 c 0
 968.5 -106 961.5 -122 944.5 -136 c 0
 848.05078125 -256.930664062 765.03125 -296 693 -296 c 0
 568.98828125 -296 439.680664062 -161.393554688 400.188476562 -161.393554688 c 0
 371.629882812 -161.393554688 340.091796875 -197.157226562 313.5 -223 c 0
 304.446289062 -231.798828125 293.939453125 -235.560546875 283.296875 -235.560546875 c 0
 252.2109375 -235.560546875 219.979492188 -203.45703125 219.5 -171 c 1
 217.198242188 -113.672851562 334.5 -50 411 18 c 1
 231.489257812 107.755859375 81 286.396484375 81 556 c 0
 81 830.814453125 305.166992188 1239 655 1239 c 5
EndSplineSet
EndChar

StartChar: R
Encoding: 82 82 51
Width: 1159
GlyphClass: 2
Flags: HMW
HStem: -20 127 27 70 590 72 1137 70
VStem: 941 165
LayerCount: 2
Fore
SplineSet
442 71 m 0x38
 450.541992188 71 450 60.1435546875 450 40 c 0
 450 11.4287109375 441 0 435 0 c 2
 -69 0 l 2
 -72 0 -76 0 -76 16 c 0
 -76 44 -60.123046875 69 -56 69 c 0
 20 69 102.948242188 76.7841796875 131 202 c 2
 310 1001 l 1
 319.470703125 1086.16601562 275.46875 1115.59667969 162 1121 c 0
 157.630859375 1121.20800781 158 1133 158 1149 c 0
 158 1179.71386719 167 1192 173 1192 c 2
 501 1192 l 2
 1022.5 1192 1112 1040.51855469 1112 888 c 0
 1112 719.563476562 950.899414062 573.15234375 617 544 c 1
 652.221679688 379.115234375 734.844726562 161.625 996 100 c 0
 1054.14160156 86.7255859375 1079 50.599609375 1079 5 c 0
 1079 -23 1062 -47 1001 -47 c 0
 643.391601562 -47 495 451.0546875 495 614 c 0
 495 631 506 646 523 646 c 0
 785 646 945 769 945 902 c 0
 945 1000.37792969 820.5 1084 554 1084 c 0
 530.965820312 1084 507.58984375 1083 483 1083 c 1
 290 192 l 2
 287.466796875 180.305664062 285.9921875 169.657226562 285.9921875 159.890625 c 0
 285.9921875 95.443359375 343.349609375 71 442 71 c 0x38
EndSplineSet
EndChar

StartChar: S
Encoding: 83 83 52
Width: 960
GlyphClass: 2
Flags: HW
HStem: -21 112 1165 90
VStem: -105.091 188 812.909 171
LayerCount: 2
Back
SplineSet
889.349609375 242.549804688 m 5
 887.25 244.650390625 l 5
 887.25 74.5500212792 761.24983724 -25.2001953125 584.849609375 -25.2001953125 c 4
 482.999609375 -25.2001953125 377.999609375 88.2001953125 269.849609375 88.2001953125 c 4
 204.749859053 88.2001953125 208.949842945 39.900390625 168 39.900390625 c 4
 119.699783509 39.900390625 86.0996329066 51.4503603653 80.849609375 114.450195312 c 4
 76.6496672454 157.500167313 52.5 360.150035511 52.5 414.75 c 4
 52.5 427.350167411 52.5 429.450195312 56.7001953125 429.450195312 c 4
 58.8001051683 429.450195312 62.9999248798 428.400390625 70.349609375 428.400390625 c 4
 202.649609375 428.400390625 295.049609375 114.450195312 542.849609375 114.450195312 c 4
 624.749802215 114.450195312 708.75 158.550075559 708.75 258.299804688 c 4
 708.75 271.949986049 705.599609375 282.450125558 705.599609375 287.700195312 c 6
 705.599609375 289.799804688 l 5
 658.349649145 582.749804688 241.5 678.299804688 241.5 982.799804688 c 4
 241.5 1143.45004568 368.549914374 1243.20019531 531.299804688 1243.20019531 c 4
 613.199986049 1243.20019531 694.050165086 1152.90039062 795.900390625 1152.90039062 c 4
 853.649949165 1152.90039062 852.599957192 1200.15039062 872.549804688 1200.15039062 c 4
 899.849934896 1200.15039062 943.928611927 1191.21616211 954.450195312 1163.40039062 c 4
 989.605304182 1070.45988539 988.049804688 976.906195743 988.049804688 871.5 c 4
 988.049804688 829.5 990.149832589 834.75 973.349609375 834.75 c 4
 867.29965919 834.75 775.949702099 1102.5 557.549804688 1102.5 c 4
 485.09990378 1102.5 414.75 1069.94989284 414.75 983.849609375 c 4
 414.75 974.399739583 415.800130208 964.949869792 417.900390625 955.5 c 4
 463.050315806 671.999922335 889.349609375 595.349901337 889.349609375 242.549804688 c 5
EndSplineSet
Fore
SplineSet
503 71.599609375 m 0
 661.099609375 71.599609375 723.908203125 156.913085938 723.908203125 284.643554688 c 0
 723.908203125 394.99609375 634.767578125 478.736328125 500.909179688 586.200195312 c 0
 324.668945312 727.689453125 241 854.751953125 241 959.399414062 c 0
 241 1125.48925781 358.934570312 1239 588.909179688 1239 c 0
 810.546875 1239 993.909179688 1127.98828125 993.909179688 958 c 0
 993.909179688 907 958.909179688 879 920.909179688 879 c 0
 881.909179688 879 834.909179688 909 822.909179688 992 c 1
 808.139648438 1072.65332031 729.678710938 1142 582.909179688 1142 c 0
 466.909179688 1142 401.25 1070.14160156 401.25 966.614257812 c 0
 401.25 880.784179688 484.909179688 784.200195312 620.909179688 666.200195312 c 0
 724.080078125 576.684570312 883.079101562 481.579101562 883.079101562 293.055664062 c 0
 883.079101562 280.525390625 882.376953125 267.58203125 880.909179688 254.200195312 c 0
 863.263671875 90.1103515625 746.025390625 -25.400390625 483 -25.400390625 c 0
 240.567382812 -25.400390625 40 121.166992188 40 345.599609375 c 0
 40 396.599609375 75 424.599609375 113 424.599609375 c 0
 152 424.599609375 199 394.599609375 211 311.599609375 c 0
 228.96875 182.553710938 324.430664062 71.599609375 503 71.599609375 c 0
EndSplineSet
EndChar

StartChar: T
Encoding: 84 84 53
Width: 1046
GlyphClass: 2
Flags: HW
LayerCount: 2
Fore
SplineSet
512.049804688 155 m 1
 514.049804688 152 l 1
 520.049804688 96 573.4140625 73.8251953125 669.049804688 70 c 0
 673.4140625 69.8251953125 673.049804688 58 673.049804688 42 c 0
 673.049804688 15 661.049804688 0 654.049804688 0 c 2
 127.049804688 0 l 2
 124.049804688 0 120.049804688 0 120.049804688 18 c 0
 120.049804688 46 135.92578125 71 140.049804688 71 c 0
 216.049804688 71 316.778320312 77.05859375 344.049804688 203 c 2
 543.049804688 1122 l 5
 314.049804688 1122 l 6
 268.049804688 1122 228.235351562 1040.2578125 149.049804688 908 c 4
 134.235351562 883.2578125 110.049804688 876 96.0498046875 876 c 4
 63.0498046875 876 44.9248046875 895.026367188 46.0498046875 900 c 6
 112.049804688 1192 l 5
 1176.04980469 1192 l 5
 1116.04980469 910 l 5
 1113.04980469 903 1082.04980469 877 1044.04980469 877 c 4
 1030.04980469 877 1013.13964844 883.6328125 1010.04980469 904 c 4
 991.139648438 1028.6328125 988.049804688 1123 935.049804688 1123 c 6
 720.049804688 1123 l 5
 516.049804688 193 l 2
 513.19140625 179.967773438 512.049804688 167 512.049804688 156 c 2
 512.049804688 155 l 1
EndSplineSet
EndChar

StartChar: U
Encoding: 85 85 54
Width: 1254
GlyphClass: 2
Flags: HMW
HStem: -21 129 1130 70<148 185.5 588 625>
VStem: 165 170
LayerCount: 2
Fore
SplineSet
645.0078125 1174 m 4
 645.0078125 1147 630.130859375 1122 626.0078125 1122 c 4
 552.0078125 1122 477.840820312 1113.24414062 452.0078125 987 c 6
 345.0078125 473 l 2
 339.171875 444.96484375 336.0078125 418 336.0078125 393 c 0
 336.0078125 218 468.0078125 105 611.0078125 105 c 0
 753.0078125 105 904.463867188 214.692382812 957.0078125 467 c 2
 1068.0078125 1000 l 6
 1071.0078125 1015 1073.0078125 1028 1073.0078125 1041 c 4
 1073.0078125 1108 1016.64746094 1119.18164062 925.0078125 1123 c 4
 920.647460938 1123.18164062 921.0078125 1135 921.0078125 1151 c 4
 921.0078125 1181 930.0078125 1193 936.0078125 1193 c 6
 1375.0078125 1193 l 6
 1377.0078125 1193 1382.0078125 1192 1382.0078125 1175 c 4
 1382.0078125 1147 1366.13085938 1122 1362.0078125 1122 c 4
 1284.0078125 1122 1207.06054688 1113.43261719 1180.0078125 987 c 6
 1081.0078125 533 l 1
 994.0078125 139 759.0078125 -24 553.0078125 -24 c 0
 351.0078125 -24 165.0078125 129 165.0078125 387 c 0
 165.0078125 430 170.8125 476.04296875 182.0078125 526 c 2
 288.0078125 999 l 5
 290.0078125 1015 293.0078125 1028 293.0078125 1041 c 4
 293.0078125 1108 232.64453125 1118.17675781 138.0078125 1122 c 4
 133.64453125 1122.17675781 134.0078125 1134 134.0078125 1150 c 4
 134.0078125 1180 143.0078125 1192 149.0078125 1192 c 6
 638.0078125 1192 l 6
 641.0078125 1192 645.0078125 1192 645.0078125 1174 c 4
EndSplineSet
EndChar

StartChar: V
Encoding: 86 86 55
Width: 1119
GlyphClass: 2
Flags: HW
LayerCount: 2
Fore
SplineSet
1271 1192 m 5
 1269 1190 l 5
 1271 1186 1274 1177 1274 1161 c 4
 1274 1133 1266 1120 1260 1120 c 4
 1195 1120 1116.2265625 1106.84863281 1041 991 c 6
 391 -8 l 1
 239 -8 l 1
 247 1002 l 2
 248 1088 189 1122 62 1122 c 0
 58 1122 55 1122 55 1141 c 0
 55 1164 60.7890625 1192 68 1192 c 2
 566 1192 l 1
 568 1187 571 1176 571 1163 c 0
 571 1134 565 1123 559 1123 c 0
 484 1123 397 1115 396 984 c 2
 388 191 l 1
 904 992 l 6
 919 1015 930 1036 930 1058 c 4
 930 1101 903 1122 811 1122 c 4
 808 1122 805 1122 805 1141 c 4
 805 1164 810.291992188 1192 817 1192 c 6
 1271 1192 l 5
EndSplineSet
EndChar

StartChar: W
Encoding: 87 87 56
Width: 1774
GlyphClass: 2
Flags: HW
LayerCount: 2
Fore
SplineSet
1430 1141 m 0
 1430 1164 1435.7890625 1192 1443 1192 c 2
 1924 1192 l 5
 1926 1188 1929 1179 1929 1163 c 4
 1929 1135 1921 1122 1915 1122 c 4
 1849.13671875 1122 1756.09082031 1114 1685 992 c 2
 1128 -7 l 1
 975 -7 l 1
 896 820 l 1
 445 -7 l 1
 292 -7 l 1
 231 1002 l 1
 231 1088 176 1122 47 1122 c 0
 43 1122 40 1122 40 1141 c 0
 40 1164 45.7890625 1192 53 1192 c 2
 556 1192 l 1
 558 1185 560 1175 560 1162 c 0
 560 1132 553 1122 548 1122 c 0
 474 1122 375.788085938 1113.81640625 383 983 c 2
 426 204 l 1
 855 994 l 2
 869 1020 877 1041 877 1060 c 0
 877 1115 818 1122 761 1122 c 0
 758 1122 755 1122 755 1141 c 0
 755 1164 758.9375 1192 767 1192 c 2
 1218 1192 l 1
 1220 1188 1223 1179 1223 1163 c 0
 1223 1135 1216 1122 1210 1122 c 2
 1196 1122 l 2
 1147 1122 1030 1120 1030 1010 c 0
 1030 1005 1030 999 1031 994 c 2
 1103 196 l 1
 1544 994 l 2
 1556 1016 1570 1035 1570 1058 c 0
 1570 1102 1539.72363281 1122 1437 1122 c 0
 1433 1122 1430 1122 1430 1141 c 0
EndSplineSet
EndChar

StartChar: X
Encoding: 88 88 57
Width: 1194
GlyphClass: 2
Flags: HW
HStem: 27 70<340 367> 1137 70
LayerCount: 2
Back
SplineSet
-18 85 m 5
 -20 95 -22 110 -22 122 c 4
 -22 154 4.955078125 136.4609375 60 158 c 4
 188.955078125 208.4609375 550 517 550 638 c 6
 550 642 l 6
 550 653 543 684 537 695 c 6
 365 994 l 5
 291 1117 175 1008 175 1142 c 4
 175 1170 181 1181 193 1181 c 6
 674 1181 l 5
 676 1164 677 1153 677 1141 c 4
 677 1038 572 1108 572 1008 c 4
 572 964 624 773 718 773 c 4
 769.079101562 773 896.373046875 921.373046875 974 999 c 5
 973 1003 l 5
 964 1098 892 1038 892 1120 c 4
 892 1158 901.763671875 1181 904 1181 c 6
 1352 1181 l 5
 1359 1098 l 5
 1291 1051 803 732 803 598 c 4
 803 484 962.974609375 263.026367188 1038 184 c 4
 1112.97460938 105.026367188 1197 199 1197 78 c 4
 1197 37 1188 21 1185 21 c 6
 758 21 l 6
 703 21 705 19 705 66 c 4
 705 125 807 126 807 199 c 4
 807 247 730 451 647 451 c 4
 640 451 627 448 626 448 c 6
 620 448 l 5
 590.505859375 418.505859375 469.797851562 298.797851562 440 269 c 4
 421 250 401 243 401 215 c 4
 401 127 467 146 467 72 c 4
 467 58 470.087890625 41.8671875 461 40 c 4
 397.087890625 26.8671875 140.079101562 19 83 19 c 4
 20 19 -10 25 -18 82 c 5
 -18 85 l 5
EndSplineSet
Fore
SplineSet
-108 18 m 1
 -109 19 l 1
 -109 47 -93 72 -89 72 c 0
 23 72 88 115 173 205 c 2
 555 613 l 1
 342 988 l 6
 277 1102 227 1121 140 1121 c 4
 136 1121 120 1146 120 1174 c 4
 120 1192 123 1192 126 1192 c 6
 614 1192 l 6
 619 1192 628 1180 628 1150 c 4
 628 1134 628 1122 624 1122 c 4
 555 1119 479 1098 479 1044 c 4
 479 1032 483 1017 492 1001 c 6
 655 717 l 1
 928 1000 l 2
 942 1015 948 1030 948 1044 c 0
 948 1085 892 1118 840 1122 c 0
 836 1122 836 1134 836 1150 c 0
 836 1180 845 1192 850 1192 c 2
 1298 1192 l 2
 1301 1192 1306 1192 1306 1174 c 0
 1306 1146 1290 1120 1286 1120 c 0
 1178 1120 1111 1070 1034 988 c 2
 701 635 l 1
 940 205 l 2
 1003 90 1055 72 1142 72 c 0
 1146 72 1162 47 1162 19 c 1
 1160 18 l 1
 1160 0 1157 0 1154 0 c 2
 666 0 l 2
 661 0 652 12 652 42 c 0
 652 58 652 70 656 70 c 0
 713 73 800 92 800 149 c 0
 800 161 797 175 788 191 c 2
 602 529 l 1
 294 191 l 2
 277 173 269 157 269 142 c 0
 269 98 336 70 411 70 c 0
 412 70 415 70 416 70 c 0
 420 70 420 58 420 42 c 0
 420 12 411 0 406 0 c 2
 -101 0 l 2
 -104 0 -108 0 -108 18 c 1
EndSplineSet
EndChar

StartChar: Y
Encoding: 89 89 58
Width: 1056
GlyphClass: 2
Flags: HMW
HStem: 27 70 1137 70<751 791>
LayerCount: 2
Fore
SplineSet
1204 1192 m 5
 1206.41894531 1184.7421875 1210 1179.00878906 1210 1160 c 4
 1210 1132 1202 1119 1196 1119 c 4
 1131 1119 1061.13867188 1099.421875 977 993 c 6
 539 429 l 1
 494 190 l 2
 491 178 489 168 489 157 c 0
 489 81 555.34765625 73.7978515625 637 70 c 0
 641.34765625 69.7978515625 641 58 641 42 c 0
 641 12 632 0 626 0 c 2
 143 0 l 2
 140 0 136 0 136 18 c 0
 136 46 151.876953125 71 156 71 c 0
 234 71 312.208007812 78.9375 335 204 c 2
 374 418 l 1
 212 1008 l 6
 191 1082 160 1121 28 1121 c 4
 24 1121 21 1121 21 1140 c 4
 21 1163.45117188 26.7890625 1192 34 1192 c 6
 503 1192 l 5
 505 1188 508 1179 508 1163 c 4
 508 1133.29296875 501 1121 495 1121 c 4
 446 1121 354 1114 354 1023 c 4
 354 1009 356 994 361 977 c 6
 483 513 l 1
 838 992 l 5
 853 1015 864 1036 864 1058 c 4
 864 1101 837 1122 745 1122 c 4
 742 1122 739 1122 739 1141 c 4
 739 1164 744.291992188 1192 751 1192 c 6
 1204 1192 l 5
EndSplineSet
EndChar

StartChar: Z
Encoding: 90 90 59
Width: 1005
GlyphClass: 2
Flags: HW
LayerCount: 2
Fore
SplineSet
1052 1192 m 1
 1053 1189 1055 1182 1055 1168 c 0
 1055 1124 1035 1048 1023 1030 c 0
 895 836.559570312 335.122070312 175.857421875 322 162 c 0
 304.122070312 142.96875 296 131 296 115 c 0
 296 71 358 71 375 71 c 2
 563 71 l 2
 711 71 796 156 830 279 c 1
 830 281 l 1
 831 284 845 293 863 293 c 0
 901 293 938 291 952 288 c 1
 845 0 l 1
 29 0 l 2
 16 0 -11 32 -11 60 c 0
 -11 69 -10 72 -7 75 c 1
 -7 76 l 1
 188 304.427734375 559 754.331054688 838 1093 c 1
 862 1121 l 1
 489 1121 l 2
 341 1121 256 1036 223 913 c 1
 223 911 l 1
 222 908 208 899 190 899 c 0
 152 899 115 901 101 904 c 1
 208 1192 l 1
 1052 1192 l 1
EndSplineSet
EndChar

StartChar: bracketleft
Encoding: 91 91 60
Width: 897
GlyphClass: 2
Flags: HW
LayerCount: 2
Fore
SplineSet
358 1446 m 1
 357 1446 l 1
 362 1470 418 1508 445 1508 c 0
 597 1508 750 1513 902 1513 c 0
 942 1513 970 1498 970 1472 c 0
 970 1418 921 1398 875 1398 c 2
 469 1398 l 1
 407.552734375 1111.24511719 330.01171875 824.788085938 269 536 c 0
 225.580078125 331.303710938 185.9296875 126.650390625 145 -78 c 1
 166 -78 l 2
 280 -78 396 -72 510 -72 c 0
 530 -72 575 -73 575 -131 c 0
 575 -182 533 -196 487 -196 c 0
 346 -196 209 -181 66 -181 c 0
 34 -181 30 -171 30 -151 c 0
 30 -144 32 -133 34 -122 c 0
 63 14 98 152 127 289 c 0
 208 675 277 1060 358 1446 c 1
EndSplineSet
EndChar

StartChar: backslash
Encoding: 92 92 61
Width: 539
GlyphClass: 2
Flags: HW
LayerCount: 2
Fore
SplineSet
120 1369 m 1
 121 1369 l 1
 140 1380 166.641601562 1397.35839844 179 1385 c 0
 227.641601562 1336.35839844 219 1226 234 1139 c 2
 411 69 l 2
 413 58 414 47 414 35 c 0
 414 -6 404 -58 399 -100 c 1
 395 -100 l 2
 380 -100 357.297851562 -107.284179688 353 -98 c 0
 332.297851562 -53.2841796875 331 2 324 55 c 0
 266 497 160 927 120 1369 c 1
EndSplineSet
EndChar

StartChar: bracketright
Encoding: 93 93 62
Width: 849
GlyphClass: 2
Flags: HW
LayerCount: 2
Fore
SplineSet
-5 -197 m 2
 -6 -197 l 2
 -49 -197 -64 -189 -64 -164 c 0
 -64 -84 23 -71 85 -71 c 0
 133 -71 179 -80 231 -80 c 2
 390 -80 l 1
 436.549804688 121.715820312 480.095703125 325.734375 523 528 c 0
 584.397460938 818.616210938 630.2421875 1107.21191406 688 1396 c 1
 261 1396 l 2
 231 1396 211 1414 211 1441 c 0
 211 1489 265 1511 310 1511 c 0
 462 1511 615 1506 767 1506 c 0
 795 1506 821 1471 821 1451 c 0
 821 1109.53710938 673 779 601 444 c 0
 505 -5 527 -182 423 -182 c 0
 280 -182 133 -197 -5 -197 c 2
EndSplineSet
EndChar

StartChar: asciicircum
Encoding: 94 94 63
Width: 935
GlyphClass: 2
Flags: HW
LayerCount: 2
Fore
SplineSet
644 1358 m 1
 645 1358 l 1
 713 1166 801 942 847 749 c 1
 823 742 791.8828125 722.658203125 779 739 c 0
 683.8828125 859.658203125 643 1046 579 1200 c 1
 568 1225 l 1
 550 1204 l 2
 417 1049 354.251953125 739 152 739 c 0
 130 739 111 741 93 746 c 1
 206 917 375 1124 501 1289 c 0
 525 1321 548.775390625 1374 589 1374 c 0
 613.020507812 1374 630 1367 644 1358 c 1
EndSplineSet
EndChar

StartChar: underscore
Encoding: 95 95 64
Width: 1162
GlyphClass: 2
Flags: HW
LayerCount: 2
Fore
SplineSet
965 -117 m 0
 965 -144.583007812 877.288085938 -132 850 -132 c 2
 188 -132 l 1
 160 -118 159 -110 159 -81 c 1
 204 -66 255 -66 301 -66 c 2
 936 -66 l 1
 960 -80 965 -92 965 -117 c 0
EndSplineSet
EndChar

StartChar: quoteleft
Encoding: 8216 8216 65
Width: 493
GlyphClass: 2
Flags: HW
LayerCount: 2
Fore
SplineSet
350 1211 m 1
 418 1125 l 1
 356 1084 318 1065 318 1002 c 0
 318 964 366 891.3359375 366 854 c 0
 366 814.94921875 326 777 272 777 c 0
 198 777 144 840 144 931 c 0
 144 1043 251 1151 350 1211 c 1
EndSplineSet
EndChar

StartChar: a
Encoding: 97 97 66
Width: 1150
GlyphClass: 2
Flags: HMW
HStem: -21 128<840.5 863> -20 110 850 42
VStem: 70 167 668 133
LayerCount: 2
Fore
SplineSet
551 797 m 0x38
 423.05078125 797 239 602.9375 239 347 c 0
 239 178 301 91 391 91 c 0
 563 91 735 371.081054688 735 582.5 c 4
 735 693.608398438 653.59375 797 551 797 c 0x38
1138 264 m 1
 1073.14160156 166.712890625 937.69140625 -21 795 -21 c 0xb8
 773 -21 678 -4 678 156 c 0
 678 166 678 174 691 263 c 1
 622.403320312 105.787109375 513.994140625 -20 338 -20 c 0x78
 202 -20 72 82 72 322 c 0
 72 609 277 890 536 890 c 0
 708.424804688 890 772 761.686523438 778 688.5 c 1
 818 820 l 1
 827 846 842 864 873 864 c 0
 920 864 957 833 957 795 c 0
 957 788 954 777 952 769 c 2
 860 470 l 2
 830 374 802 273 802 201 c 0
 802 153 817 107 864 107 c 0xb8
 942 107 1048 265 1084 310 c 1
 1138 264 l 1
EndSplineSet
EndChar

StartChar: b
Encoding: 98 98 67
Width: 983
GlyphClass: 2
Flags: HW
LayerCount: 2
Back
SplineSet
264 261 m 5
 357.9296875 422.022460938 635.75 915 828 915 c 4
 954 915 998 831 998 754 c 4
 998 566 835 317 835 158 c 4
 835 128 842 91 877 91 c 4
 942 91 1000 174 1076 284 c 6
 1089 303 l 5
 1119 278 1137 262 1146 254 c 5
 1124 224 l 6
 1010 69 931 -23 801 -23 c 4
 715 -23 667 44 667 139 c 4
 667 356 843 643 843 745 c 4
 843 771 828 800 793 800 c 4
 671 800 454 434 386 327 c 4
 357 281 271 151 198 41 c 4
 178 11 146 -23 115 -23 c 4
 61 -23 17 13 17 82 c 4
 17 115 26 147 36 183 c 6
 337 1295 l 5
 159 1295 l 6
 133 1295 132 1300 132 1307 c 4
 132 1326 149 1375 159 1376 c 6
 457 1412 l 6
 464 1413 469 1413 476 1413 c 4
 504 1413 509 1408 509 1380 c 4
 509 1362 505 1333 496 1298 c 6
 225 278 l 5
 264 261 l 5
EndSplineSet
Fore
SplineSet
476 1413 m 0
 503 1413 508 1407.84375 508 1380 c 0
 508 1361 504.793945312 1332.79101562 495 1297 c 2
 337 715.319335938 l 1
 427 850.319335938 548.39453125 890 644 890 c 0
 810 890 937 773 937 584 c 0
 937 254.752929688 696.650390625 -20.1640625 414.16796875 -20.1640625 c 0
 239.448242188 -20.1640625 103 63.3583984375 103 317 c 0
 103 480 167 670 337 1295 c 1
 158 1295 l 1
 132 1295 131 1300.41699219 131 1308 c 0
 131 1326.72460938 148 1375.01464844 158 1376 c 0
 462.91796875 1413 466.943359375 1413 476 1413 c 0
621 812 m 0
 383.955078125 812 263.994140625 527.23046875 263.994140625 289.80078125 c 0
 263.994140625 127.162109375 326.999023438 80.845703125 415.440429688 80.845703125 c 0
 627.688476562 80.845703125 772 404.649414062 772 594 c 0
 772 701 721 812 621 812 c 0
EndSplineSet
EndChar

StartChar: c
Encoding: 99 99 68
Width: 904
GlyphClass: 2
Flags: HMW
HStem: -21 120<385.5 533> 826 66<427 570>
VStem: 65 170
LayerCount: 2
Fore
SplineSet
508 826 m 0
 346 826 234 585 234 388 c 0
 234 239 306 99 465 99 c 0
 615 99 706 205 785 306 c 1
 860 247 l 1
 761 107 616 -21 450 -21 c 0
 242 -21 65 150 65 389 c 0
 65 658 272 892 521 892 c 0
 621 892 841 821 841 688 c 0
 841 644 819 623 769 623 c 0
 681 623 632 826 508 826 c 0
EndSplineSet
EndChar

StartChar: d
Encoding: 100 100 69
Width: 1166
GlyphClass: 2
Flags: HW
LayerCount: 2
Fore
SplineSet
1105 333 m 1
 1165 286 l 1
 1076 153 968 -21 808 -21 c 0
 724 -21 681 41 681 150 c 0
 681 187.403320312 687.984375 226.4453125 692 260 c 1
 614 114 517.633789062 -21 328 -21 c 0
 146.861328125 -21 64 195 64 351 c 4
 64 644 263.75 921 534 921 c 0
 619 921 725 856 746 761 c 0
 746 758 896 1192 896 1192 c 1
 902 1214 l 1
 729 1214 l 2
 705 1214 703 1220 703 1226 c 0
 703 1244 720 1294 729 1295 c 2
 1026 1331 l 2
 1033 1332 1038 1332 1045 1332 c 0
 1074 1332 1079 1327 1079 1298 c 0
 1079 1279 1073 1252 1064 1217 c 2
 819 296 l 2
 815 281 798 225 798 177 c 0
 798 138 817 91 870 91 c 0
 943 91 1004 191 1105 333 c 1
550 837 m 1
 369 837 245 567 245 325 c 0
 245 216 280 73 399 73 c 0
 563 73 722 384 722 580 c 0
 722 844 550 837 550 837 c 1
EndSplineSet
EndChar

StartChar: e
Encoding: 101 101 70
Width: 898
GlyphClass: 2
Flags: HMW
HStem: -21 96 350 72 837 55
VStem: 63 178 668 169
LayerCount: 2
Fore
SplineSet
242 422 m 1
 256.890625 421.124023438 261.67578125 420 281 420 c 0
 396.912109375 420 679 495.9375 679 668 c 0
 679 755 610 817 538 817 c 0
 350.399414062 817 251.9375 581.190429688 242 422 c 1
819 641 m 0
 819 392.638671875 405.9296875 358.702148438 241 348 c 1
 241 333.307617188 240 326.129882812 240 310 c 0
 240 197 333 75 458 75 c 0
 606 75 695 183 774 282 c 1
 780.825195312 268.350585938 831.517578125 245.321289062 844 237 c 1
 746 101 605 -23 443 -23 c 0
 235 -23 64 167 64 397 c 0
 64 672 286 890 537 890 c 0
 663.900390625 890 819 810.637695312 819 641 c 0
EndSplineSet
EndChar

StartChar: f
Encoding: 102 102 71
Width: 942
GlyphClass: 2
Flags: HW
LayerCount: 2
Fore
SplineSet
762 1168 m 1
 673 1168 637 973 620 905 c 2
 598 817 l 1
 851 817 l 1
 828.5 727 l 1
 577.5 727 l 1
 485 337 l 2
 404.510742188 -2.361328125 386 -304 44 -304 c 0
 -28 -304 -171 -264 -171 -151 c 0
 -171 -113 -134 -92 -86 -92 c 0
 -12 -92 14 -233 91 -233 c 0
 216 -233 226.705078125 -72.7001953125 310 282 c 2
 414.5 727 l 1
 210.5 727 l 1
 232 817 l 1
 436 817 l 1
 455 899 l 2
 504.166992188 1111.1953125 607 1251 825 1251 c 0
 926.616210938 1251 1090 1218.06347656 1090 1097 c 0
 1090 1055.75390625 1061 1029 1013 1029 c 0
 930.98046875 1029 910.409179688 1168 762 1168 c 1
EndSplineSet
EndChar

StartChar: g
Encoding: 103 103 72
Width: 975
GlyphClass: 2
Flags: HW
LayerCount: 2
Fore
SplineSet
394 -264 m 0
 445 -264 661 -267 661 -161 c 0
 661 -67 288 -2 226 9 c 1
 219.263671875 9 59 -33.537109375 59 -142 c 1
 77.484375 -268.223632812 299.255859375 -264 394 -264 c 0
466 324 m 0
 595 324 664 478 664 613 c 0
 664 729 611 848 481 848 c 0
 355 848 282 694 282 561 c 0
 282 443 336 324 466 324 c 0
-80 -137 m 1
 -80 -22.53515625 85.6650390625 1 207 27 c 1
 112 65 l 2
 70 82 45 117 45 151 c 0
 45 199 98 270 248 313 c 2
 276 321 l 1
 254 342 l 2
 164 429 124 528 124 617 c 0
 124 777 255 916 472 916 c 0
 569.616210938 916 660.01953125 871.98046875 744 788 c 1
 793.879882812 851.484375 865.477539062 922 956 922 c 0
 1004 922 1055 882 1055 833 c 0
 1055 802 1036 783 999 783 c 0
 970 783 934 817 889 817 c 0
 849 817 783 759 783 759 c 1
 773 750 l 1
 800.690429688 690.00390625 822 623.497070312 822 567 c 0
 822 399 694 265 497 265 c 0
 412.125 265 347.196289062 292 339 292 c 0
 308 292 213 276 213 214 c 0
 213 67 779 129 803 -147 c 1
 803 -293.85546875 572 -329 419 -329 c 0
 218 -329 -80 -314 -80 -137 c 1
EndSplineSet
EndChar

StartChar: h
Encoding: 104 104 73
Width: 1182
GlyphClass: 2
Flags: HW
LayerCount: 2
Fore
SplineSet
291 261 m 5
 384.9296875 422.022460938 662.75 915 855 915 c 4
 981 915 1025 831 1025 754 c 4
 1025 566 862 317 862 158 c 4
 862 128 869 91 904 91 c 4
 969 91 1027 174 1103 284 c 6
 1116 303 l 5
 1146 278 1164 262 1173 254 c 5
 1151 224 l 6
 1037 69 958 -23 828 -23 c 4
 742 -23 694 44 694 139 c 4
 694 356 870 643 870 745 c 4
 870 771 855 800 820 800 c 4
 698 800 481 434 413 327 c 4
 384 281 298 151 225 41 c 4
 205 11 173 -23 142 -23 c 4
 88 -23 44 13 44 82 c 4
 44 115 53 147 63 183 c 6
 364 1295 l 5
 186 1295 l 6
 160 1295 159 1300 159 1307 c 4
 159 1326 176 1375 186 1376 c 6
 484 1412 l 6
 491 1413 496 1413 503 1413 c 4
 531 1413 536 1408 536 1380 c 4
 536 1362 532 1333 523 1298 c 6
 252 278 l 5
 291 261 l 5
EndSplineSet
EndChar

StartChar: i
Encoding: 105 105 74
Width: 652
GlyphClass: 2
Flags: HMW
HStem: -20 110 806 86 1091 221
VStem: 147 170<148.5 180.5 148.5 196.5> 315 147<723.5 757.5> 365 211<1176.5 1188 1188 1197 1153 1249>
LayerCount: 2
Fore
SplineSet
365 1217 m 0xe4
 365 1281 405 1311 456 1311 c 0
 512 1311 568 1273 576 1197 c 1
 576 1188 l 2
 576 1118 539 1091 491 1091 c 0
 435 1091 365 1136 365 1217 c 0xe4
628 250 m 1
 567 161 l 2
 506 73 423 -19 305 -19 c 0
 207 -19 147 65 147 163 c 0xf0
 147 230 169 300 194 370 c 2
 295 654 l 1
 303 680 315 709 315 738 c 0
 315 777 297 806 259 806 c 0
 223 806 179 763 64 605 c 1
 12 644 l 1
 114 782 198 893 316 893 c 0
 428 893 462 818 462 723 c 0xe8
 462 674 452 621 438 577 c 2
 333 254 l 1
 325 235 317 198 317 163 c 0xf0
 317 134 325 91 371 91 c 0
 412 91 455 132 506 209 c 2
 563 295 l 1
 628 250 l 1
EndSplineSet
EndChar

StartChar: j
Encoding: 106 106 75
Width: 656
GlyphClass: 2
Flags: HW
LayerCount: 2
Fore
SplineSet
467 1222 m 0
 467 1283 510 1313 559 1313 c 0
 615 1313 680 1270 680 1184 c 0
 680 1118 640 1092 594 1092 c 0
 536 1092 467 1139 467 1222 c 0
418 892 m 1
 422 893 l 1
 534 893 577 829 577 730 c 0
 577 687 569 636 554 578 c 2
 473 259 l 2
 404 -11 342 -338 45 -338 c 0
 -36 -338 -168 -303 -168 -207 c 0
 -168 -168 -144 -147 -105 -147 c 0
 -18 -147 24 -246 117 -246 c 0
 213 -246 230 -107 245 -32 c 0
 269 94 302 220 333 345 c 2
 400 613 l 2
 408 644 417 681.984375 417 715 c 0
 417 752 404 788 365 788 c 0
 330 788 290 756 252 695 c 2
 197 606 l 1
 148 644 l 1
 242 781 311 892 418 892 c 1
EndSplineSet
EndChar

StartChar: k
Encoding: 107 107 76
Width: 1093
GlyphClass: 2
Flags: HMW
HStem: -21 122 389 66 830 90 1213 81<153 166 166 344>
VStem: 842 156
LayerCount: 2
Fore
SplineSet
823.470703125 687.245117188 m 0
 823.470703125 771.112304688 738.879882812 800 663 800 c 0
 581.793945312 800 384.5 713 384.5 713 c 2
 320.5 469 l 1
 349.97265625 466.147460938 382.616210938 464.52734375 416.776367188 464.52734375 c 0
 590.186523438 464.52734375 823.470703125 523.149414062 823.470703125 687.245117188 c 0
673 403 m 1
 716.5 165 752.73046875 102 795 102 c 0
 844 102 899 171 1014 318 c 1
 1077 266 l 1
 970 118 874 -20 751 -20 c 0
 674 -20 639.814453125 6.3037109375 592 188 c 2
 542 378 l 1
 521.646484375 377.41015625 501.6796875 377.098632812 482.129882812 377.098632812 c 0
 419.586914062 377.098632812 361.366210938 386.645507812 308.5 409 c 1
 248 156 l 2
 222.390625 48.9052734375 203 -21 128 -21 c 0
 63 -21 47 13 47 63 c 0
 47 111 67 171 78 213 c 2
 344 1213 l 1
 166 1213 l 2
 140 1213 138 1219 138 1225 c 0
 138 1243 156 1293 166 1294 c 2
 463 1330 l 2
 470 1331 475 1331 482 1331 c 1
 482 1331 482.409179688 1331.03320312 483.126953125 1331.03320312 c 0
 488.357421875 1331.03320312 510 1329.265625 510 1300 c 0
 510 1280 505.486328125 1252.12988281 497 1217 c 2
 396.5 801 l 1
 494.5 851 619.8828125 891 747 891 c 0
 853.19140625 891 975.739257812 845.16015625 975.739257812 688.95703125 c 0
 975.739257812 461.903320312 693.73828125 407.943359375 673 403 c 1
EndSplineSet
EndChar

StartChar: l
Encoding: 108 108 77
Width: 575
GlyphClass: 2
Flags: HMW
HStem: -20 110 1213 81<156 169 169 350>
VStem: 76 166
LayerCount: 2
Fore
SplineSet
497 1331 m 4
 526 1331 531 1326 531 1297 c 0
 531 1279 525 1251 516 1216 c 2
 258 257 l 2
 249 224 243 195 243 169 c 0
 243 129 258 91 297 91 c 0
 338 91 384 131 436 209 c 2
 493 295 l 1
 558 250 l 1
 497 161 l 2
 436 72 349 -20 228 -20 c 0
 130 -20 76 66 76 166 c 0
 76 236 101 307 122 382 c 2
 350 1213 l 1
 169 1213 l 2
 143 1213 141 1219 141 1225 c 0
 141 1243 159 1293 169 1294 c 2
 477 1330 l 2
 484.30859375 1331.04394531 489.580078125 1331 497 1331 c 4
EndSplineSet
EndChar

StartChar: m
Encoding: 109 109 78
Width: 1942
GlyphClass: 2
Flags: HW
LayerCount: 2
Fore
SplineSet
1014 256 m 1
 1118.92871094 413.393554688 1385.97460938 890 1630 890 c 0
 1738 890 1774 809 1774 734 c 0
 1774 552 1615 311 1615 157 c 0
 1615 128 1622 92 1658 92 c 0
 1726 92 1776 175 1853 284 c 1
 1863 304 l 1
 1893 279 1911 263 1920 255 c 1
 1898 225 l 2
 1784 70 1705 -22 1572 -22 c 0
 1483 -22 1433 45 1433 137 c 0
 1433 342 1595 606 1595 703 c 0
 1595 727 1583 758 1546 758 c 0
 1400 758 1088 228 1002 82 c 0
 969 26 939 -19 876 -19 c 0
 838 -19 798 7 798 84 c 0
 798 244 959 642 959 704 c 0
 959 728 947 759 910 759 c 0
 755 759 440 195 338 42 c 0
 318 12 282 -19 248 -19 c 0
 198 -19 160 15 160 83 c 0
 160 115 168 146 179 179 c 0
 236 354 321 607 321 713 c 0
 321 732 314 767 279 767 c 0
 207 767 138 648 62 531 c 1
 5 581 l 1
 32 622 l 2
 107 736 210 893 360 893 c 0
 437 893 486 834 486 748 c 0
 486 616 382 334 361 287 c 2
 352 267 l 1
 371 256 l 1
 474.854492188 411.782226562 742.111328125 892 964 892 c 0
 1079 892 1117 828 1117 721 c 0
 1117 594.740234375 1053.12792969 416.340820312 996 264 c 1
 1014 256 l 1
EndSplineSet
EndChar

StartChar: n
Encoding: 110 110 79
Width: 1302
GlyphClass: 2
Flags: HMW
HStem: -20 112 760 130 767 105<281 288>
VStem: 312 163 800 173 959 172
LayerCount: 2
Fore
SplineSet
361 256 m 1xb8
 471.783203125 436.022460938 761.374023438 890 960 890 c 0
 1087 890 1131 809 1131 734 c 0xd4
 1131 552 973 311 973 157 c 0
 973 128 980 95 1014 95 c 0
 1079 96 1133 177 1208 287 c 2
 1223 309 l 1
 1254 283 1270 268 1279 259 c 1
 1257 229 l 2
 1146.51855469 74 1069.95703125 -19 943 -19 c 0
 856 -19 807 48 807 141 c 0
 807 346 956 610 956 707 c 0
 956 731 944 762 907 762 c 4
 802.5 762 562.4921875 406.708984375 492.770507812 304 c 0
 450.431640625 243.857421875 393.979492188 142.078125 330 44 c 0
 311 14 278 -19 247 -19 c 0
 189.90625 -19 160 23 160 84 c 0
 160 117 168 150 179 183 c 0
 236 358 320 598 320 711 c 0
 320 730 315 767 279 767 c 0
 207 767 138 648 62 531 c 1
 5 581 l 1
 32 622 l 2
 103.962890625 734 215.797851562 872 350 872 c 0
 420 872 473 831 473 745 c 0
 473 610.23828125 381.303710938 356.375 343 267 c 1
 361 256 l 1xb8
EndSplineSet
EndChar

StartChar: o
Encoding: 111 111 80
Width: 964
GlyphClass: 2
Flags: HMW
HStem: -20 61 831 61
VStem: 65 172 731 171
LayerCount: 2
Fore
SplineSet
437 51 m 0
 596 51 729 343.0078125 729 563 c 0
 729 697.405273438 672 822 530 822 c 0
 374 822 236 520.900390625 236 303 c 0
 236 162.891601562 295 51 437 51 c 0
522 891 m 0
 732.979492188 891 901 730.626953125 901 461 c 0
 901 206 685.842773438 -19 435 -19 c 0
 216.276367188 -19 65 172 65 401 c 0
 65 659.52734375 274.241210938 891 522 891 c 0
EndSplineSet
EndChar

StartChar: p
Encoding: 112 112 81
Width: 1081
GlyphClass: 2
Flags: HW
LayerCount: 2
Fore
SplineSet
349 91 m 1
 662 91 891 382 891 588 c 0
 891 714.836914062 824.234375 814 686 814 c 0
 631.509765625 814 512 771 512 771 c 6
 328 92 l 1
 334.673828125 91.33984375 343.991210938 93.32421875 349 91 c 1
409 -346 m 1
 406 -349 l 1
 406 -377 393.090820312 -396 371 -396 c 2
 -96 -396 l 2
 -111 -396 -112 -393 -112 -387 c 0
 -112 -264 53.4345703125 -403.608398438 101 -216 c 2
 334 703 l 5
 226.458007812 643.286132812 128.379882812 569.642578125 32 459.400390625 c 0
 27 453.400390625 25 453.400390625 23 453.400390625 c 0
 6.3330078125 453.400390625 -27 480.92578125 -27 492.400390625 c 0
 -27 498.483398438 -20.3857421875 509.653320312 -17 514.400390625 c 0
 104.109375 676.09375 354 818 354 818 c 2
 396 1004.40039062 l 2
 412.08203125 1084.40039062 439.778320312 1172.40039062 505 1172.40039062 c 0
 550.921875 1172.40039062 573 1143.40039062 573 1084.40039062 c 0
 573 1062.40039062 571.030273438 1038.11230469 563 1011.40039062 c 2
 534 885 l 1
 583.078125 903.682617188 641.573242188 921 693 921 c 0
 945.54296875 921 1051 776 1051 602 c 0
 1051 336.029296875 766.833007812 4 315 4 c 1
 255 -215 l 2
 251 -228 250 -240 250 -249 c 0
 250 -367 409 -282 409 -346 c 1
EndSplineSet
EndChar

StartChar: q
Encoding: 113 113 82
Width: 1018
GlyphClass: 2
Flags: HW
LayerCount: 2
Fore
SplineSet
229 340 m 1
 228 340 l 1
 228 156 311 71 415 71 c 0
 559 71 738 270 738 578 c 0
 738 692 708 826 564 826 c 0
 359 826 229 544 229 340 c 1
703 -251 m 1
 704 -251 l 1
 704 -365 867 -283 867 -346 c 0
 867 -373 854.186523438 -392 830 -392 c 2
 577 -392 l 2
 541 -392 525 -391 525 -361 c 0
 525 -342 528 -314 538 -278 c 2
 654 153 l 1
 607 97 l 2
 552 31 464 -19 378 -19 c 0
 187 -19 66 137 66 345 c 0
 66 650 311 893 541 893 c 0
 640 893 735 847 772 693 c 2
 786 635 l 1
 848 820 l 2
 857 847 873 865 913 865 c 0
 956 865 984 834 984 798 c 0
 984 792 983 786 981 779 c 2
 708 -215 l 2
 704 -229 703 -241 703 -251 c 1
EndSplineSet
EndChar

StartChar: r
Encoding: 114 114 83
Width: 890
GlyphClass: 2
Flags: HMW
HStem: -20 21G<200.5 260> 767 105<266 275>
VStem: 296 157
LayerCount: 2
Fore
SplineSet
454 744 m 0
 454 637.499023438 394.395507812 468.185546875 327 266 c 1
 346 258 l 1
 438 422 l 2
 524.044921875 561.278320312 681.078125 894 865 894 c 0
 911 894 958 852 958 805 c 0
 958 719 813.161132812 693.84765625 738 656 c 0
 620.833007812 597 434.833007812 249 353 106 c 0
 326.99609375 60.5595703125 285 -20 235 -20 c 0
 166 -20 137 28 137 82 c 0
 137 139 172 222 190 277 c 0
 281 551 298 670 298 719 c 0
 298 729 294 767 256 767 c 0
 184 767 109 640 69 577 c 1
 15 628 l 1
 94 743 198 872 334 872 c 0
 419 872 454 814 454 744 c 0
EndSplineSet
EndChar

StartChar: s
Encoding: 115 115 84
Width: 784
GlyphClass: 2
Flags: HW
LayerCount: 2
Fore
SplineSet
446 516 m 0
 607.454101562 403 668 293.043945312 668 190 c 0
 668 70 591 -21 410 -21 c 0
 259.317382812 -21 43 97 43 221 c 0
 43 264 61 286 102 286 c 0
 188.54296875 286 188.54296875 68 409 68 c 0
 485 68 531 112 531 179 c 0
 531 246 480.369140625 324 372 400 c 0
 255.350585938 476 154 561.966796875 154 697 c 0
 154 846 281 892 413 892 c 0
 510.640625 892 729 829.235351562 729 698 c 0
 729 659 712 637 669 637 c 0
 581.24609375 637 585.58984375 827 404 827 c 0
 363 827 280 815 280 728 c 0
 280 652 337.534179688 590 446 516 c 0
EndSplineSet
EndChar

StartChar: t
Encoding: 116 116 85
Width: 626
GlyphClass: 2
Flags: HW
LayerCount: 2
Fore
SplineSet
326 920 m 1
 357.833007812 1002 430.108398438 1234 512 1234 c 0
 542 1234 559.396484375 1203.40527344 556 1194 c 0
 540.833007812 1152 460.782226562 936.477539062 456 925 c 1
 700 925 l 1
 679 826 l 1
 441 826 l 1
 294 258 l 2
 287 231 275 198 275 167 c 0
 275 135 282 89 329 89 c 0
 365 89 406 124 452 203 c 2
 504 293 l 1
 569 248 l 1
 511 154 l 1
 452 67 372 -21 259 -21 c 0
 141 -21 108 56 108 153 c 1
 109 154 l 1
 109 235 131 322 149 382 c 2
 278 822 l 1
 75 822 l 1
 104 920 l 1
 326 920 l 1
EndSplineSet
EndChar

StartChar: u
Encoding: 117 117 86
Width: 1320
GlyphClass: 2
Flags: HMW
HStem: -20 124 779 113
VStem: 18 51 328 171 824 159
LayerCount: 2
Fore
SplineSet
501 741 m 0
 501 557.638671875 332 340.729492188 332 183 c 0
 332 179 329 104 384 104 c 0
 489 104 740.567382812 496.2578125 850 650 c 0
 903.567382812 725.2578125 979 865 1070 865 c 0
 1131 865 1149 822 1149 774 c 0
 1149 750 1145 726 1139 705 c 2
 1005 240 l 2
 1000 222 989 183 989 150 c 0
 989 119 998 93 1030 93 c 0
 1082 93 1120 137 1186 229 c 2
 1244 310 l 1
 1301 264 l 1
 1244 185 l 2
 1158 66 1085 -19 959 -19 c 0
 870 -19 825 50 825 130 c 0
 825 273 880 433 927 556 c 2
 952 622 l 1
 936 630 l 1
 807.986328125 436.25 574.78125 -19 323 -19 c 4
 222 -19 156 70 156 176 c 0
 156 359 330 594 330 726 c 0
 330 755 312 778 280 778 c 0
 196 778 131 618 71 539 c 1
 71 539 23 573 20 585 c 0
 20 588 21 593 21 594 c 0
 84 719 213 891 361 891 c 0
 439 891 501 844 501 741 c 0
EndSplineSet
EndChar

StartChar: v
Encoding: 118 118 87
Width: 1046
GlyphClass: 2
Flags: HW
LayerCount: 2
Fore
SplineSet
872 436 m 0
 872 595.907226562 736 691.779296875 736 814 c 0
 736 860 767 891 820 891 c 1
 822 889 l 1
 958 889 982 599 982 560 c 0
 982 273 805 -23 523 -23 c 0
 380 -23 198 96 198 271 c 0
 198 425 315 520 428 763 c 0
 432 770 434 775 434 779 c 0
 434 785 430 788 421 788 c 2
 181 788 l 2
 166 788 143 775 143 754 c 0
 143 713 171 687 171 665 c 0
 171 637 157 617 129 617 c 0
 79 617 40 674 40 723 c 0
 40 815 126 890 217 890 c 2
 502 890 l 2
 534 890 544 877 544 859 c 0
 544 819 509 746 498 714 c 0
 458 601 355 479 355 334 c 0
 355 182 455 116 569 116 c 0
 741 116 872 260 872 436 c 0
EndSplineSet
EndChar

StartChar: w
Encoding: 119 119 88
Width: 1615
GlyphClass: 2
Flags: HW
LayerCount: 2
Fore
SplineSet
1040 656 m 0
 1040 700 1034 789 960 789 c 0
 885 789 864 703 864 624 c 0
 864 515.576171875 893.954101562 413.575195312 923 337 c 1
 983.779296875 409.409179688 1040 528.518554688 1040 656 c 0
866 162 m 1
 794.926757812 90.0224609375 666.294921875 -20 535 -20 c 0
 383 -20 254 100 254 276 c 0
 254 516.948242188 426 749 426 779 c 0
 426 785 422 788 413 788 c 2
 173 788 l 2
 158 788 135 775 135 754 c 0
 135 713 163 687 163 665 c 0
 163 637 149 617 121 617 c 0
 71 617 32 674 32 723 c 0
 32 815 118 890 209 890 c 2
 504 890 l 2
 536 890 545 877 545 860 c 0
 545 842 536 821 532 805 c 0
 499 667 403 502 403 334 c 0
 403 251 446 104 576 104 c 0
 675.729492188 104 807.01953125 225.760742188 815 261 c 0
 815 261 745 449.959960938 745 546 c 0
 745 730 815 891 957 891 c 0
 1081.56542969 891 1108.68847656 735.294921875 1108.68847656 649 c 0
 1108.68847656 463 960 259 960 259 c 0
 991 175.094726562 1046.35839844 111 1168 111 c 0
 1333 111 1431 261.034179688 1431 425 c 0
 1431 603 1304 673 1304 802 c 0
 1304 854 1327 891 1380 891 c 0
 1518.9921875 891 1548 612.4921875 1548 559 c 0
 1548 303 1393 -21 1148 -21 c 0
 973.846679688 -21 873.080078125 151.62890625 866 162 c 1
EndSplineSet
EndChar

StartChar: x
Encoding: 120 120 89
Width: 1165
GlyphClass: 2
Flags: HW
LayerCount: 2
Fore
SplineSet
223 148 m 0
 322.244140625 148 456 382.5 512 478 c 1
 492 536.5 470 610 462 636 c 0
 446 683 416 855 326 855 c 0
 204 855 173 683 142 683 c 0
 115 683 83 713 83 729 c 0
 83 730 83 731 85 734 c 0
 157 839 244 964 376 964 c 0
 563.782226562 964 611.221679688 662 630 662 c 0
 630 662 782.869140625 835.276367188 814 874 c 0
 854 922 921 956 987 956 c 0
 1060 956 1163 919 1163 832 c 0
 1163 796 1121 768 1078 768 c 0
 1037 768 990 795 935 795 c 0
 894 795 659 522.5 659 511 c 0
 659 481.803710938 715.1484375 312.741210938 731 266 c 0
 751.055664062 214 773.22265625 111 864 111 c 0
 970 111 1038 217 1085 279 c 1
 1133 237 l 1
 1134 233 1134 228 1134 228 c 1
 950 -25.5 812 -21 812 -21 c 1
 649.856445312 -21.5263671875 580.46484375 247.733398438 550 350.5 c 1
 514 294.5 393.702148438 140.862304688 323 67 c 1
 280 13 207 -13 130 -13 c 0
 64 -13 -9 34 -9 108 c 0
 -9 155 31 183 85 183 c 0
 126 183 171 148 223 148 c 0
EndSplineSet
EndChar

StartChar: y
Encoding: 121 121 90
Width: 1012
GlyphClass: 2
Flags: HMW
HStem: -399 168 760 131
VStem: 813 146<430 683>
LayerCount: 2
Fore
SplineSet
959 644 m 1
 961 646 l 1
 961 265 475 -397.5 115 -397 c 0
 37 -396.891601562 -83 -356 -83 -264 c 0
 -83 -217 -27 -197 30 -197 c 0
 87.09765625 -197 148.657226562 -232 212 -232 c 0
 289.1171875 -232 329 -199.5 497 -22.5 c 0
 497 -22.5 393.924804688 317.323242188 339 506.5 c 0
 292.194335938 667.711914062 253.154296875 762 215 762 c 0
 143.185546875 762 73 616.5 44 576 c 1
 -8 620 l 1
 77 762.5 155 893 276 893 c 0
 343 893 387 826 410 753 c 0
 474.0390625 542.5859375 551 274.5 607 92 c 1
 647 148.5 813 404.741210938 813 502 c 0
 813 627 730 715 730 818 c 0
 730 864 751 891 804 891 c 0
 924 891 959 722 959 644 c 1
EndSplineSet
EndChar

StartChar: z
Encoding: 122 122 91
Width: 921
GlyphClass: 2
Flags: HW
LayerCount: 2
Fore
SplineSet
746 118 m 1
 745.5 148.731445312 649 159 649 236 c 0
 649 272 682 297 725 297 c 0
 775 297 832 262 832 164 c 0
 832 32 700 -19 575 -19 c 0
 390 -19 285 101 211 101 c 0
 131 101 115 10 112 -20 c 1
 66 -20 l 1
 49 3 49 30 49 55 c 0
 49 231 240 381 370 462 c 0
 448.740234375 513.334960938 550.876953125 600.291015625 637.5 680.731445312 c 0
 637.5 680.731445312 606.434570312 658.731445312 537.5 658.731445312 c 0
 443.5 658.731445312 354.462890625 795 275 795 c 0
 249 795 218 790 218 763 c 0
 218 724 273 695 273 651 c 0
 273 618 245 597 208 597 c 0
 147 597 99 654 99 724 c 0
 99 829 218 891 323 891 c 0
 420.65625 891 562.732421875 763.643554688 643.465820312 763.643554688 c 0
 716.2109375 763.643554688 730.174804688 891 755 891 c 0
 765.208984375 891 776.560546875 892.68359375 786.361328125 892.68359375 c 0
 800.236328125 892.68359375 811 889.30859375 811 873 c 0
 811 823 790 777 768 735 c 0
 687 584 548.586914062 483.008789062 419 393 c 1
 340.46484375 330.268554688 258.647460938 258.319335938 190 166 c 1
 240.060546875 178.78125 294.6328125 198.731445312 349.5 198.731445312 c 0
 475.518554688 198.731445312 554.065429688 81 668 81 c 0
 729.631835938 81 747.5 90.7314453125 746 118 c 1
EndSplineSet
EndChar

StartChar: braceleft
Encoding: 123 123 92
Width: 658
GlyphClass: 2
Flags: HW
LayerCount: 2
Fore
SplineSet
214 464 m 0
 214 591.780273438 42 551.043945312 42 627 c 0
 42 640 52.5341796875 651.92578125 61 653 c 0
 186.534179688 668.92578125 280 745 306 870 c 0
 327 969 319 1063 338 1156 c 0
 378 1357 530 1463 725 1481 c 1
 724 1472 726.248046875 1459.5 719 1458 c 0
 610.248046875 1435.5 512 1394 486 1267 c 0
 464 1163 484 1069 464 974 c 0
 436.064453125 804.913085938 334.697265625 690.139648438 203 643 c 2
 149 628 l 1
 203 611 l 2
 282.384765625 574.241210938 332 492.983398438 332 374 c 0
 332 249 245 133 217 4 c 0
 213 -14 212 -24 212 -37 c 0
 212 -135 300 -173 378 -188 c 1
 378 -194 380.43359375 -213 371 -213 c 0
 200.50390625 -213 111 -121 111 26 c 0
 111 183.690429688 214 316.649414062 214 464 c 0
EndSplineSet
EndChar

StartChar: bar
Encoding: 124 124 93
Width: 500
GlyphClass: 2
Flags: HW
LayerCount: 2
Fore
SplineSet
44 -275 m 0
 44 303.2734375 269.293945312 863.741210938 400 1423 c 0
 405.4375 1446.26464844 438 1447 460 1450 c 1
 460 1379 458 1316 444 1248 c 2
 163 -84 l 1
 149 -157 166.946289062 -296 92 -296 c 0
 72.7646484375 -296 44 -294.416015625 44 -275 c 0
EndSplineSet
EndChar

StartChar: braceright
Encoding: 125 125 94
Width: 659
GlyphClass: 2
Flags: HW
LayerCount: 2
Fore
SplineSet
332 893 m 0
 332 1047.25097656 451 1157.56542969 451 1304 c 0
 451 1401 376 1441 290 1456 c 1
 291 1462 289.055664062 1480 298 1480 c 0
 461.600585938 1480 557 1387 557 1241 c 0
 557 1114 454 962 454 816 c 0
 454 721 518.939453125 667.763671875 613 651 c 0
 619.939453125 649.763671875 625.364257812 634.64453125 618 630 c 0
 514.364257812 564.64453125 398 589 358 403 c 0
 338 308 346 219 328 131 c 0
 283 -82 145 -197 -66 -215 c 1
 -65 -208 -64.4033203125 -192.376953125 -58 -191 c 0
 42.5966796875 -169.376953125 153 -127 179 -6 c 0
 192 57 190 117 190 179 c 0
 190 411 323 561 529 617 c 2
 584 632 l 1
 529 649 l 2
 406 687 332 770 332 893 c 0
EndSplineSet
EndChar

StartChar: asciitilde
Encoding: 126 126 95
Width: 1082
GlyphClass: 2
Flags: HW
LayerCount: 2
Fore
SplineSet
914 829 m 1
 969 829 l 1
 935 688 852 600 735 600 c 0
 582 600 453 730 331 730 c 0
 252 730 202 678 176 613 c 1
 120 613 l 1
 163 738 234 834 368 834 c 0
 501 834 645 701 761 701 c 0
 848 701 893 757 914 829 c 1
EndSplineSet
EndChar

StartChar: exclamdown
Encoding: 161 161 96
Width: 565
GlyphClass: 2
Flags: HW
LayerCount: 2
Fore
SplineSet
259 1087 m 0
 259 1173 351 1236 432 1236 c 0
 486 1236 529 1209 529 1136 c 0
 529 1046 438 984 360 984 c 0
 304 984 259 1013 259 1087 c 0
320 803 m 1
 348 803 l 1
 269 154 l 1
 261 102 210 0 116 0 c 0
 54 0 39 34 39 77 c 0
 39 101 42.6123046875 125.514648438 51 146 c 2
 320 803 l 1
EndSplineSet
EndChar

StartChar: cent
Encoding: 162 162 97
Width: 956
GlyphClass: 2
Flags: HW
LayerCount: 2
Fore
SplineSet
557 841 m 1
 556 840 l 1
 545 843 533 845 520 845 c 0
 341 845 225 605 225 407 c 0
 225 276.879882812 278.78515625 162.775390625 404 127 c 1
 563 839 l 1
 557 841 l 1
795 641 m 0
 733.0625 641 683.959960938 745.479492188 617 805 c 1
 463 119 l 1
 472 119 l 2
 640 119 732 224 812 327 c 1
 887 268 l 1
 782 120 637 0 443 0 c 2
 437 0 l 1
 375 -278 l 2
 357 -356 325 -368 318 -368 c 1
 318 -368 305 -364 305 -332 c 0
 305 -323 306 -314 309 -302 c 2
 378 6 l 1
 191.702148438 32.6142578125 57 205.34765625 57 408 c 0
 57 677 263 911 536 911 c 0
 548.591796875 911 565.408203125 909.265625 579 907 c 1
 627 1122 l 2
 652 1233 664 1246 692 1246 c 0
 697 1246 700 1243 700 1218 c 0
 700 1198 696 1168 686 1123 c 2
 636 897 l 1
 745.388671875 865.74609375 867 808.088867188 867 706 c 0
 867 662 845 641 795 641 c 0
EndSplineSet
EndChar

StartChar: sterling
Encoding: 163 163 98
Width: 1183
GlyphClass: 2
Flags: HW
LayerCount: 2
Fore
SplineSet
469 214 m 1
 592.32421875 175.4609375 683.182617188 95 944 95 c 0
 971 95 1009 98 1009 128 c 0
 1009 195 898 219 898 267 c 0
 898 297 923 320 954 320 c 0
 1042 320 1075 249 1075 178 c 0
 1075 41 952 -6 805 -6 c 0
 615 -6 535 114 356 114 c 0
 268 114 156 81 5 -6 c 1
 7 -4 l 1
 -14 -1 -29 21 -29 51 c 0
 -29 147 254 217 281 222 c 1
 292 222 l 1
 325.729492188 314.755859375 339.165039062 407.711914062 355 508 c 1
 128 508 l 1
 132 538 137 584 147 584 c 2
 368 584 l 1
 402.760742188 827.322265625 546.60546875 1237 945 1237 c 0
 1027 1237 1138 1213 1138 1126 c 0
 1138 1081 1125 1065 1076 1065 c 0
 1030 1065 989 1166 909 1166 c 0
 665 1166 620 804 564 604 c 1
 558 582 l 1
 825 582 l 1
 819 542 807 506 790 506 c 2
 542 506 l 1
 516.444335938 406.114257812 473.083007812 231.04296875 469 214 c 1
EndSplineSet
EndChar

StartChar: fraction
Encoding: 8260 8260 99
Width: 800
GlyphClass: 2
Flags: HW
LayerCount: 2
Fore
SplineSet
841 1372 m 1
 637 962 333 512 106 98 c 0
 79 49 49.169921875 -10.55859375 14 -49 c 0
 6.169921875 -57.55859375 -10 -52 -23 -52 c 2
 -33 -52 l 1
 -29 0 -6 50 24 101 c 2
 601 1081 l 2
 643 1153 723.3984375 1385 791 1385 c 0
 812.0234375 1385 827 1380 841 1372 c 1
EndSplineSet
EndChar

StartChar: yen
Encoding: 165 165 100
Width: 1284
GlyphClass: 2
Flags: HW
LayerCount: 2
Fore
SplineSet
220 336 m 2
 428 336 l 1
 448 443 l 1
 440 459 l 1
 429 459 l 2
 314 459 281 458 256 458 c 0
 157 458 144 472 144 499 c 0
 144 512 161 520 352 520 c 2
 425 520 l 1
 280 1032 l 2
 259 1107 228 1147 96 1147 c 0
 92 1147 89 1147 89 1166 c 0
 89 1189 94.7890625 1217 102 1217 c 2
 583 1217 l 1
 585 1213 588 1204 588 1188 c 0
 588 1160 580 1147 574 1147 c 0
 523 1147 426 1140 426 1049 c 0
 426 1035 428 1020 433 1003 c 2
 561 549 l 1
 933 1017 l 1
 948 1040 960 1061 960 1083 c 0
 960 1127 932 1147 836 1147 c 0
 832 1147 829 1147 829 1166 c 0
 829 1189 834.7890625 1217 842 1217 c 2
 1306 1217 l 1
 1308 1213 1311 1204 1311 1188 c 0
 1311 1160 1303 1147 1297 1147 c 0
 1232 1147 1164.50390625 1124.63085938 1078 1018 c 2
 674 520 l 1
 872 520 l 2
 904 520 947 508 947 491 c 0
 947 487 932 460 873 460 c 2
 621 460 l 1
 597 338 l 1
 860 340 l 2
 906 340 912 322 912 319 c 0
 912 292 862 277 824 277 c 2
 586 277 l 1
 574 210 l 2
 571 198 569 187 569 176 c 0
 569 99 638.353515625 90.80859375 725 87 c 0
 729.353515625 86.80859375 729 75 729 59 c 0
 729 29 720 17 714 17 c 2
 213 17 l 2
 210 17 206 17 206 35 c 0
 206 63 221.876953125 88 226 88 c 0
 304 88 379 97 408 223 c 1
 418 277 l 1
 295 277 l 2
 132 277 104 292.39453125 104 296 c 0
 104 313 112.981445312 336 220 336 c 2
EndSplineSet
EndChar

StartChar: section
Encoding: 167 167 101
Width: 861
GlyphClass: 2
Flags: HW
LayerCount: 2
Fore
SplineSet
621.19140625 395.19921875 m 0
 621.19140625 618.73046875 444.727539062 866.791015625 344.5 1015.29980469 c 1
 261.477539062 938.626953125 230.5 814.02734375 230.5 729.299804688 c 0
 230.5 486.416992188 497.907226562 290.318359375 538.5 87.2998046875 c 1
 571.427734375 181.5 621.19140625 272.895507812 621.19140625 395.19921875 c 0
703 501 m 0
 703 354.182617188 549 16 549 16 c 0
 549 -123 387 -204 269 -204 c 0
 158 -204 -5 -171 -5 -64 c 0
 -5 -11 24 15 66 15 c 0
 131 15 52 -165 281 -165 c 0
 368 -165 502 -129 502 7 c 0
 502 219 161 352 161 658 c 0
 161 798.92578125 234.712890625 939.069335938 322 1070 c 1
 319.896484375 1077.36132812 318 1087.26855469 318 1101 c 0
 318 1253 455 1343 586 1343 c 0
 693 1343 844 1315 844 1213 c 0
 844 1170 818 1151 783 1151 c 0
 739 1151 699 1313 569 1313 c 0
 492 1313 372 1271 372 1156 c 0
 372 980 703 835 703 501 c 0
EndSplineSet
EndChar

StartChar: currency
Encoding: 164 164 102
Width: 1147
GlyphClass: 2
Flags: HW
LayerCount: 2
Fore
SplineSet
663 1092 m 0
 748.620117188 1092 812.188476562 1063.87402344 875 1022 c 1
 885 1032 l 1
 886 1032 l 1
 939 1084 986 1139 1043 1174 c 1
 1064 1156 1089 1137.08007812 1089 1112 c 0
 1089 1040.40527344 984.149414062 1011.734375 930 963 c 1
 958.948242188 913.374023438 978 857.65625 978 795 c 0
 978 673.280273438 919.525390625 560.525390625 831 472 c 1
 862.833007812 421.9765625 933 373.971679688 933 323 c 0
 933 284.81640625 883.12109375 259 850 259 c 0
 798.340820312 259 774.12109375 362.288085938 748 408 c 1
 668.633789062 365.671875 587.288085938 336 502 336 c 0
 416.892578125 336 349.1328125 364.911132812 289 405 c 1
 233.563476562 349.563476562 189.943359375 254 120 254 c 0
 91.57421875 254 74 290.23046875 74 314 c 0
 74 385.583984375 180.288085938 413.758789062 235 463 c 1
 205.48046875 513.60546875 186 568.485351562 186 630 c 0
 186 749.717773438 246.206054688 866.206054688 336 956 c 1
 304.064453125 1006.18457031 233 1054.44042969 233 1106 c 0
 233 1141.35546875 282.87890625 1170 316 1170 c 0
 368.849609375 1170 390.053710938 1065.58300781 420 1019 c 1
 494.19140625 1061.39550781 581.166015625 1092 663 1092 c 0
638 1000 m 0
 466.65625 1000 295 851.0234375 295 654 c 0
 295 524 382 428 524 428 c 0
 701 428 866 588 866 771 c 0
 866 900 780 1000 638 1000 c 0
EndSplineSet
EndChar

StartChar: quotesingle
Encoding: 39 39 103
Width: 433
GlyphClass: 2
Flags: HW
LayerCount: 2
Fore
SplineSet
186 769 m 1
 186 768 l 1
 178 772 168 805 168 871 c 0
 168 988 192 1157 201 1196 c 0
 213 1253 251 1285 308 1285 c 0
 355 1285 374 1266 374 1230 c 0
 374 1204 247 783 186 769 c 1
EndSplineSet
EndChar

StartChar: quotedblleft
Encoding: 8220 8220 104
Width: 844
GlyphClass: 2
Flags: HW
LayerCount: 2
Fore
SplineSet
701 1210 m 1
 769 1124 l 1
 707 1083 669 1064 669 1001 c 0
 669 963 717 890.3359375 717 853 c 0
 717 813.94921875 677 776 623 776 c 0
 549 776 495 839 495 930 c 0
 495 1042 602 1150 701 1210 c 1
350 1211 m 1
 418 1125 l 1
 356 1084 318 1065 318 1002 c 0
 318 964 366 891.3359375 366 854 c 0
 366 814.94921875 326 777 272 777 c 0
 198 777 144 840 144 931 c 0
 144 1043 251 1151 350 1211 c 1
EndSplineSet
EndChar

StartChar: guillemotleft
Encoding: 171 171 105
Width: 838
GlyphClass: 2
Flags: HW
LayerCount: 2
Fore
SplineSet
730 820 m 2
 509 512 l 1
 595 197 l 2
 599 182 601 170 601 158 c 0
 601 148 601.1953125 133 578 133 c 0
 561.720703125 133 559.659179688 157.797851562 547 182 c 2
 377 507 l 1
 487 625 641.581054688 883 742 883 c 0
 755.153320312 883 762 878 762 873 c 0
 762 851.045898438 739 832 730 820 c 2
505 921 m 0
 505 794.322265625 290.194335938 639.071289062 198 510 c 1
 200 502 l 1
 198 504 l 1
 237 375 322 202.548828125 322 92 c 0
 322 82.1005859375 309.0625 81 301 81 c 0
 281.150390625 81 278 106 263 133 c 2
 55 505 l 1
 426 874 l 2
 446 894 464.791015625 930 484 930 c 0
 497.038085938 930 505 926 505 921 c 0
EndSplineSet
EndChar

StartChar: guilsinglleft
Encoding: 8249 8249 106
Width: 577
GlyphClass: 2
Flags: HW
LayerCount: 2
Fore
SplineSet
480 882 m 2
 214 535 l 1
 329 180 l 2
 336 158 345.572265625 134.637695312 341 117 c 0
 338.572265625 107.637695312 327.071289062 106 320 106 c 0
 299.384765625 106 295 131 280 158 c 2
 72 530 l 1
 214.852539062 671.48046875 298.922851562 955 500 955 c 0
 514.142578125 955 519 949 523 945 c 1
 509 922 493 899 480 882 c 2
EndSplineSet
EndChar

StartChar: guilsinglright
Encoding: 8250 8250 107
Width: 567
GlyphClass: 2
Flags: HW
LayerCount: 2
Fore
SplineSet
339 532 m 0
 339 655.360351562 208.736328125 818.009765625 204 942 c 0
 203.505859375 954.947265625 228.831054688 963.579101562 235 956 c 0
 333.831054688 834.579101562 401 674 480 536 c 1
 124 170 l 2
 100 146 81.232421875 106 51 106 c 0
 43.9287109375 106 41 109 38 112 c 1
 38 115 l 1
 106.7265625 253.479492188 339 380.049804688 339 532 c 0
EndSplineSet
EndChar

StartChar: fi
Encoding: 64257 64257 108
Width: 1278
GlyphClass: 2
Flags: HW
LayerCount: 2
Fore
SplineSet
623 904 m 2
 603 817 l 1
 1106 817 l 1
 1115 711 l 1
 972 258 l 2
 961 225 957 197.01953125 957 172 c 0
 957 132 970 92 1009 92 c 0
 1050 92 1096 132 1148 210 c 2
 1205 296 l 1
 1270 251 l 1
 1209 162 l 2
 1148 73 1061 -19 943 -19 c 0
 848 -19 795 65 795 164 c 0
 795 231 819.565429688 300.522460938 840 370 c 2
 945 727 l 5
 582 727 l 5
 488 323 l 2
 410.721679688 -9.1318359375 387 -303 44 -303 c 0
 -28 -303 -171 -263 -171 -150 c 0
 -171 -112 -134 -91 -86 -91 c 0
 -12 -91 14 -232 91 -232 c 0
 217 -232 230.373046875 -72.3173828125 312 283 c 2
 414 727 l 5
 208 727 l 5
 233 817 l 1
 438 817 l 1
 459 899 l 2
 513 1111 609 1251 831 1251 c 0
 930 1251 1091 1214 1091 1078 c 0
 1091 1041 1062 1017 1014 1017 c 0
 934 1017 866 1169 765 1169 c 0
 675 1169 639 972 623 904 c 2
EndSplineSet
LCarets2: 1 0 
Ligature2: "'liga' Standard Ligatures in Latin lookup 0-1" f i
EndChar

StartChar: fl
Encoding: 64258 64258 109
Width: 1318
GlyphClass: 2
Flags: HW
LayerCount: 2
Fore
SplineSet
212 727 m 1
 234 817 l 1
 439 817 l 1
 462 901 l 2
 530.815429688 1141.64746094 582 1239 934 1239 c 1
 934 1239 1245 1223.0546875 1245 1156.79980469 c 0
 1245 1138.79003906 1211.51171875 1019.52148438 1005 258 c 0
 996 225 990 198 990 172 c 0
 990 132 1003 92 1042 92 c 0
 1083 92 1129 132 1181 210 c 2
 1238 296 l 1
 1303 251 l 1
 1242 162 l 2
 1181 73 1094 -19 976 -19 c 0
 882 -19 829 63 829 161 c 0
 829 229 854.8203125 296.782226562 874 371 c 2
 966 727 l 1
 588 727 l 1
 489 323 l 2
 407.549804688 -9.3828125 389 -303 44 -303 c 0
 -28 -303 -171 -263 -171 -150 c 0
 -171 -112 -134 -91 -86 -91 c 0
 -12 -91 14 -232 91 -232 c 0
 217 -232 227.341796875 -71.607421875 312 283 c 2
 418 727 l 1
 212 727 l 1
845 1133 m 0
 735 1133 660.734375 1065.32519531 622 912 c 2
 598 817 l 1
 979 817 l 1
 1068 1124 l 1
 991.59375 1127.63867188 921.482421875 1133 845 1133 c 0
EndSplineSet
LCarets2: 1 0 
Ligature2: "'liga' Standard Ligatures in Latin lookup 0-1" f l
EndChar

StartChar: endash
Encoding: 8211 8211 110
Width: 1069
GlyphClass: 2
Flags: HW
LayerCount: 2
Fore
SplineSet
160 452 m 2
 144 452 132 469 132 490 c 1
 205 506 275 507 347 507 c 2
 906 507 l 1
 930 496 937 488 937 470 c 0
 937 452 795 452 772 452 c 2
 160 452 l 2
EndSplineSet
EndChar

StartChar: dagger
Encoding: 8224 8224 111
Width: 567
GlyphClass: 2
Flags: HW
LayerCount: 2
Fore
SplineSet
43 360 m 1
 50 401 66.5986328125 475 78 475 c 2
 166.544921875 475 l 1
 242.995117188 793.352539062 346.466796875 1108.36816406 420 1423 c 0
 425.4375 1446.26464844 458 1447 480 1450 c 1
 480 1379 478 1316 464 1248 c 2
 300.926757812 475 l 1
 502 475 l 1
 494 435 477.727539062 360 465 360 c 2
 276.666992188 360 l 1
 183 -84 l 1
 169 -157 186.946289062 -296 112 -296 c 0
 92.7646484375 -296 64 -294.416015625 64 -275 c 0
 64 -61.1787109375 94.802734375 150.208007812 140.236328125 360 c 1
 43 360 l 1
EndSplineSet
EndChar

StartChar: daggerdbl
Encoding: 8225 8225 112
Width: 659
GlyphClass: 2
Flags: HW
LayerCount: 2
Fore
SplineSet
468 470 m 2
 525 470 575 464 575 446 c 0
 575 420 541 410 497 410 c 0
 478 410 460 412 446 412 c 2
 340.63671875 412 l 1
 236 -84 l 1
 222 -157 239.946289062 -296 165 -296 c 0
 145.764648438 -296 117 -294.416015625 117 -275 c 0
 117 -43.5009765625 153.106445312 185.143554688 204.794921875 412 c 1
 134 412 l 2
 122 412 105 411 89 411 c 0
 46 411 26 419 26 432 c 0
 26 472 106 470 152 470 c 2
 218.346679688 470 l 1
 233.046875 531.451171875 248.765625 592.77734375 265.091796875 654 c 1
 185 654 l 2
 173 654 156 653 140 653 c 0
 96 653 75 661 75 674 c 0
 75 714 155 712 201 712 c 2
 280.736328125 712 l 1
 345.620117188 950.051757812 417.7578125 1186.63378906 473 1423 c 0
 478.4375 1446.26464844 511 1447 533 1450 c 1
 533 1379 531 1316 517 1248 c 2
 403.924804688 712 l 1
 517 712 l 2
 574 712 624 706 624 688 c 0
 624 662 591 652 547 652 c 0
 529 652 511 654 497 654 c 2
 391.689453125 654 l 1
 352.872070312 470 l 1
 468 470 l 2
EndSplineSet
EndChar

StartChar: periodcentered
Encoding: 183 183 113
Width: 525
GlyphClass: 2
Flags: HW
LayerCount: 2
Fore
SplineSet
134 609 m 0
 134 700 198 743 262 743 c 0
 328 743 391 700 391 609 c 0
 391 519 328 476 262 476 c 0
 198 476 134 519 134 609 c 0
EndSplineSet
EndChar

StartChar: paragraph
Encoding: 182 182 114
Width: 1085
GlyphClass: 2
Flags: HW
LayerCount: 2
Fore
SplineSet
102 844 m 0
 102 1192.91503906 423.020507812 1285 686 1285 c 2
 1134 1285 l 1
 1132 1273 l 1
 1099.00488281 1257.00292969 963.76953125 1277.14550781 950 1211 c 2
 675 -110 l 2
 674 -112 673 -114 673 -118 c 0
 673 -171 803 -165 830 -168 c 1
 822 -210 l 1
 596 -210 l 1
 899 1234 l 1
 724 1234 l 1
 421 -210 l 1
 164 -210 l 1
 172 -170 l 1
 200 -164 371 -175 383 -118 c 2
 532 592 l 1
 511 592 l 2
 289 592 102 642 102 844 c 0
EndSplineSet
EndChar

StartChar: bullet
Encoding: 8226 8226 115
Width: 742
GlyphClass: 2
Flags: HW
LayerCount: 2
Fore
SplineSet
414 835 m 0
 537 835 608 746 608 634 c 0
 608 481 479 332 309 332 c 0
 182 332 113 420 113 529 c 0
 113 683 246 835 414 835 c 0
EndSplineSet
EndChar

StartChar: quotesinglbase
Encoding: 8218 8218 116
Width: 535
GlyphClass: 2
Flags: HW
LayerCount: 2
Fore
SplineSet
160 -208 m 1
 92 -122 l 1
 154 -81 192 -62 192 1 c 0
 192 39 144 111.6640625 144 149 c 0
 144 188.05078125 184 226 238 226 c 0
 312 226 366 163 366 72 c 0
 366 -40 259 -148 160 -208 c 1
EndSplineSet
EndChar

StartChar: quotedblbase
Encoding: 8222 8222 117
Width: 864
GlyphClass: 2
Flags: HW
LayerCount: 2
Fore
SplineSet
489 -207 m 1
 421 -121 l 1
 483 -80 521 -61 521 2 c 0
 521 40 473 112.6640625 473 150 c 0
 473 189.05078125 513 227 567 227 c 0
 641 227 695 164 695 73 c 0
 695 -39 588 -147 489 -207 c 1
160 -208 m 1
 92 -122 l 1
 154 -81 192 -62 192 1 c 0
 192 39 144 111.6640625 144 149 c 0
 144 188.05078125 184 226 238 226 c 0
 312 226 366 163 366 72 c 0
 366 -40 259 -148 160 -208 c 1
EndSplineSet
EndChar

StartChar: quotedblright
Encoding: 8221 8221 118
Width: 850
GlyphClass: 2
Flags: HW
LayerCount: 2
Fore
SplineSet
572 784 m 1
 504 870 l 1
 566 911 604 930 604 993 c 0
 604 1031 556 1103.6640625 556 1141 c 0
 556 1180.05078125 596 1218 650 1218 c 0
 724 1218 778 1155 778 1064 c 0
 778 952 671 844 572 784 c 1
210 783 m 1
 142 869 l 1
 204 910 242 929 242 992 c 0
 242 1030 194 1102.6640625 194 1140 c 0
 194 1179.05078125 234 1217 288 1217 c 0
 362 1217 416 1154 416 1063 c 0
 416 951 309 843 210 783 c 1
EndSplineSet
EndChar

StartChar: guillemotright
Encoding: 187 187 119
Width: 840
GlyphClass: 2
Flags: HW
LayerCount: 2
Fore
SplineSet
300 504 m 0
 300 610.959960938 191.9453125 758.6953125 197 865 c 0
 197.708984375 879.908203125 224.142578125 887.7421875 230 880 c 0
 311.142578125 772.7421875 431 649.588867188 431 510 c 0
 431 415.15234375 162.473632812 130 64 130 c 0
 57.9169921875 130 56 133 52 137 c 1
 51 137 l 1
 105.236328125 258.77734375 300 369.557617188 300 504 c 0
612 505 m 0
 612 636.939453125 482.958007812 784.994140625 477 916 c 0
 476.5 926.993164062 502.573242188 938.052734375 510 929 c 0
 607.573242188 810.052734375 674 648 754 510 c 1
 397 144 l 2
 373 120 352.411132812 80 323 80 c 0
 315.928710938 80 313 83 309 87 c 1
 389.077148438 233.548828125 612 335.9453125 612 505 c 0
EndSplineSet
EndChar

StartChar: ellipsis
Encoding: 8230 8230 120
Width: 1571
GlyphClass: 2
Flags: HW
LayerCount: 2
Fore
SplineSet
1150 130 m 0
 1150 221 1214 264 1278 264 c 0
 1344 264 1407 221 1407 130 c 0
 1407 40 1344 -3 1278 -3 c 0
 1214 -3 1150 40 1150 130 c 0
631 130 m 0
 631 221 695 264 759 264 c 0
 825 264 888 221 888 130 c 0
 888 40 825 -3 759 -3 c 0
 695 -3 631 40 631 130 c 0
112 130 m 0
 112 221 176 264 240 264 c 0
 306 264 369 221 369 130 c 0
 369 40 306 -3 240 -3 c 0
 176 -3 112 40 112 130 c 0
EndSplineSet
EndChar

StartChar: perthousand
Encoding: 8240 8240 121
Width: 800
GlyphClass: 2
Flags: HW
LayerCount: 2
Fore
SplineSet
841 1372 m 1
 637 962 333 512 106 98 c 0
 79 49 49.169921875 -10.55859375 14 -49 c 0
 6.169921875 -57.55859375 -10 -52 -23 -52 c 2
 -33 -52 l 1
 -29 0 -6 50 24 101 c 2
 601 1081 l 2
 643 1153 723.3984375 1385 791 1385 c 0
 812.0234375 1385 827 1380 841 1372 c 1
EndSplineSet
EndChar

StartChar: questiondown
Encoding: 191 191 122
Width: 683
GlyphClass: 2
Flags: HW
LayerCount: 2
Fore
SplineSet
587 944 m 1
 568.0703125 941.16015625 521 948.109375 521 918 c 2
 521 901 l 1
 538 901 l 2
 547 901 552 909 553 910 c 2
 587 944 l 1
666 1181 m 0
 666 1086 607 1034 531 1034 c 0
 488 1034 455 1068 455 1107 c 0
 455 1181 532 1236 598 1236 c 0
 636 1236 666 1206 666 1181 c 0
464 883 m 1
 530 879 l 1
 451 530 l 1
 446 529 438 529 429 529 c 2
 315 529 l 2
 203 529 127 402 127 297 c 0
 127 229 152 111 262 111 c 0
 296 111 337 129 361 129 c 0
 404 129 428 103 428 77 c 0
 428 51 389 -4 256 -4 c 0
 78 -4 35 159 35 263 c 0
 35 424 105 666 383 666 c 2
 413 666 l 1
 464 883 l 1
EndSplineSet
EndChar

StartChar: grave
Encoding: 96 96 123
Width: 552
GlyphClass: 2
Flags: HW
LayerCount: 2
Fore
SplineSet
122 1454 m 1
 120 1454 l 1
 113 1461 112 1466 112 1475 c 0
 112 1507 157 1553 194 1553 c 0
 209 1553 223 1547 233 1528 c 0
 279 1442 383.000976562 1253.45605469 440 1146 c 0
 444.01171875 1138.43652344 444 1133 444 1128 c 0
 444 1118 438 1114 433 1114 c 0
 428 1114 418 1116 408 1128 c 0
 353 1188 205 1361 122 1454 c 1
EndSplineSet
EndChar

StartChar: acute
Encoding: 180 180 124
Width: 566
GlyphClass: 2
Flags: HW
LayerCount: 2
Fore
SplineSet
498 1453 m 0
 414 1360 267 1187 213 1128 c 0
 203 1117 190 1113 187 1113 c 0
 182 1113 176 1117 176 1127 c 0
 176 1131 178 1140 179 1144 c 0
 238 1255 339 1440 386 1527 c 0
 396 1546 408 1552 424 1552 c 0
 461 1552 506 1506 506 1474 c 0
 506 1465 505 1460 498 1453 c 0
EndSplineSet
EndChar

StartChar: circumflex
Encoding: 710 710 125
Width: 825
GlyphClass: 2
Flags: HW
LayerCount: 2
Fore
SplineSet
714 1085 m 1
 670.48046875 1118.57226562 523.729492188 1333.21191406 495 1375 c 1
 481 1363 l 1
 481 1362 l 1
 442 1328 228 1136 166 1092 c 1
 218 1168 426 1461 452 1496 c 0
 475 1526 509 1553 538 1553 c 0
 566 1553 584 1529 594 1500 c 0
 607 1462 711 1109 714 1085 c 1
EndSplineSet
EndChar

StartChar: tilde
Encoding: 732 732 126
Width: 864
GlyphClass: 2
Flags: HW
LayerCount: 2
Fore
SplineSet
177 1148 m 1
 174 1148 l 1
 213 1293 279 1347 360 1347 c 0
 462 1347 556 1237 649 1237 c 0
 701 1237 742 1279 769 1345 c 1
 774 1345 l 1
 737 1202 667 1138 585 1138 c 0
 483 1138 382 1254 291 1254 c 0
 238 1254 201 1205 177 1148 c 1
EndSplineSet
EndChar

StartChar: macron
Encoding: 175 175 127
Width: 945
GlyphClass: 2
Flags: HW
LayerCount: 2
Fore
SplineSet
769 1319 m 1
 202 1319 l 1
 221 1413 l 1
 788 1413 l 1
 769 1319 l 1
EndSplineSet
EndChar

StartChar: breve
Encoding: 728 728 128
Width: 701
GlyphClass: 2
Flags: HW
LayerCount: 2
Fore
SplineSet
146 897 m 1
 176 896 l 1
 203 812 267 780 355 780 c 0
 438 780 531 811 578 896 c 1
 604 896 l 1
 568 763 466 683 328 683 c 0
 200 683 143 742 143 848 c 0
 143 863 144 881 146 897 c 1
EndSplineSet
EndChar

StartChar: dotaccent
Encoding: 729 729 129
Width: 443
GlyphClass: 2
Flags: HW
LayerCount: 2
Fore
SplineSet
258 883 m 0
 302 883 330 853 330 813 c 0
 330 753 269 699 211 699 c 0
 169 699 140 727 140 768 c 0
 140 827 200 883 258 883 c 0
EndSplineSet
EndChar

StartChar: dieresis
Encoding: 168 168 130
Width: 919
GlyphClass: 2
Flags: HW
LayerCount: 2
Fore
SplineSet
736 1284 m 0
 780 1284 808 1254 808 1214 c 0
 808 1154 748 1100 690 1100 c 0
 647 1100 619 1128 619 1168 c 0
 619 1228 678 1284 736 1284 c 0
297 1284 m 0
 340 1284 368 1254 368 1214 c 0
 368 1154 308 1100 251 1100 c 0
 206 1100 179 1128 179 1168 c 0
 179 1228 237 1284 297 1284 c 0
EndSplineSet
EndChar

StartChar: ring
Encoding: 730 730 131
Width: 635
GlyphClass: 2
Flags: HW
LayerCount: 2
Fore
SplineSet
402 1477 m 0
 488 1477 544 1418 544 1341 c 0
 544 1233 432 1127 321 1127 c 0
 235 1127 179 1184 179 1262 c 0
 179 1372 287 1477 402 1477 c 0
386 1438 m 0
 299 1438 223 1361 223 1278 c 0
 223 1216 270 1167 337 1167 c 0
 420 1167 501 1241 501 1325 c 0
 501 1387 454 1438 386 1438 c 0
EndSplineSet
EndChar

StartChar: cedilla
Encoding: 184 184 132
Width: 610
GlyphClass: 2
Flags: HW
LayerCount: 2
Fore
SplineSet
320 -108 m 1
 413.891601562 -120.518554688 453 -160.15625 453 -216 c 0
 453 -330 325 -407 199 -407 c 0
 162 -407 127 -399 91 -384 c 1
 102 -359 l 1
 126 -369 147 -372 170 -372 c 0
 243 -372 317 -322 317 -245 c 0
 317 -180 256 -156 194 -149 c 1
 263 -6 l 1
 319 -6 l 1
 320 -4 l 1
 320 -108 l 1
EndSplineSet
EndChar

StartChar: hungarumlaut
Encoding: 733 733 133
Width: 833
GlyphClass: 2
Flags: HW
LayerCount: 2
Fore
SplineSet
478 1022 m 1
 478 1023 l 1
 477 1022 l 1
 478 1022 l 1
782 1023 m 1
 782 1022 l 1
 722 946 510.547851562 659 451 659 c 0
 447.837890625 659 446 661 445 661 c 1
 476 724 612.779296875 1053 674 1053 c 0
 715.048828125 1053 750 1039 782 1023 c 1
477 1022 m 1
 416 949 177 703 125 661 c 1
 121 661 l 1
 156 732 296.243164062 1053 370 1053 c 0
 411.048828125 1053 446 1039 477 1022 c 1
EndSplineSet
EndChar

StartChar: ogonek
Encoding: 731 731 134
Width: 581
GlyphClass: 2
Flags: HW
LayerCount: 2
Fore
SplineSet
108 -192 m 1
 109 -193 l 1
 130 -91 210 -31 303 -4 c 1
 268 -46 213 -86 213 -168 c 0
 213 -247 285 -282 354 -282 c 0
 389 -282 426 -272 456 -261 c 1
 453 -304 l 1
 381 -338 335 -355 265 -355 c 0
 173 -355 104 -309 104 -228 c 0
 104 -217 105 -205 108 -192 c 1
EndSplineSet
EndChar

StartChar: caron
Encoding: 711 711 135
Width: 706
GlyphClass: 2
Flags: HW
LayerCount: 2
Fore
SplineSet
359 774 m 1
 431.997070312 846.997070312 566.522460938 985.006835938 646 1034 c 1
 653 1034 l 1
 576 914 481 801 395 689 c 1
 395 688 l 1
 353 677 299.379882812 649.959960938 271 669 c 0
 220.379882812 702.959960938 157 951 140 1031 c 1
 145 1033 149 1034 153 1034 c 0
 231.739257812 1034 310.958984375 838.053710938 359 774 c 1
EndSplineSet
EndChar

StartChar: emdash
Encoding: 8212 8212 136
Width: 1785
GlyphClass: 2
Flags: HW
LayerCount: 2
Fore
SplineSet
130 488 m 1
 247 506 358 508 472 508 c 2
 1628 508 l 1
 1649 499 1656 489 1656 470 c 1
 1542 452 1429 452 1315 452 c 2
 159 452 l 2
 142 452 131 467 130 488 c 1
EndSplineSet
EndChar

StartChar: AE
Encoding: 198 198 137
Width: 1887
GlyphClass: 2
Flags: HW
LayerCount: 2
Fore
SplineSet
642 555 m 1
 974 555 l 1
 1181 1063 l 1
 1119 1063 l 1
 642 555 l 1
958 1064 m 1
 956 1066 l 1
 956 1113 900 1135 842 1139 c 1
 858 1208 l 1
 1995 1208 l 1
 1934 929 l 2
 1932 922 1898 894 1869 894 c 0
 1849 894 1838 901 1837 918 c 0
 1829 1051 1824 1140 1717 1140 c 2
 1422 1140 l 2
 1397 1140 1366 1130 1342 1069 c 2
 1204 722 l 1
 1489 722 l 2
 1599 722 1625.61523438 838 1657 838 c 2
 1719 838 l 1
 1635 508 l 1
 1581 508 l 1
 1577 546 1561 661 1483 661 c 2
 1181 661 l 1
 993 184 l 2
 985 163 984 150 983 140 c 1
 983 138 l 2
 983 103 1014 100 1027 100 c 2
 1332 100 l 2
 1469 100 1559 185 1610 306 c 0
 1618 325 1667 348 1702 348 c 0
 1726 348 1734 339 1734 329 c 0
 1734 326 1733 323 1733 323 c 1
 1606 29 l 1
 639 29 l 1
 672 99 l 1
 737 100 799.345703125 116.345703125 844 232 c 2
 944 491 l 1
 571 491 l 1
 327 231 l 2
 306 208 280 188 280 155 c 0
 280 113 324 101 393 99 c 1
 374 28 l 1
 -110 28 l 1
 -84 98 l 1
 -16 99 53.0126953125 114.84765625 158 222 c 2
 934 1014 l 2
 949 1030 958 1046 958 1064 c 1
EndSplineSet
EndChar

StartChar: ordfeminine
Encoding: 170 170 138
Width: 1007
GlyphClass: 2
Flags: HW
LayerCount: 2
Fore
SplineSet
931 791 m 1
 888.368164062 719.946289062 785.268554688 592 688 592 c 0
 673 592 596 603 596 714 c 0
 596 721 596 727 597 734 c 2
 607 817 l 1
 566 746 l 2
 508 646 419 594 339 594 c 0
 243 594 152 664 152 834 c 0
 152 1039 298 1239 489 1239 c 0
 580 1239 635 1199 652 1116 c 2
 665 1051 l 1
 709 1190 l 2
 715 1209 726 1219 746 1219 c 0
 779 1219 803 1195 803 1167 c 0
 803 1162 802 1156 800 1149 c 2
 733 941 l 2
 711 873 688 802 688 750 c 0
 688 714 697 674 739 674 c 0
 799 674 872 782 899 818 c 1
 931 791 l 1
262 835 m 0
 262 723.216796875 305.20703125 647 380 647 c 0
 515 647 646 852 646 1030 c 0
 646 1132 589 1202 516 1202 c 0
 400 1202 262 1041 262 835 c 0
EndSplineSet
EndChar

StartChar: Lslash
Encoding: 321 321 139
Width: 956
GlyphClass: 2
Flags: HMW
HStem: 27 70 1137 70
LayerCount: 2
Fore
SplineSet
848 319 m 1
 846 318 l 1
 884 318 921 316 935 313 c 1
 828 25 l 1
 -38 25 l 2
 -41 25 -45 25 -45 43 c 0
 -45 69 -30.4716796875 95 -26 95 c 0
 50 95 133.4609375 102.669921875 161 228 c 2
 210 451 l 1
 44 451 l 2
 28 451 16 468 16 489 c 1
 86 504 153 506 222 506 c 1
 335 1016 l 2
 336 1025 337 1033 337 1042 c 0
 337 1103 288.6328125 1131.21191406 190 1136 c 0
 185.6328125 1136.21191406 186 1148 186 1164 c 0
 186 1194 195 1206 201 1206 c 2
 676 1206 l 1
 656 1136 l 1
 587 1135 517 1121 492 1004 c 2
 384 506 l 1
 790 506 l 1
 814 495 821 487 821 469 c 0
 821 451 679 451 656 451 c 2
 372 451 l 1
 308 157 l 2
 307 151 307 145 307 142 c 0
 307 107 335 97 352 97 c 2
 543 97 l 2
 690 97 780 182 815 305 c 1
 815 307 l 1
 816 310 830 319 848 319 c 1
EndSplineSet
EndChar

StartChar: Oslash
Encoding: 216 216 140
Width: 1197
GlyphClass: 2
Flags: HW
LayerCount: 2
Fore
SplineSet
400 132 m 1
 437.337890625 102.129882812 485.244140625 84 542 84 c 2
 543 84 l 2
 794 84 959 447 959 730 c 0
 959 839.89453125 933.389648438 929.28515625 891 1007 c 1
 735.134765625 717.5078125 555.31640625 418.153320312 400 132 c 1
842 1101 m 1
 799.37109375 1143.62890625 738.422851562 1168 667 1168 c 0
 430 1168 274 799 274 516 c 0
 274 396.029296875 302.278320312 293.58203125 354 216 c 1
 811 1038 l 1
 842 1101 l 1
662 1254 m 0
 745.118164062 1254 817.634765625 1228.68261719 889 1193 c 1
 922.096679688 1259.19335938 967.12890625 1326.07617188 996 1343 c 1
 1004.26757812 1334.73242188 1038.83789062 1333.39453125 1047 1329 c 1
 1017.45507812 1267.87207031 988.987304688 1203.97949219 953 1144 c 1
 957 1140 l 1
 1073 1044 1151 889 1151 689 c 0
 1151 349 893 -23 556 -23 c 0
 486.720703125 -23 413.291992188 -1.52734375 354 38 c 1
 326.35546875 -17.2880859375 292.829101562 -82.55859375 254 -127 c 0
 246.34765625 -135.758789062 230 -130 217 -130 c 2
 207 -130 l 1
 211 -76 234 -24 264 28 c 2
 297 85 l 1
 173.599609375 183.720703125 88 353.716796875 88 550 c 0
 88 907 335 1254 662 1254 c 0
EndSplineSet
EndChar

StartChar: OE
Encoding: 338 338 141
Width: 1811
GlyphClass: 2
Flags: HW
LayerCount: 2
Fore
SplineSet
611 115 m 2
 796 115 l 1
 1017 1131 l 1
 862 1131 l 2
 436 1131 263 783 263 506 c 0
 263 294 374 115 611 115 c 2
1733 314 m 1
 1730 311 l 1
 1652 26 l 1
 574 26 l 2
 261 26 82 251 82 558 c 0
 82 884 317 1206 857 1206 c 2
 1842 1206 l 1
 1829 927 l 2
 1828 921 1802 895 1773 895 c 0
 1754 895 1738 903 1734 921 c 0
 1702 1053 1684 1136 1579 1136 c 2
 1276 1136 l 2
 1252 1136 1219.09667969 1124.76367188 1205 1062 c 2
 1121 688 l 1
 1406 688 l 2
 1515 688 1541.61523438 804 1573 804 c 2
 1635 804 l 1
 1550 474 l 1
 1496 474 l 1
 1492 512 1476 627 1399 627 c 2
 1107 627 l 1
 1007 178 l 2
 1004 166 1003 155 1003 147 c 0
 1003 104 1033 97 1052 97 c 2
 1365 97 l 2
 1501 97 1579 182 1610 302 c 0
 1614 318 1656 341 1693 341 c 0
 1722 341 1733 329 1733 314 c 1
EndSplineSet
EndChar

StartChar: ordmasculine
Encoding: 186 186 142
Width: 860
GlyphClass: 2
Flags: HW
LayerCount: 2
Fore
SplineSet
494 1203 m 0
 366 1203 262 978 262 818 c 0
 262 713 306 625 421 625 c 0
 551 625 652 845 652 1006 c 0
 652 1105 609 1203 494 1203 c 0
436 591 m 0
 279 591 147 727 147 889 c 0
 147 1072 291 1238 473 1238 c 0
 641 1238 765 1123 765 932 c 0
 765 751 620 591 436 591 c 0
EndSplineSet
EndChar

StartChar: ae
Encoding: 230 230 143
Width: 1404
GlyphClass: 2
Flags: HW
LayerCount: 2
Fore
SplineSet
798 454 m 0
 798 441.346679688 801.783203125 420.990234375 809 408 c 1
 819 408 l 2
 907 408 1159 430 1159 587 c 0
 1159 694 1073 702 1021 702 c 0
 906 702 798 575 798 454 c 0
249 251 m 1
 258 203 293 100 370 100 c 0
 541 100 624 326 624 483 c 0
 624 529 594 707 469 707 c 0
 306 707 244 483 244 330 c 0
 244 302 247 275 249 252 c 1
 249 251 l 1
628 166 m 1
 566.248046875 88.8095703125 474.29296875 -11 365 -11 c 0
 218 -11 94 128 70 271 c 1
 70 272 l 1
 71 271 l 1
 66 291 65 311 65 333 c 0
 65 560 257 777 471 777 c 0
 535 777 591 710 663 710 c 0
 725 710 718 778 752 778 c 0
 801.173828125 778 825.977539062 710 862 710 c 0
 927 710 1024 776 1079 776 c 0
 1205 776 1317 705 1317 567 c 0
 1317 355.443359375 967.55859375 312.444335938 790 302 c 1
 808.8359375 132.478515625 850.5234375 101 978 101 c 0
 1136 101 1187 253 1260 253 c 0
 1282 253 1299 240.069335938 1299 211 c 0
 1299 66.96875 1113 -12 961 -12 c 0
 824.591796875 -12 730.840820312 55.248046875 628 166 c 1
EndSplineSet
EndChar

StartChar: dotlessi
Encoding: 305 305 144
Width: 683
GlyphClass: 2
Flags: HW
LayerCount: 2
Fore
SplineSet
653 240 m 0
 653 152 434 -26 329 -26 c 0
 227 -26 155 42 155 156 c 0
 155 282 229 417 265 527 c 0
 288 596 325 669 325 716 c 0
 325 745 313 774 278 774 c 0
 165 774 109 607 86 607 c 0
 69 607 35 635.963867188 35 650 c 0
 35 782.412109375 198 886 344 886 c 0
 349 886 385 885 394 885 c 0
 463.5703125 885 506 787 506 729 c 0
 506 624 422.407226562 452.529296875 368 282 c 0
 355.407226562 242.529296875 331 202 331 153 c 0
 331 88 362 79 387 79 c 0
 511 79 565 278 597 278 c 0
 617 278 653 250 653 240 c 0
EndSplineSet
EndChar

StartChar: lslash
Encoding: 322 322 145
Width: 630
GlyphClass: 2
Flags: HW
LayerCount: 2
Fore
SplineSet
51 613 m 1
 53 612 l 1
 50 611 47 610 44 610 c 0
 32 610 18 621 12 637 c 1
 74 683 139 710 205 740 c 2
 284 776 l 1
 388 1212 l 1
 226 1212 l 2
 200 1212 198 1218 198 1224 c 0
 198 1242 216 1292 226 1293 c 2
 500 1329 l 2
 507 1330 512 1330 519 1330 c 0
 548 1330 553 1325 553 1296 c 0
 553 1277 547 1250 538 1215 c 2
 447 867 l 1
 686 969 l 1
 712.05078125 967.958007812 740.614257812 956.774414062 730 942 c 0
 701.666992188 902.564453125 633.28515625 885.618164062 582 862 c 2
 430 792 l 1
 305 257 l 2
 297 223 291 194 291 168 c 0
 291 128 304 89 339 89 c 0
 376 89 414.087890625 131.16015625 462 208 c 2
 515 293 l 1
 580 248 l 1
 519 159 l 1
 462 70 385 -21 280 -21 c 0
 187 -21 132 65 132 165 c 0
 132 235 158 306 178 381 c 2
 266 706 l 1
 51 613 l 1
EndSplineSet
EndChar

StartChar: oslash
Encoding: 248 248 146
Width: 959
GlyphClass: 2
Flags: HW
LayerCount: 2
Fore
SplineSet
496 924 m 0
 557.330078125 924 615.747070312 910.626953125 665 886 c 1
 707.396484375 970.793945312 796.166015625 1154.09570312 850 1185 c 1
 850 1184 l 1
 871 1183 887 1178 900 1171 c 1
 848.483398438 1063.92675781 792.807617188 952.012695312 728 844 c 1
 828.01171875 763.991210938 894 646.749023438 894 476 c 0
 894 213 689 -19 450 -19 c 0
 391.728515625 -19 337.81640625 -1.908203125 288 23 c 1
 233.879882812 -85.2412109375 176.928710938 -195.831054688 106 -285 c 0
 98.626953125 -294.26953125 82 -288 69 -288 c 2
 59 -288 l 1
 62 -236 86 -187 116 -135 c 2
 230 65 l 1
 127.517578125 146.986328125 57 272.654296875 57 418 c 0
 57 684 258 924 496 924 c 0
683 741 m 1
 564.091796875 520.270507812 436.671875 296.052734375 320 77 c 1
 348.065429688 54.5478515625 386.26953125 42 433 42 c 1
 432 43 l 1
 592 43 725 342 725 565 c 0
 725 631.17578125 709.927734375 691.631835938 683 741 c 1
635 820 m 1
 607.10546875 842.31640625 569.497070312 856 525 856 c 0
 369 856 231 548 231 328 c 0
 231 257.90234375 246.44140625 200.69140625 273 152 c 1
 635 820 l 1
EndSplineSet
EndChar

StartChar: oe
Encoding: 339 339 147
Width: 1549
GlyphClass: 2
Flags: HW
LayerCount: 2
Fore
SplineSet
884 421 m 1
 898.241210938 420.110351562 902.329101562 419 921 419 c 1
 922 420 l 1
 1035 420 1312 499 1312 678 c 0
 1312 763 1254 835 1184 835 c 0
 990.58984375 835 893.676757812 585.506835938 884 421 c 1
444 38 m 2
 445 38 l 2
 600 38 719 338 719 560 c 0
 719 695 674 828 543 828 c 0
 378 828 235 520 235 300 c 0
 235 155 294 38 444 38 c 2
1480 639 m 0
 1480 392.295898438 1054.04296875 358.690429688 883 348 c 1
 883 332 l 2
 883 327 882 319 882 310 c 0
 882 198 966 75 1090 75 c 0
 1247.41113281 75 1336.61523438 179.872070312 1416 279 c 1
 1435 269 1466 249 1484 237 c 1
 1387 101 1245 -24 1071 -24 c 0
 955 -24 848 35 782 128 c 2
 770 145 l 1
 757 129 l 1
 678 36 569 -23 446 -23 c 0
 241 -23 64 168 64 398 c 0
 64 656 265 889 515 889 c 0
 644 889 753 832 820 731 c 2
 832 713 l 1
 846 729 l 2
 933 828 1056 890 1194 890 c 0
 1324 890 1480 811 1480 639 c 0
EndSplineSet
EndChar

StartChar: germandbls
Encoding: 223 223 148
Width: 1100
GlyphClass: 2
Flags: HW
LayerCount: 2
Fore
SplineSet
715 694 m 1
 924.854492188 664.020507812 1044 535.173828125 1044 363 c 0
 1044 203 900 -17 683 -17 c 0
 573 -17 520 31 520 82 c 0
 520 131 557 169 596 169 c 0
 627 169 630 157 630 130 c 2
 630 107 l 2
 630 71 637 21 703 21 c 0
 775 21 851 158 851 361 c 0
 851 545 736 639 573 689 c 1
 576 699 583.434570312 717.23828125 589 718 c 0
 751.434570312 740.23828125 858 864 858 1032 c 0
 858 1138 780 1195 690 1195 c 0
 507 1195 457 992 424 841 c 2
 290 226 l 2
 287 213 285 201 285 189 c 0
 285 115 355.33984375 107.786132812 432 104 c 0
 436.33984375 103.786132812 436 92 436 76 c 0
 436 46 427 34 422 34 c 2
 -65 34 l 2
 -68 34 -72 34 -72 51 c 0
 -72 79 -56.123046875 104 -52 104 c 0
 25 104 102 113 130 239 c 2
 251 785 l 1
 301 1031 471 1254 712 1254 c 0
 899 1254 1018 1169 1018 1043 c 0
 1018 864.431640625 878.602539062 778.534179688 715 724 c 1
 715 694 l 1
EndSplineSet
EndChar

StartChar: onesuperior
Encoding: 185 185 149
Width: 573
GlyphClass: 2
Flags: HW
LayerCount: 2
Fore
SplineSet
239 707 m 2
 321 1072 l 2
 322 1077 323 1082 323 1087 c 0
 323 1143 246 1159 213 1167 c 1
 216 1182 l 1
 462 1214 l 1
 346 699 l 2
 344 690 342 681 342 670 c 2
 342 668 l 1
 348 625 387 604 455 601 c 1
 446 554 l 1
 90 554 l 1
 104 600 l 1
 160 601 218.265625 614.706054688 239 707 c 2
EndSplineSet
EndChar

StartChar: logicalnot
Encoding: 172 172 150
Width: 1296
GlyphClass: 2
Flags: HW
LayerCount: 2
Fore
SplineSet
148 876 m 2
 313 875 l 2
 362 875 411 874 460 874 c 0
 656 874 852 877 1047 877 c 0
 1085 877 1126 874 1160 870 c 1
 1154 789 1138 706 1121 623 c 2
 1076 406 l 2
 1068 368 1064.38378906 303 1029 303 c 0
 994.94140625 303 971 318 937 327 c 1
 1028 759 l 1
 194 759 l 2
 156 759 98 752.387695312 98 778 c 0
 98 815.642578125 109.051757812 876.236328125 148 876 c 2
EndSplineSet
EndChar

StartChar: mu
Encoding: 181 181 151
AltUni2: 0003bc.ffffffff.0
Width: 1437
GlyphClass: 2
Flags: HW
LayerCount: 2
Fore
SplineSet
516 741 m 0
 516 557.638671875 347 340.729492188 347 183 c 0
 347 179 344 104 399 104 c 0
 504 104 755.567382812 496.2578125 865 650 c 0
 918.567382812 725.2578125 994 865 1085 865 c 0
 1146 865 1164 822 1164 774 c 0
 1164 750 1160 726 1154 705 c 2
 1020 240 l 2
 1015 222 1004 183 1004 150 c 0
 1004 119 1013 93 1045 93 c 0
 1097 93 1135 137 1201 229 c 2
 1259 310 l 1
 1316 264 l 1
 1259 185 l 2
 1173 66 1100 -19 974 -19 c 0
 885 -19 840 50 840 130 c 0
 840 273 895 433 942 556 c 2
 967 622 l 1
 951 630 l 1
 822.986328125 436.25 589.78125 -19 338 -19 c 0
 275.556640625 -19 216.5 35.75 206.641601562 140.469726562 c 1
 171.747070312 -48.5341796875 119.548828125 -215.5 36 -215.5 c 0
 8 -215.5 7 -211.5 7 -181.5 c 0
 7 -141.5 30 -77.5 47 -33.5 c 1
 108.305664062 113.006835938 171.927734375 268.923828125 231.775390625 409.5078125 c 0
 281.96484375 529.787109375 345 646.55078125 345 726 c 0
 345 755 327 778 295 778 c 0
 211 778 146 618 86 539 c 1
 86 539 38 573 35 585 c 0
 35 588 36 593 36 594 c 0
 99 719 228 891 376 891 c 0
 454 891 516 844 516 741 c 0
EndSplineSet
EndChar

StartChar: trademark
Encoding: 8482 8482 152
Width: 1928
GlyphClass: 2
Flags: HW
LayerCount: 2
Fore
SplineSet
112 1145 m 1
 155 1284 l 1
 185 1282 216 1274 232 1274 c 2
 738 1274 l 1
 801 1282 l 1
 787 1126 l 1
 756 1227 752 1259 609 1259 c 2
 531 1259 l 1
 409 688 l 2
 401 651 399 626 398 611 c 1
 398 609 l 2
 398 546 454 561 493 546 c 1
 154 546 l 1
 224 575 257 527 290 682 c 2
 412 1260 l 1
 391 1260 l 2
 371 1260 348 1261 324 1261 c 0
 237 1261 162 1215 112 1145 c 1
920 1272 m 1
 1143 1274 l 1
 1305 680 l 1
 1690 1274 l 1
 1909 1274 l 1
 1830 1253 1802.36035156 1272.33007812 1776 1141 c 0
 1746.36035156 993.330078125 1677 748.057617188 1677 608 c 0
 1677 561 1720 551 1750 546 c 1
 1441 546 l 1
 1513 566 1544.26074219 542.732421875 1570 667 c 2
 1692 1256 l 1
 1229 545 l 1
 1218 545 l 1
 1053 1149 l 1
 1022 1149 l 1
 923 687 l 2
 917 658 915 637 915 620 c 0
 915 557 960 555 1003 546 c 1
 769 546 l 1
 849 568 876 543 906 682 c 2
 1005 1143 l 2
 1011 1172 1013 1192 1013 1207 c 0
 1013 1263 966 1258 920 1272 c 1
EndSplineSet
EndChar

StartChar: Eth
Encoding: 208 208 153
Width: 1255
GlyphClass: 2
Flags: HW
LayerCount: 2
Fore
SplineSet
386 438 m 1
 392.17578125 456.52734375 402.145507812 478 406 478 c 2
 813 478 l 1
 805 438 790.454101562 363 777 363 c 2
 372 363 l 1
 373 371 l 1
 341 377 l 1
 278 100 l 1
 574 100 l 2
 846 100 1036 496 1036 785 c 0
 1036 958 951 1149 716 1149 c 2
 634 1149 l 2
 548 1149 503.56640625 1129.9453125 484 1040 c 2
 355 447 l 1
 386 438 l 1
707 1206 m 1
 708 1209 l 1
 984 1209 1223 1020 1223 725 c 0
 1223 389 957 30 595 30 c 2
 -54 29 l 2
 -58 29 -61 29 -61 47 c 0
 -61 69 -51.0712890625 99 -44 99 c 0
 31 99 114.140625 106.739257812 142 231 c 2
 318 1016 l 2
 320 1027 321 1037 321 1047 c 0
 321 1126 242 1138 168 1138 c 0
 164 1138 161 1138 161 1156 c 0
 161 1184 177 1206 181 1206 c 2
 707 1206 l 1
EndSplineSet
EndChar

StartChar: onehalf
Encoding: 189 189 154
Width: 1598
GlyphClass: 2
Flags: HW
LayerCount: 2
Fore
SplineSet
185 707 m 2
 267 1072 l 2
 268 1077 269 1082 269 1087 c 0
 269 1143 192 1159 159 1167 c 1
 162 1182 l 1
 408 1214 l 1
 292 699 l 2
 290 690 288 681 288 670 c 2
 288 668 l 1
 294 625 333 604 401 601 c 1
 392 554 l 1
 36 554 l 1
 50 600 l 1
 106 601 164.265625 614.706054688 185 707 c 2
1148 1386 m 0
 1168.02539062 1386 1183 1381 1197 1373 c 1
 993 963 690 514 462 99 c 0
 434 48 406.169921875 -9.55859375 371 -48 c 0
 363.169921875 -56.55859375 347 -51 334 -51 c 2
 324 -51 l 1
 328 1 351 51 381 102 c 2
 958 1082 l 2
 1000 1154 1080.3984375 1386 1148 1386 c 0
1327 18 m 2
 876 19 l 2
 841 19 839 25 839 27 c 0
 839 37 859 62 887 84 c 2
 1174 303 l 2
 1202 324 1375 417 1375 523 c 0
 1375 609 1307 641 1248 641 c 0
 1159 641 1054 589 998 545 c 0
 987 536 980 535 977 535 c 0
 975 535 972 536 972 542 c 0
 972 544 976 554 989 568 c 0
 1054 641 1182 702 1301 702 c 0
 1418 702 1507 658 1507 541 c 0
 1507 397 1318 303 1188 217 c 2
 1053 128 l 1
 1072 100 l 1
 1338 100 l 2
 1437 100 1480 190 1503 194 c 1
 1500 185 1487.88476562 172.602539062 1480 160 c 2
 1358 -35 l 1
 1355 -24 1357 18 1327 18 c 2
EndSplineSet
EndChar

StartChar: plusminus
Encoding: 177 177 155
Width: 917
GlyphClass: 2
Flags: HW
LayerCount: 2
Fore
SplineSet
609 -55 m 1
 42 -55 l 1
 61 39 l 1
 628 39 l 1
 609 -55 l 1
34 605 m 1
 33 607 l 1
 88 623 164 627 238 627 c 0
 301 627 361 624 399 624 c 2
 413 624 l 1
 439.083984375 745.725585938 447.68359375 894.247070312 498 998 c 0
 505.298828125 1013.04980469 529 999 545 999 c 0
 558 999 574 999 585 998 c 1
 575 883 542 759 517 644 c 1
 513 623 l 1
 534 623 l 2
 589 623 645 624 702 624 c 0
 765 624 829 622 886 615 c 1
 883 585 889.463867188 539.399414062 867 528 c 0
 822.463867188 505.399414062 756 520 698 520 c 0
 633 520 567 522 505 522 c 2
 491 522 l 1
 464.669921875 399.126953125 452.954101562 254.491210938 404 148 c 0
 397.380859375 133.600585938 374 147 358 147 c 0
 345 147 329 148 318 149 c 1
 331.741210938 273.724609375 366.517578125 400.5859375 391 523 c 1
 53 523 l 1
 33 537 29 548 29 569 c 0
 29 578 31 592 34 605 c 1
EndSplineSet
EndChar

StartChar: Thorn
Encoding: 222 222 156
Width: 1053
GlyphClass: 2
Flags: HW
LayerCount: 2
Fore
SplineSet
491 1037 m 1
 971.631835938 1011.703125 1063 870.422851562 1063 730 c 0
 1063 596 925 426 538 426 c 0
 501 426 493 444 493 465 c 0
 493 482 504 496 521 496 c 0
 811 496 882 648 882 738 c 0
 882 824 811 980 492 980 c 2
 479 980 l 1
 313 217 l 2
 310 204 309 192 309 181 c 2
 309 180 l 1
 307 177 l 1
 313 122 363.37109375 99.8369140625 466 96 c 0
 470.37109375 95.8369140625 470 84 470 68 c 0
 470 38 461 26 456 26 c 2
 -60 26 l 2
 -63 26 -67 26 -67 44 c 0
 -67 72 -51.123046875 97 -47 97 c 0
 33 97 123.111328125 103.018554688 151 229 c 2
 325 1015 l 2
 328 1026 329 1037 329 1047 c 0
 329 1133 230 1136 164 1136 c 2
 149 1136 l 2
 146 1136 145 1138 145 1164 c 0
 145 1194 154 1206 160 1206 c 2
 530 1206 l 1
 491 1037 l 1
EndSplineSet
EndChar

StartChar: onequarter
Encoding: 188 188 157
Width: 1511
GlyphClass: 2
Flags: HW
LayerCount: 2
Fore
SplineSet
1263 615 m 1
 833 187 l 1
 1153 187 l 1
 1263 615 l 1
178 707 m 2
 260 1072 l 2
 261 1077 262 1082 262 1087 c 0
 262 1143 185 1159 152 1167 c 1
 155 1182 l 1
 401 1214 l 1
 285 699 l 2
 283 690 281 681 281 670 c 2
 281 668 l 1
 287 625 326 604 394 601 c 1
 385 554 l 1
 29 554 l 1
 43 600 l 1
 99 601 157.265625 614.706054688 178 707 c 2
1064 1386 m 0
 1084.02539062 1386 1099 1381 1113 1373 c 1
 909 963 606 514 378 99 c 0
 350 48 322.169921875 -9.55859375 287 -48 c 0
 279.169921875 -56.55859375 263 -51 250 -51 c 2
 240 -51 l 1
 244 1 267 51 297 102 c 2
 874 1082 l 2
 916 1154 996.3984375 1386 1064 1386 c 0
1263 120 m 1
 1258.75390625 101.6015625 1219.23632812 -42.0263671875 1185 -211 c 1
 1056 -211 l 1
 1137 120 l 1
 990 118 l 1
 803 118 l 2
 764 118 756 133 756 142 c 0
 756 149 763 166 782 185 c 2
 1237 638 l 2
 1278 679 1274 682 1318 682 c 2
 1397 682 l 1
 1277 187 l 1
 1458 187 l 1
 1441 120 l 1
 1263 120 l 1
EndSplineSet
EndChar

StartChar: divide
Encoding: 247 247 158
Width: 998
GlyphClass: 2
Flags: HW
LayerCount: 2
Fore
SplineSet
121 565 m 1
 121 564 l 1
 75 564 9 555.588867188 9 585 c 0
 9 629.384765625 26.11328125 682 57 682 c 0
 337 682 600 683 893 683 c 0
 944 683 976 671 1004 659 c 1
 994 620 991.14453125 568 960 568 c 0
 676 568 408 565 121 565 c 1
453 345 m 2
 454 345 l 2
 500 345 531 309 531 265 c 0
 531 204 469 142 407 142 c 0
 361 142 332 175 332 220 c 0
 332 282 392 345 453 345 c 2
604 1109 m 2
 605 1109 l 2
 651 1109 681 1073 681 1028 c 0
 681 969 618 905 557 905 c 0
 512 905 481 938 481 981 c 0
 481 1043 542 1109 604 1109 c 2
EndSplineSet
EndChar

StartChar: brokenbar
Encoding: 166 166 159
Width: 457
GlyphClass: 2
Flags: HW
LayerCount: 2
Fore
SplineSet
342 1335 m 1
 343 1332 l 1
 360 1350 384 1357 405 1359 c 1
 409 1335 412 1317 412 1296 c 0
 412 1281 410 1266 406 1249 c 2
 299 747 l 1
 278 732 261 726 240 724 c 1
 239 737 239 746 239 758 c 0
 239 834 257 925 274 1006 c 2
 342 1335 l 1
26 -189 m 0
 26 10.6767578125 97.5849609375 207.10546875 147 399 c 0
 152.73828125 421.284179688 187 423 209 425 c 1
 212 409 214 392 214 373 c 0
 214 261 166 96 144 -14 c 0
 131 -76 137.245117188 -212 74 -212 c 0
 50.9130859375 -212 26 -212.853515625 26 -189 c 0
EndSplineSet
EndChar

StartChar: degree
Encoding: 176 176 160
Width: 675
GlyphClass: 2
Flags: HW
LayerCount: 2
Fore
SplineSet
589 1042 m 1
 588 1041 l 1
 591 1055 592 1068 592 1081 c 0
 592 1174 524 1250 422 1250 c 0
 291 1250 168 1132 168 1007 c 0
 168 911 240 838 341 838 c 0
 456 838 565 932 589 1042 c 1
605 1049 m 1
 606 1049 l 1
 580 926 457 821 331 821 c 0
 222 821 147 895 147 996 c 0
 147 1140 287 1271 430 1271 c 0
 537 1271 610 1196 610 1097 c 0
 610 1081 609 1065 605 1049 c 1
EndSplineSet
EndChar

StartChar: thorn
Encoding: 254 254 161
Width: 1051
GlyphClass: 2
Flags: HW
LayerCount: 2
Fore
SplineSet
517 1330 m 1
 516 1327 l 1
 543 1327 548 1322 548 1293 c 0
 548 1274 543 1247 535 1212 c 2
 460 885 l 1
 488 895 l 2
 536 912 586 920 632 920 c 0
 905 920 1019 780 1019 612 c 0
 1019 348 729 3 268 3 c 2
 256 3 l 1
 196 -216 l 2
 192 -229 191 -241 191 -250 c 0
 191 -368 349 -283 349 -347 c 0
 349 -375 336.090820312 -394 314 -394 c 2
 -155 -394 l 2
 -170 -394 -171 -391 -171 -385 c 0
 -171 -262 -1.318359375 -402.650390625 43 -214 c 2
 378 1212 l 1
 205 1212 l 2
 180 1212 178 1218 178 1224 c 0
 178 1242 195 1292 204 1293 c 2
 498 1329 l 2
 505 1330 510 1330 517 1330 c 1
292 95 m 1
 292 94 l 1
 604 94 833 385 833 591 c 0
 833 701 762 787 615 787 c 0
 562.076171875 787 460.963867188 821.205078125 446 764 c 2
 271 95 l 1
 292 95 l 1
EndSplineSet
EndChar

StartChar: threequarters
Encoding: 190 190 162
Width: 1980
GlyphClass: 2
Flags: HW
LayerCount: 2
Fore
SplineSet
1730 844 m 1
 1300 416 l 1
 1620 416 l 1
 1730 844 l 1
1469 1372 m 1
 1265 962 961 512 734 98 c 0
 707 49 677.169921875 -10.55859375 642 -49 c 0
 634.169921875 -57.55859375 618 -52 605 -52 c 2
 595 -52 l 1
 599 0 622 50 652 101 c 2
 1229 1081 l 2
 1271 1153 1351.3984375 1385 1419 1385 c 0
 1440.0234375 1385 1455 1380 1469 1372 c 1
170 354 m 1
 177.426757812 353.122070312 182.295898438 353 189 353 c 0
 327 353 412 475 412 586 c 0
 412 685 350 758 266 793 c 1
 354 852 499 943 499 1068 c 0
 499 1121 461 1175 384 1175 c 0
 320 1175 242 1136 196 1095 c 0
 180 1081 164 1076 154 1076 c 0
 143 1076 143 1079 143 1082 c 0
 143 1087 148 1100 164 1118 c 0
 235 1196 323 1238 433 1238 c 0
 541 1238 616 1182 616 1098 c 0
 616 1006 544 926 430 853 c 2
 402 835 l 1
 434 823 l 2
 523 789 566 718 566 634 c 0
 566 463 403 305 167 305 c 0
 26 305 -11 353 -11 380 c 0
 -11 409 11 434 43 434 c 0
 77 434 96 426 158 359 c 1
 162 347 l 1
 170 354 l 1
1729 349 m 1
 1724.75390625 330.6015625 1685.23632812 186.973632812 1651 18 c 1
 1522 18 l 1
 1603 349 l 1
 1456 347 l 1
 1269 347 l 2
 1230 347 1222 362 1222 371 c 0
 1222 378 1229 395 1248 414 c 2
 1703 867 l 2
 1744 908 1740 911 1784 911 c 2
 1863 911 l 1
 1743 416 l 1
 1924 416 l 1
 1907 349 l 1
 1729 349 l 1
EndSplineSet
EndChar

StartChar: twosuperior
Encoding: 178 178 163
Width: 830
GlyphClass: 2
Flags: HW
LayerCount: 2
Fore
SplineSet
553 554 m 2
 102 555 l 2
 67 555 65 561 65 563 c 0
 65 573 85 598 113 620 c 2
 400 839 l 2
 428 860 601 953 601 1059 c 0
 601 1145 533 1177 474 1177 c 0
 385 1177 280 1125 224 1081 c 0
 213 1072 206 1071 203 1071 c 0
 201 1071 198 1072 198 1078 c 0
 198 1080 202 1090 215 1104 c 0
 280 1177 408 1238 527 1238 c 0
 644 1238 733 1194 733 1077 c 0
 733 933 544 839 414 753 c 2
 279 664 l 1
 298 636 l 1
 564 636 l 2
 663 636 706 726 729 730 c 1
 726 721 713.884765625 708.602539062 706 696 c 2
 584 501 l 1
 581 512 583 554 553 554 c 2
EndSplineSet
EndChar

StartChar: registered
Encoding: 174 174 164
Width: 1551
GlyphClass: 2
Flags: HW
LayerCount: 2
Fore
SplineSet
894 257 m 1
 835.536132812 389.3125 774.563476562 520.026367188 734 662 c 1
 676 662 l 2
 798 662 995 689 995 895 c 0
 995 1004 895 1041 796 1041 c 0
 769.2578125 1041 722.198242188 1056.0625 715 1033 c 0
 648.671875 820.475585938 617.920898438 571.412109375 568 342 c 0
 567 337 566 331 566 324 c 0
 566 278 608 265 640 258 c 1
 352 258 l 1
 394 268 447.35546875 279.702148438 461 345 c 2
 587 948 l 2
 588 955 589 961 589 969 c 0
 589 1020 544 1039 514 1052 c 1
 856 1052 l 2
 977 1052 1115 1010 1115 897 c 0
 1115 755 978 692 856 669 c 2
 835 665 l 1
 844 645 l 2
 876 574 963.873046875 312.9765625 1039 269 c 0
 1045.87304688 264.9765625 1045 260 1047 257 c 1
 894 257 l 1
665 23 m 0
 1033.58691406 23 1399 347.870117188 1399 772 c 0
 1399 1057 1207 1265 895 1265 c 0
 505 1265 154 926 154 518 c 0
 154 230 349 23 665 23 c 0
1454 785 m 0
 1454 741.3125 1448.70214844 696.670898438 1439 650 c 0
 1360.84375 274.033203125 1006 -6 634 -6 c 0
 317 -6 96 212 96 509 c 0
 96 936 513 1297 915 1297 c 0
 1234 1297 1454 1083 1454 785 c 0
EndSplineSet
EndChar

StartChar: eth
Encoding: 240 240 165
Width: 945
GlyphClass: 2
Flags: HW
LayerCount: 2
Fore
SplineSet
616 234 m 0
 649.229492188 306.650390625 674 400.3828125 674 484 c 0
 674 589 632 686 513 686 c 0
 403 686 331 597 300 530 c 0
 260 445 217 324 217 221 c 0
 217 124 256 37 370 37 c 0
 493 37 572.453125 138.79296875 616 234 c 0
508 774 m 0
 609.241210938 774 661.861328125 726.194335938 712 656 c 1
 741 656 l 1
 741 692 l 2
 741 811.614257812 720.53515625 915.9296875 676 1005 c 1
 428 894 l 1
 428 896 l 1
 426 895 422 894 420 894 c 0
 409 894 397 905 390 921 c 1
 447 964 507 994 569 1021 c 2
 647 1055 l 1
 632 1073 l 2
 591 1123 539 1164 473 1197 c 0
 466 1200 465 1202 465 1205 c 0
 465 1217 487 1249 524 1249 c 0
 529 1249 534 1248 535 1248 c 2
 537 1248 l 1
 624.844726562 1221.21777344 668.64453125 1068.1171875 751 1102 c 2
 926 1174 l 1
 953 1173 981.26171875 1161.68164062 971 1148 c 0
 942.26171875 1109.68164062 875 1092 823 1070 c 2
 786 1054 l 1
 844.42578125 954.676757812 882 834.97265625 882 702 c 0
 882 412 687 -18 345 -18 c 0
 143 -18 47 108 47 261 c 0
 47 490 267 774 508 774 c 0
EndSplineSet
EndChar

StartChar: multiply
Encoding: 215 215 166
Width: 312
GlyphClass: 2
Flags: HW
LayerCount: 2
Fore
SplineSet
76 661 m 1
 74 668 72 678 72 687 c 0
 72 747 103 799 152 799 c 0
 224 799 266 769 266 683 c 0
 266 621 228 557 173 557 c 0
 125 557 83 613 76 659 c 1
 76 661 l 1
EndSplineSet
EndChar

StartChar: threesuperior
Encoding: 179 179 167
Width: 747
GlyphClass: 2
Flags: HW
LayerCount: 2
Fore
SplineSet
75 433 m 0
 111.545898438 433 127.6640625 413.642578125 194 354 c 0
 200.322265625 348.315429688 212.4296875 352 221 352 c 0
 359 352 444 474 444 585 c 0
 444 684 382 757 298 792 c 1
 386 851 531 942 531 1067 c 0
 531 1120 493 1174 416 1174 c 0
 352 1174 274 1135 228 1094 c 0
 212 1080 196 1075 186 1075 c 0
 175 1075 175 1078 175 1081 c 0
 175 1086 180 1099 196 1117 c 0
 267 1195 355 1237 465 1237 c 0
 573 1237 648 1181 648 1097 c 0
 648 1005 576 925 462 852 c 2
 434 834 l 1
 466 822 l 2
 555 788 598 717 598 633 c 0
 598 462 435 304 199 304 c 0
 58 304 21 352 21 379 c 0
 21 408 43 433 75 433 c 0
EndSplineSet
EndChar

StartChar: copyright
Encoding: 169 169 168
Width: 1554
GlyphClass: 2
Flags: HW
LayerCount: 2
Fore
SplineSet
1176 1065 m 1
 1151 858 l 1
 1125 990 1044 1074 885 1074 c 0
 661 1074 470 844 470 549 c 0
 470 370 572 267 748 267 c 0
 876 267 960 306 1053 369 c 1
 973 279 822 224 694 224 c 0
 478 224 339 355 339 550 c 0
 339 843 604.467773438 1081 876 1081 c 0
 984 1081 1041 1039 1098 1039 c 0
 1115 1039 1119.58398438 1065 1139 1065 c 2
 1176 1065 l 1
666 24 m 0
 1030.09375 24 1399 342.615234375 1399 771 c 0
 1399 1052 1214 1266 896 1266 c 0
 486 1266 155 904 155 520 c 0
 155 232 349 24 666 24 c 0
1455 789 m 0
 1455 319.77734375 1028.89746094 -5 635 -5 c 0
 331 -5 97 201 97 507 c 0
 97 952 529 1298 916 1298 c 0
 1220 1298 1455 1096 1455 789 c 0
EndSplineSet
EndChar

StartChar: Ecircumflex
Encoding: 202 202 177
Width: 1684
GlyphClass: 2
Flags: HW
LayerCount: 2
Fore
SplineSet
1594 503 m 2
 1611.41894531 503 1638 435.212890625 1638 408 c 0
 1638 401 1639.16210938 392.043945312 1636 392 c 2
 58 370 l 2
 28 369 16 425 16 451 c 0
 16 484 25 503 50 503 c 2
 1594 503 l 2
EndSplineSet
EndChar

StartChar: ff
Encoding: 64256 64256 226
Width: 1452
GlyphClass: 2
Flags: HW
LayerCount: 2
Fore
SplineSet
773 1165 m 1
 773 1166 l 1
 684 1166 645.764648438 976.059570312 629 909 c 2
 606 817 l 1
 964 817 l 1
 986 905 l 2
 995.365234375 942.458984375 1008.15332031 976.459960938 1020 1012 c 1
 1002 1017 l 2
 932 1036 864 1165 773 1165 c 1
615 -235 m 1
 615 -236 l 1
 743 -236 753.967773438 -79.484375 838 268 c 2
 949 727 l 5
 592 727 l 5
 492 319 l 2
 456.376953125 173.657226562 431 33 386 -76 c 2
 373 -107 l 1
 405 -99 l 2
 417 -96 429 -94 441 -94 c 0
 513 -94 539 -235 615 -235 c 1
1294 1169 m 1
 1295 1166 l 1
 1206 1166 1168.37109375 970.90625 1151 903 c 2
 1129 817 l 1
 1357 817 l 1
 1333 727 l 5
 1107 727 l 5
 1013 335 l 2
 931.615234375 -4.3916015625 913 -306 567 -306 c 0
 503 -306 380 -272 360 -181 c 2
 352 -144 l 1
 330 -174 l 2
 271 -253 191 -305 48 -305 c 0
 -23 -305 -171 -268 -171 -152 c 0
 -171 -114 -134 -93 -86 -93 c 0
 -12 -93 14 -234 92 -234 c 0
 220 -234 230.540039062 -74.3701171875 315 281 c 2
 421 727 l 5
 213 727 l 5
 236 817 l 1
 443 817 l 1
 463 898 l 2
 515.3828125 1110.15234375 616 1250 838 1250 c 0
 914 1250 1033 1227 1079 1153 c 2
 1090 1135 l 1
 1105 1151 l 2
 1164 1214 1245 1251 1361 1251 c 0
 1450 1251 1598 1216 1598 1078 c 0
 1598 1041 1569 1017 1521 1017 c 0
 1451 1017 1389 1169 1294 1169 c 1
EndSplineSet
LCarets2: 1 0 
Ligature2: "'liga' Standard Ligatures in Latin lookup 0-1" f f
EndChar

StartChar: ffi
Encoding: 64259 64259 227
Width: 1792
GlyphClass: 2
Flags: HW
LayerCount: 2
Fore
SplineSet
1002 1020 m 1
 931.453125 1045.9609375 857.588867188 1158 770 1158 c 1
 770 1159 l 1
 681 1159 642.602539062 977.966796875 626 914 c 2
 602 817 l 1
 943 817 l 1
 966 910 l 2
 975.870117188 949.911132812 988.131835938 985.330078125 1002 1020 c 1
596 -232 m 1
 594 -231 l 1
 723 -231 734.541015625 -74.619140625 818 273 c 2
 927 727 l 5
 587 727 l 5
 489 324 l 2
 453.927734375 179.7734375 427 42 383 -68 c 2
 372 -96 l 1
 401 -92 l 2
 406 -91 413 -91 420 -91 c 0
 493 -91 519 -232 596 -232 c 1
1087 1136 m 1
 1149.64746094 1198.64746094 1224.77148438 1239 1347 1239 c 0
 1448 1239 1610 1204.56640625 1610 1078 c 0
 1610 1041 1581 1017 1533 1017 c 0
 1452 1017 1383 1157 1281 1157 c 0
 1186 1157 1154.70605469 968.739257812 1136 904 c 2
 1112 817 l 1
 1620 817 l 1
 1629 710 l 1
 1485 257 l 2
 1474 224 1470 196 1470 171 c 0
 1470 131 1483 91 1523 91 c 0
 1564 91 1610 131 1662 209 c 2
 1719 295 l 1
 1784 250 l 1
 1723 161 l 2
 1662 72 1575 -20 1456 -20 c 0
 1360 -20 1307 64 1307 163 c 0
 1307 230 1332.35839844 298.56640625 1354 369 c 2
 1464 727 l 5
 1097 727 l 5
 998 322 l 2
 916.969726562 -9.4853515625 896 -304 550 -304 c 0
 491 -304 375 -273 347 -194 c 2
 337 -166 l 1
 319 -189 l 2
 263 -261 179 -304 44 -304 c 0
 -28 -304 -171 -264 -171 -151 c 0
 -171 -113 -134 -92 -86 -92 c 0
 -12 -92 14 -233 92 -233 c 0
 221 -233 232.116210938 -73.505859375 316 282 c 2
 421 727 l 5
 174 727 l 5
 198 817 l 1
 445 817 l 1
 465 899 l 2
 516.780273438 1104.06347656 619 1239 842 1239 c 0
 927.34375 1239 1034.00488281 1208.265625 1087 1136 c 1
EndSplineSet
LCarets2: 2 0 0 
Ligature2: "'liga' Standard Ligatures in Latin lookup 0-1" f f i
EndChar

StartChar: ffl
Encoding: 64260 64260 228
Width: 1867
GlyphClass: 2
Flags: HW
LayerCount: 2
Fore
SplineSet
775 1170 m 1
 686 1170 649.71484375 979.541015625 631 913 c 2
 604 817 l 1
 978 817 l 1
 1006 908 l 2
 1015.49316406 938.852539062 1025 968 1034 995 c 2
 1041 1015 l 1
 1020 1017 l 2
 968.04296875 1021.84960938 946 1170 775 1170 c 1
1394 1134 m 0
 1284 1134 1211.74902344 1064.99511719 1169 913 c 2
 1142 817 l 1
 1531 817 l 1
 1617 1125 l 1
 1540.64355469 1128.68457031 1470.45410156 1134 1394 1134 c 0
631 -231 m 2
 632 -231 l 2
 761 -231 773.990234375 -74.96484375 856 273 c 2
 963 727 l 1
 590 727 l 1
 494 324 l 2
 458.6484375 175.59765625 432 33 384 -78 c 2
 367 -118 l 1
 344 -154 l 2
 285 -245 198 -302 44 -302 c 0
 -28 -302 -171 -262 -171 -149 c 0
 -171 -111 -134 -90 -86 -90 c 0
 -12 -90 14 -231 92 -231 c 0
 221 -231 230.241210938 -71.05859375 316 284 c 2
 423 727 l 1
 215 727 l 1
 236 817 l 1
 444 817 l 1
 465 901 l 2
 518 1104.56835938 619 1239 842 1239 c 0
 920 1239 1042 1218.29394531 1085 1151 c 2
 1096 1131 l 1
 1112 1148 l 2
 1176 1205.83203125 1273 1239 1474 1239 c 1
 1474 1239 1792 1263.4765625 1792 1160 c 4
 1792 1141.94628906 1758.79101562 1022.38574219 1554 259 c 0
 1545 226 1539 199 1539 173 c 0
 1539 133 1552 93 1592 93 c 0
 1633 93 1679 133 1731 211 c 2
 1788 297 l 1
 1853 252 l 1
 1792 163 l 2
 1731 74 1644 -18 1525 -18 c 0
 1429 -18 1376 64 1376 162 c 0
 1376 230 1402.59375 298.58203125 1421 372 c 2
 1510 727 l 1
 1128 727 l 1
 1032 324 l 2
 952.641601562 -9.140625 929 -302 583 -302 c 0
 515 -302 385 -265 374 -163 c 2
 369 -117 l 1
 405 -101 l 2
 420 -94 437 -90 455 -90 c 0
 528 -90 554 -231 631 -231 c 2
EndSplineSet
LCarets2: 2 0 0 
Ligature2: "'liga' Standard Ligatures in Latin lookup 0-1" f f l
EndChar

StartChar: foursuperior
Encoding: 8308 8308 229
Width: 836
GlyphClass: 2
Flags: HW
LayerCount: 2
Fore
SplineSet
570 1149 m 1
 140 721 l 1
 460 721 l 1
 570 1149 l 1
570 654 m 1
 565.75390625 635.6015625 526.236328125 491.973632812 492 323 c 1
 363 323 l 1
 444 654 l 1
 297 652 l 1
 110 652 l 2
 71 652 63 667 63 676 c 0
 63 683 70 700 89 719 c 2
 544 1172 l 2
 585 1213 581 1216 625 1216 c 2
 704 1216 l 1
 584 721 l 1
 765 721 l 1
 748 654 l 1
 570 654 l 1
EndSplineSet
EndChar

StartChar: uni00AD
Encoding: 173 173 250
Width: 824
GlyphClass: 2
Flags: HW
LayerCount: 2
Fore
SplineSet
575 408 m 2
 145 407 l 1
 136 413 136 414 136 423 c 0
 136 437 137.2890625 494.729492188 154 508 c 0
 171.2890625 521.729492188 206 512 240 512 c 2
 605 512 l 2
 636 512 663 511 685 509 c 1
 681 477 680.5078125 422.64453125 663 410 c 0
 644.5078125 396.64453125 610 408 575 408 c 2
EndSplineSet
EndChar

StartChar: hbar
Encoding: 295 295 253
Width: 1206
GlyphClass: 2
Flags: HW
LayerCount: 2
Fore
SplineSet
315 264 m 1
 409.412109375 425.849609375 686.420898438 922 879 922 c 0
 1005 922 1049 837 1049 759 c 0
 1049 569 886 318 886 158 c 0
 886 128 893 91 928 91 c 0
 994 91 1050 174 1127 284 c 2
 1141 304 l 1
 1171 279 1189 263 1198 255 c 1
 1176 225 l 2
 1062 70 983 -22 853 -22 c 0
 767 -22 719 45 719 140 c 0
 719 357 895 644 895 746 c 0
 895 772 880 801 845 801 c 0
 723 801 506 435 438 328 c 0
 409 282 323 152 250 42 c 0
 230 12 198 -22 167 -22 c 0
 113 -22 69 14 69 83 c 0
 69 116 78 149 88 185 c 2
 299 963 l 1
 122 942 l 1
 129 1037 l 1
 326 1061 l 1
 389 1295 l 1
 211 1295 l 2
 185 1295 184 1300 184 1307 c 0
 184 1326 201 1375 211 1376 c 2
 509 1412 l 2
 516 1413 521 1413 528 1413 c 0
 556 1413 561 1408 561 1380 c 0
 561 1362 557 1333 548 1298 c 2
 490 1082 l 1
 675 1106 l 1
 668 1011 l 1
 463 985 l 1
 276 281 l 1
 315 264 l 1
EndSplineSet
EndChar

StartChar: IJ
Encoding: 306 306 258
Width: 1704
GlyphClass: 2
Flags: HW
LayerCount: 2
Fore
SplineSet
1537 1134 m 1
 1557.52636719 1181.89355469 1630.18359375 1347 1718 1347 c 0
 1778 1347 1780 1300 1780 1284 c 0
 1780 1185.13378906 1637.52539062 1160.93359375 1625 1091 c 2
 1565 756 l 1
 1716 756 l 1
 1699 665 l 1
 1556 665 l 1
 1464 192 l 1
 1468 195 l 1
 1405 -129 1279 -303 1027 -303 c 0
 935 -303 761 -265 757 -168 c 1
 757 -166 l 2
 757 -117 794 -94 837 -94 c 0
 904 -94 983 -217 1067 -217 c 0
 1162 -217 1223 -132 1265 70 c 2
 1389 668 l 1
 1190 668 l 1
 1206 762 l 1
 1416 762 l 1
 1482 1086 l 1
 1405.75488281 1089.8125 1344.21191406 1092.24121094 1294 1142 c 2
 1183 1252 l 2
 1164 1270 1142 1278 1121 1278 c 0
 1062.70410156 1278 1015 1213.80859375 1015 1139 c 0
 1015 1055.80859375 1164 1145.17382812 1164 1037 c 0
 1164 981 1133 948 1078 948 c 0
 992 948 956 1052 956 1117 c 0
 956 1248 1055 1358 1186 1358 c 0
 1254 1358 1317 1330 1358 1277 c 1
 1358 1275 l 1
 1477.34082031 1146.90039062 1490.5234375 1149.4921875 1537 1134 c 1
-71 45 m 1
 -72 45 l 1
 -72 73 -56.123046875 98 -52 98 c 0
 26 98 101 107 130 231 c 2
 311 1017 l 2
 314 1032 316 1044 316 1057 c 0
 316 1123 256.638671875 1133.1796875 164 1137 c 0
 159.638671875 1137.1796875 160 1149 160 1165 c 0
 160 1195 169 1207 175 1207 c 2
 664 1207 l 2
 667 1207 671 1207 671 1189 c 0
 671 1162 656.123046875 1137 652 1137 c 0
 576 1137 503 1128 475 1004 c 2
 295 217 l 2
 292 204 290 192 290 180 c 0
 290 107 362.344726562 100.79296875 442 97 c 0
 446.344726562 96.79296875 446 85 446 69 c 0
 446 39 437 27 431 27 c 2
 -64 27 l 2
 -67 27 -71 27 -71 45 c 1
EndSplineSet
EndChar

StartChar: ij
Encoding: 307 307 259
Width: 1540
GlyphClass: 2
Flags: HW
LayerCount: 2
Fore
SplineSet
613 249 m 1
 555 160 l 2
 497 71 415 -20 301 -20 c 0
 205 -20 145 64 145 162 c 0
 145 229 167 299 192 369 c 2
 292 653 l 1
 299 679 311 708 311 737 c 0
 311 775 293 805 256 805 c 0
 220 805 176 762 61 604 c 1
 9 643 l 1
 111 781 195 892 311 892 c 0
 419 892 452 817 452 722 c 0
 452 673 443 621 429 576 c 2
 327 253 l 2
 321 235 312 200 312 167 c 0
 312 138 317 90 364 90 c 0
 405 90 444 131 494 208 c 2
 550 294 l 1
 613 249 l 1
358 1216 m 1
 359 1216 l 1
 359 1281 398 1311 447 1311 c 0
 501 1311 555 1273 563 1196 c 1
 563 1187 l 2
 563 1117 527 1090 480 1090 c 0
 426 1090 358 1135 358 1216 c 1
1350 1220 m 0
 1350 1281 1393 1311 1442 1311 c 0
 1498 1311 1563 1268 1563 1182 c 0
 1563 1116 1523 1090 1477 1090 c 0
 1419 1090 1350 1137 1350 1220 c 0
1305 892 m 1
 1305 891 l 1
 1418 891 1461 827 1461 728 c 0
 1461 685 1453 634 1438 576 c 2
 1357 257 l 2
 1288 -13 1220 -340 909 -340 c 0
 831 -340 703 -305 703 -209 c 0
 703 -169 726 -149 764 -149 c 0
 848 -149 889 -248 983 -248 c 0
 1085 -248 1104 -109 1119 -34 c 0
 1145 92 1179 218 1212 343 c 2
 1283 611 l 2
 1291 642 1301 680 1301 714 c 0
 1301 751 1287 787 1246 787 c 0
 1209 787 1167 755 1127 694 c 2
 1069 605 l 1
 1017 644 l 1
 1117 781 1191 892 1305 892 c 1
EndSplineSet
EndChar

StartChar: kgreenlandic
Encoding: 312 312 263
Width: 1097
GlyphClass: 2
Flags: HW
LayerCount: 2
Fore
SplineSet
842 690 m 1
 832 795 757 830 663 830 c 0
 585.73046875 830 422.046875 878.029296875 398 783 c 2
 315 455 l 1
 336 455 l 2
 515 455 842 481 842 676 c 2
 842 690 l 1
653 403 m 1
 715.077148438 179.522460938 745.80078125 102 795 102 c 0
 844 102 899 171 1014 318 c 1
 1077 266 l 1
 970 118 874 -20 751 -20 c 0
 674 -20 637.354492188 5.673828125 592 188 c 2
 542 389 l 1
 530 389 l 1
 530 389 318.807617188 452.342773438 302 382 c 2
 248 156 l 2
 222 49 203 -21 128 -21 c 0
 63 -21 47 13 47 63 c 0
 47 111 67 171 78 213 c 2
 344 1213 l 1
 166 1213 l 2
 140 1213 138 1219 138 1225 c 0
 138 1243 156 1293 166 1294 c 2
 463 1330 l 2
 470 1331 475 1331 482 1331 c 1
 478 1333 l 1
 505 1333 510 1328 510 1300 c 0
 510 1280 506 1252 497 1217 c 2
 404 847 l 1
 432 856 l 2
 510 881 636.995117188 921 747 921 c 0
 870 921 994 870 994 687 c 0
 994 476.845703125 666.424804688 406.159179688 653 403 c 1
EndSplineSet
EndChar

StartChar: dotlessj
Encoding: 567 567 279
Width: 639
Flags: HW
LayerCount: 2
Fore
SplineSet
420 892 m 1
 420 891 l 1
 533 891 576 827 576 728 c 0
 576 685 568 634 553 576 c 2
 472 257 l 2
 403 -13 332 -340 45 -340 c 0
 -36 -340 -168 -305 -168 -209 c 0
 -168 -170 -144 -149 -105 -149 c 0
 -18 -149 24 -248 116 -248 c 0
 209 -248 226 -109 240 -34 c 0
 264 92 292.080078125 218.737304688 325 343 c 2
 396 611 l 2
 404 642 415 680 415 714 c 0
 415 751 401 787 359 787 c 0
 322 787 284 755 248 694 c 2
 195 605 l 1
 148 643 l 1
 239 781 306 892 420 892 c 1
EndSplineSet
EndChar

StartChar: dotaccentcmb
Encoding: 775 775 280
Width: 443
Flags: HW
LayerCount: 2
Fore
SplineSet
258 883 m 0
 302 883 330 853 330 813 c 0
 330 753 269 699 211 699 c 0
 169 699 140 727 140 768 c 0
 140 827 200 883 258 883 c 0
EndSplineSet
EndChar

StartChar: uni030F
Encoding: 783 783 281
Width: 755
Flags: HW
LayerCount: 2
Fore
SplineSet
128 1018 m 1
 172 1037 217 1049 256 1051 c 1
 275 987 316.915039062 708.74609375 316 663 c 0
 315.915039062 658.74609375 308 660 305 659 c 1
 272 710 156 950 128 1018 c 1
430 1019 m 1
 432 1018 l 1
 474 1038 520 1050 560 1052 c 1
 585 984 636 721 639 662 c 1
 635 661 630.234375 658.45703125 629 660 c 0
 590.234375 708.45703125 459 951 430 1019 c 1
EndSplineSet
EndChar

StartChar: uni0311
Encoding: 785 785 282
Width: 709
Flags: HW
LayerCount: 2
Fore
SplineSet
154 684 m 1
 128 684 l 1
 168 820 262 896 405 896 c 0
 527 896 590 835 590 732 c 0
 590 717 589 700 586 684 c 1
 557 684 l 1
 542 772 458 800 379 800 c 0
 288 800 211 765 154 684 c 1
EndSplineSet
EndChar

StartChar: uni0326
Encoding: 806 806 283
Width: 659
Flags: HW
LayerCount: 2
Fore
SplineSet
172 -272 m 0
 172 -184.252929688 254.383789062 -108 343 -108 c 0
 405 -108 456 -132 456 -231 c 0
 456 -457 257 -561 170 -561 c 0
 154 -561 153 -560 153 -555 c 0
 153 -502 279 -552 311 -390 c 2
 315 -370 l 1
 294 -370 l 2
 207 -370 172 -328 172 -272 c 0
EndSplineSet
EndChar

StartChar: Euro
Encoding: 8364 8364 284
Width: 1137
Flags: HW
LayerCount: 2
Fore
SplineSet
237 772 m 1
 334.827148438 1041.02636719 553.821289062 1273 834 1273 c 0
 939 1273 1056.10839844 1249.23925781 1110 1169 c 0
 1146.10839844 1115.23925781 1124 1029 1126 957 c 1
 1035 957 l 1
 1013 1133 933 1230 799 1230 c 0
 634 1230 488 1060 406 794 c 1
 399 772 l 1
 605 772 l 2
 716 772 799 766 866 754 c 1
 857 739 842.849609375 716 803 716 c 2
 384 716 l 1
 371 662 l 2
 362.28125 623.387695312 358.48828125 589.5859375 353 553 c 1
 549 553 l 2
 655 553 733 548 797 537 c 1
 781.97265625 521.97265625 775.479492188 497 732 497 c 2
 346 497 l 1
 344.40234375 471.430664062 343 444.3046875 343 418 c 0
 343 211 416 46 591 46 c 0
 721 46 835 141 891 221 c 1
 966 199 l 1
 891 102 742 -6 560 -6 c 0
 310 -6 176 177 176 438 c 0
 176 457.356445312 176.96875 477.430664062 178 496 c 1
 108 496 l 2
 64 496 44 500 38 503 c 1
 47 525 58.9404296875 552 101 552 c 2
 181 552 l 1
 187.553710938 601.154296875 194.012695312 646.436523438 211 694 c 1
 218 716 l 1
 122 716 l 1
 98 727 97 733 97 742 c 0
 97 766 98 772 178 772 c 2
 237 772 l 1
EndSplineSet
EndChar

StartChar: foundryicon
Encoding: 65537 -1 285
Width: 1239
Flags: HW
LayerCount: 2
Fore
SplineSet
794 832 m 1
 854.197265625 827.987304688 916.081054688 825 977 825 c 0
 1002 825 1060 832 1147 832 c 0
 1197 832 1227 822 1232 815 c 1
 1217 801 1153 767 1126 749 c 0
 1020.76855469 676.147460938 928.852539062 592.946289062 829 534 c 0
 804.654296875 519.627929688 819 471.348632812 819 440 c 0
 819 353 840 269 840 188 c 0
 840 138 835 89 810 89 c 0
 782 89 673 392 536 392 c 0
 484.525390625 392 195.8125 129 141 129 c 0
 130 129 131 130 131 133 c 2
 131 136 l 1
 150 212 323 452 337 514 c 1
 337 518 l 2
 337 563 181 719 157 745 c 0
 125 779 65 802 65 830 c 0
 65 847 76 852 94 852 c 0
 163 852 235 833 310 830 c 2
 509 822 l 1
 657 1065 l 2
 684 1109 747 1217 779 1217 c 0
 784 1217 801 1203.21972656 801 1194 c 0
 801 1190.83789062 800 1191 800 1188 c 0
 791 1141 788 1086 788 1037 c 0
 788 972 794 907 794 847 c 2
 794 832 l 1
EndSplineSet
EndChar

StartChar: commaaccent
Encoding: 65538 -1 286
Width: 659
Flags: HW
LayerCount: 2
Fore
SplineSet
172 -272 m 0
 172 -184.252929688 254.383789062 -108 343 -108 c 0
 405 -108 456 -132 456 -231 c 0
 456 -457 257 -561 170 -561 c 0
 154 -561 153 -560 153 -555 c 0
 153 -502 279 -552 311 -390 c 2
 315 -370 l 1
 294 -370 l 2
 207 -370 172 -328 172 -272 c 0
EndSplineSet
EndChar

StartChar: Dcroat
Encoding: 272 272 311
Width: 1255
Flags: HW
LayerCount: 2
Fore
SplineSet
903 1627 m 1
 336 1627 l 1
 355 1721 l 1
 922 1721 l 1
 903 1627 l 1
575 100 m 2
 847 100 1037 502 1037 795 c 0
 1037 968 952 1159 717 1159 c 2
 635 1159 l 2
 549 1159 504.506835938 1139.95800781 485 1050 c 2
 279 100 l 1
 575 100 l 2
707 1206 m 1
 708 1209 l 1
 984 1209 1223 1020 1223 725 c 0
 1223 389 957 30 595 30 c 2
 -54 29 l 2
 -58 29 -61 29 -61 47 c 0
 -61 69 -51.0712890625 99 -44 99 c 0
 31 99 114.140625 106.739257812 142 231 c 2
 318 1016 l 2
 320 1027 321 1037 321 1047 c 0
 321 1126 242 1138 168 1138 c 0
 164 1138 161 1138 161 1156 c 0
 161 1184 177 1206 181 1206 c 2
 707 1206 l 1
EndSplineSet
EndChar

StartChar: dcroat
Encoding: 273 273 325
Width: 1175
Flags: HW
LayerCount: 2
Fore
SplineSet
370 360 m 1
 377 401 393.598632812 475 405 475 c 2
 721.807617188 475 l 1
 727.7890625 509.774414062 731 545.0390625 731 580 c 0
 731 727 669 839 557 839 c 1
 559 837 l 1
 378 837 254 567 254 325 c 0
 254 216 289 73 408 73 c 0
 522.32421875 73 634.21875 199.83203125 691.515625 360 c 1
 370 360 l 1
1114 333 m 1
 1174 286 l 1
 1085 153 977 -21 817 -21 c 0
 733 -21 690 41 690 150 c 0
 690 174 693 201 700 231 c 2
 728.456054688 360 l 1
 726.556640625 360 l 1
 669 243 l 2
 597 97 484 -21 337 -21 c 0
 149 -21 63 195 63 351 c 0
 63 644 267 921 543 921 c 0
 628 921 734 856 755 761 c 0
 755 758 905 1192 905 1192 c 1
 911 1214 l 1
 738 1214 l 2
 714 1214 712 1220 712 1226 c 0
 712 1244 729 1294 738 1295 c 2
 1035 1331 l 2
 1042 1332 1047 1332 1054 1332 c 0
 1083 1332 1088 1327 1088 1298 c 0
 1088 1279 1082 1252 1073 1217 c 2
 828 296 l 2
 824 281 807 225 807 177 c 0
 807 138 826 91 879 91 c 0
 952 91 1013 191 1114 333 c 1
EndSplineSet
EndChar

